<svg width="13" height="13" viewBox="0 0 13 13" fill="none" xmlns="http://www.w3.org/2000/svg">
<path d="M5.96094 0.816406L5.41406 1.33594C5.27734 1.47266 5.27734 1.69141 5.41406 1.80078L9.65234 6.03906H0.328125C0.136719 6.03906 0 6.20312 0 6.36719V7.13281C0 7.32422 0.136719 7.46094 0.328125 7.46094H9.65234L5.41406 11.7266C5.27734 11.8359 5.27734 12.0547 5.41406 12.1914L5.96094 12.7109C6.07031 12.8477 6.28906 12.8477 6.42578 12.7109L12.1406 6.99609C12.2773 6.85938 12.2773 6.66797 12.1406 6.53125L6.42578 0.816406C6.28906 0.679688 6.07031 0.679688 5.96094 0.816406Z" fill="white"/>
</svg>
