<svg width="2572" height="2572" viewBox="0 0 2572 2572" fill="none" xmlns="http://www.w3.org/2000/svg">
<path d="M646.753 746.365C647.047 749.37 646.886 753.047 646.269 757.397C645.653 761.746 644.463 766.357 642.701 771.231C640.87 776.052 638.256 780.709 634.856 785.199C630.685 790.71 625.946 795.204 620.64 798.679C615.266 802.103 609.615 804.407 603.687 805.593C597.812 806.71 591.882 806.556 585.897 805.13C579.845 803.653 574.029 800.802 568.45 796.579C563.211 792.614 559.153 787.936 556.275 782.548C553.449 777.091 551.794 771.289 551.309 765.143C550.824 758.997 551.5 752.873 553.336 746.771C555.104 740.618 557.997 734.888 562.014 729.58C565.31 725.226 569.09 721.505 573.353 718.418C577.548 715.279 581.749 712.84 585.955 711.101C590.213 709.293 594.049 708.184 597.464 707.772L601.167 721.331C595.718 722.451 590.53 724.356 585.603 727.048C580.608 729.688 576.179 733.56 572.316 738.663C569.69 742.133 567.719 745.939 566.403 750.08C565.088 754.221 564.548 758.469 564.785 762.822C565.005 767.055 566.088 771.139 568.033 775.073C570.03 778.939 573.002 782.366 576.948 785.353C582.663 789.679 588.49 791.949 594.428 792.163C600.299 792.325 605.894 790.942 611.215 788.013C616.519 784.965 621.077 780.923 624.888 775.888C627.669 772.214 629.691 768.553 630.953 764.907C632.147 761.208 632.905 757.662 633.227 754.267C633.549 750.872 633.691 747.715 633.653 744.797L646.753 746.365Z" fill="white"/>
<path d="M646.753 746.365L649.739 746.073L649.504 743.673L647.11 743.386L646.753 746.365ZM646.269 757.397L643.299 756.976L646.269 757.397ZM642.701 771.231L645.505 772.295L645.514 772.273L645.522 772.251L642.701 771.231ZM620.64 798.679L622.252 801.209L622.268 801.199L622.284 801.189L620.64 798.679ZM603.687 805.593L604.248 808.54L604.262 808.537L604.276 808.535L603.687 805.593ZM585.897 805.13L585.186 808.044L585.194 808.046L585.202 808.048L585.897 805.13ZM556.275 782.548L553.611 783.927L553.62 783.944L553.629 783.961L556.275 782.548ZM551.309 765.143L554.3 764.907L554.3 764.907L551.309 765.143ZM553.336 746.771L556.209 747.635L556.214 747.618L556.219 747.6L553.336 746.771ZM573.353 718.418L575.112 720.848L575.131 720.834L575.15 720.82L573.353 718.418ZM585.955 711.101L587.101 713.873L587.114 713.868L587.127 713.862L585.955 711.101ZM597.464 707.772L600.358 706.982L599.676 704.484L597.105 704.794L597.464 707.772ZM601.167 721.331L601.771 724.27L604.904 723.626L604.061 720.541L601.167 721.331ZM585.603 727.048L587.005 729.7L587.023 729.691L587.041 729.681L585.603 727.048ZM566.403 750.08L563.544 749.172L566.403 750.08ZM564.785 762.822L567.781 762.666L567.781 762.659L564.785 762.822ZM568.033 775.073L565.344 776.403L565.356 776.426L565.368 776.45L568.033 775.073ZM594.428 792.163L594.32 795.161L594.333 795.161L594.345 795.162L594.428 792.163ZM611.215 788.013L612.662 790.641L612.686 790.628L612.71 790.614L611.215 788.013ZM630.953 764.907L633.788 765.888L633.798 765.858L633.807 765.828L630.953 764.907ZM633.227 754.267L630.24 753.983L633.227 754.267ZM633.653 744.797L634.009 741.818L630.608 741.411L630.653 744.836L633.653 744.797ZM643.767 746.657C644.03 749.344 643.896 752.766 643.299 756.976L649.239 757.818C649.876 753.329 650.064 749.396 649.739 746.073L643.767 746.657ZM643.299 756.976C642.716 761.088 641.584 765.498 639.88 770.21L645.522 772.251C647.342 767.217 648.589 762.404 649.239 757.818L643.299 756.976ZM639.896 770.166C638.176 774.697 635.707 779.105 632.464 783.389L637.248 787.01C640.804 782.312 643.565 777.407 645.505 772.295L639.896 770.166ZM632.464 783.389C628.482 788.65 623.99 792.899 618.996 796.169L622.284 801.189C627.902 797.509 632.888 792.771 637.248 787.01L632.464 783.389ZM619.028 796.149C613.949 799.384 608.643 801.542 603.099 802.651L604.276 808.535C610.586 807.272 616.582 804.821 622.252 801.209L619.028 796.149ZM603.127 802.646C597.679 803.682 592.177 803.542 586.593 802.212L585.202 808.048C591.586 809.57 597.944 809.739 604.248 808.54L603.127 802.646ZM586.609 802.216C581.001 800.847 575.553 798.193 570.261 794.187L566.64 798.971C572.505 803.411 578.689 806.459 585.186 808.044L586.609 802.216ZM570.261 794.187C565.341 790.463 561.58 786.112 558.922 781.134L553.629 783.961C556.726 789.761 561.081 794.764 566.64 798.971L570.261 794.187ZM558.939 781.168C556.298 776.068 554.753 770.655 554.3 764.907L548.318 765.379C548.835 771.923 550.601 778.114 553.611 783.927L558.939 781.168ZM554.3 764.907C553.845 759.144 554.476 753.393 556.209 747.635L550.463 745.907C548.524 752.353 547.803 758.849 548.318 765.379L554.3 764.907ZM556.219 747.6C557.881 741.815 560.603 736.416 564.406 731.391L559.622 727.77C555.391 733.359 552.327 739.42 550.453 745.943L556.219 747.6ZM564.406 731.391C567.53 727.264 571.098 723.754 575.112 720.848L571.593 715.988C567.081 719.256 563.09 723.188 559.622 727.77L564.406 731.391ZM575.15 720.82C579.174 717.809 583.159 715.503 587.101 713.873L584.809 708.328C580.339 710.176 575.922 712.749 571.556 716.016L575.15 720.82ZM587.127 713.862C591.208 712.13 594.765 711.119 597.823 710.751L597.105 704.794C593.333 705.248 589.217 706.457 584.783 708.339L587.127 713.862ZM594.57 708.563L598.273 722.122L604.061 720.541L600.358 706.982L594.57 708.563ZM600.564 718.393C594.82 719.572 589.351 721.582 584.165 724.415L587.041 729.681C591.709 727.13 596.616 725.329 601.771 724.27L600.564 718.393ZM584.201 724.396C578.77 727.267 574.016 731.446 569.924 736.852L574.708 740.474C578.341 735.674 582.446 732.11 587.005 729.7L584.201 724.396ZM569.924 736.852C567.092 740.594 564.963 744.705 563.544 749.172L569.262 750.988C570.474 747.173 572.287 743.672 574.708 740.474L569.924 736.852ZM563.544 749.172C562.118 753.66 561.533 758.271 561.79 762.985L567.781 762.659C567.564 758.667 568.057 754.783 569.262 750.988L563.544 749.172ZM561.789 762.978C562.031 767.634 563.224 772.116 565.344 776.403L570.723 773.743C568.952 770.163 567.979 766.477 567.781 762.666L561.789 762.978ZM565.368 776.45C567.597 780.765 570.883 784.525 575.137 787.745L578.759 782.961C575.12 780.207 572.463 777.113 570.699 773.696L565.368 776.45ZM575.137 787.745C581.241 792.365 587.648 794.92 594.32 795.161L594.536 789.165C589.332 788.977 584.086 786.993 578.759 782.961L575.137 787.745ZM594.345 795.162C600.768 795.34 606.89 793.819 612.662 790.641L609.768 785.385C604.899 788.066 599.829 789.311 594.511 789.164L594.345 795.162ZM612.71 790.614C618.374 787.358 623.234 783.044 627.28 777.698L622.496 774.077C618.92 778.802 614.664 782.571 609.72 785.412L612.71 790.614ZM627.28 777.698C630.216 773.82 632.405 769.884 633.788 765.888L628.118 763.925C626.976 767.223 625.122 770.607 622.496 774.077L627.28 777.698ZM633.807 765.828C635.059 761.951 635.868 758.19 636.213 754.55L630.24 753.983C629.941 757.134 629.234 760.466 628.098 763.985L633.807 765.828ZM636.213 754.55C636.544 751.066 636.692 747.8 636.653 744.757L630.653 744.836C630.69 747.631 630.554 750.679 630.24 753.983L636.213 754.55ZM633.296 747.775L646.397 749.344L647.11 743.386L634.009 741.818L633.296 747.775Z" fill="white"/>
<path d="M684.369 599.308L738.166 555.503L746.571 565.825L703.494 600.902L718.446 619.264L756.064 588.633L764.47 598.956L726.851 629.587L743.258 649.736L786.335 614.66L794.741 624.982L740.944 668.787L684.369 599.308Z" fill="white"/>
<path d="M684.369 599.308L682.475 596.981L680.148 598.876L682.042 601.202L684.369 599.308ZM738.166 555.503L740.492 553.608L738.598 551.282L736.272 553.176L738.166 555.503ZM746.571 565.825L748.466 568.152L750.792 566.257L748.898 563.931L746.571 565.825ZM703.494 600.902L701.6 598.575L699.273 600.47L701.168 602.796L703.494 600.902ZM718.446 619.264L716.12 621.158L718.014 623.485L720.34 621.591L718.446 619.264ZM756.064 588.633L758.391 586.739L756.496 584.412L754.17 586.307L756.064 588.633ZM764.47 598.956L766.364 601.282L768.69 599.388L766.796 597.061L764.47 598.956ZM726.851 629.587L724.957 627.261L722.631 629.155L724.525 631.481L726.851 629.587ZM743.258 649.736L740.932 651.63L742.826 653.957L745.152 652.062L743.258 649.736ZM786.335 614.66L788.662 612.765L786.768 610.439L784.441 612.333L786.335 614.66ZM794.741 624.982L796.635 627.309L798.961 625.414L797.067 623.088L794.741 624.982ZM740.944 668.787L738.617 670.682L740.512 673.008L742.838 671.114L740.944 668.787ZM686.263 601.634L740.06 557.829L736.272 553.176L682.475 596.981L686.263 601.634ZM735.84 557.397L744.245 567.72L748.898 563.931L740.492 553.608L735.84 557.397ZM744.677 563.499L701.6 598.575L705.388 603.228L748.466 568.152L744.677 563.499ZM701.168 602.796L716.12 621.158L720.772 617.37L705.82 599.007L701.168 602.796ZM720.34 621.591L757.958 590.959L754.17 586.307L716.552 616.938L720.34 621.591ZM753.738 590.527L762.143 600.85L766.796 597.061L758.391 586.739L753.738 590.527ZM762.575 596.629L724.957 627.261L728.746 631.913L766.364 601.282L762.575 596.629ZM724.525 631.481L740.932 651.63L745.584 647.842L729.178 627.693L724.525 631.481ZM745.152 652.062L788.23 616.986L784.441 612.333L741.364 647.41L745.152 652.062ZM784.009 616.554L792.415 626.877L797.067 623.088L788.662 612.765L784.009 616.554ZM792.847 622.656L739.049 666.461L742.838 671.114L796.635 627.309L792.847 622.656ZM743.27 666.893L686.695 597.413L682.042 601.202L738.617 670.682L743.27 666.893Z" fill="white"/>
<path d="M944.441 469.453C946.182 473.16 947.003 477.017 946.905 481.023C946.847 484.915 946.047 488.732 944.504 492.473C942.925 496.137 940.632 499.383 937.623 502.21L975.062 523.516L959.482 530.691L924.42 510.531L899.162 522.392L913.254 552.4L900.741 558.276L862.655 477.174L906.45 456.607C911.084 454.431 915.879 453.499 920.834 453.812C925.866 454.089 930.468 455.557 934.64 458.217C938.889 460.841 942.156 464.587 944.441 469.453ZM909.096 470.072L880.826 483.347L893.503 510.343L922.7 496.632C925.481 495.326 927.701 493.529 929.361 491.241C931.061 488.84 932.078 486.288 932.412 483.586C932.787 480.771 932.394 478.127 931.233 475.655C930.036 473.106 928.25 471.211 925.876 469.969C923.465 468.65 920.77 468.03 917.791 468.11C914.852 468.075 911.954 468.729 909.096 470.072Z" fill="white"/>
<path d="M946.905 481.023L943.906 480.949L943.905 480.964L943.905 480.978L946.905 481.023ZM944.504 492.473L947.259 493.66L947.269 493.639L947.278 493.617L944.504 492.473ZM937.623 502.21L935.568 500.023L932.606 502.807L936.139 504.817L937.623 502.21ZM975.062 523.516L976.317 526.241L981.622 523.798L976.546 520.909L975.062 523.516ZM959.482 530.691L957.987 533.292L959.33 534.064L960.737 533.416L959.482 530.691ZM924.42 510.531L925.915 507.93L924.56 507.151L923.144 507.816L924.42 510.531ZM899.162 522.392L897.887 519.677L895.171 520.952L896.447 523.668L899.162 522.392ZM913.254 552.4L914.529 555.116L917.245 553.841L915.969 551.125L913.254 552.4ZM900.741 558.276L898.026 559.552L899.301 562.267L902.016 560.992L900.741 558.276ZM862.655 477.174L861.379 474.459L858.664 475.734L859.939 478.449L862.655 477.174ZM920.834 453.812L920.645 456.806L920.657 456.807L920.669 456.808L920.834 453.812ZM934.64 458.217L933.027 460.747L933.045 460.759L933.063 460.77L934.64 458.217ZM880.826 483.347L879.551 480.632L876.835 481.907L878.111 484.623L880.826 483.347ZM893.503 510.343L890.788 511.618L892.063 514.334L894.779 513.058L893.503 510.343ZM929.361 491.241L931.789 493.003L931.799 492.989L931.809 492.975L929.361 491.241ZM932.412 483.586L929.438 483.191L929.436 483.205L929.435 483.219L932.412 483.586ZM925.876 469.969L924.436 472.601L924.461 472.615L924.486 472.628L925.876 469.969ZM917.791 468.11L917.756 471.109L917.813 471.11L917.871 471.109L917.791 468.11ZM941.726 470.728C943.273 474.024 943.993 477.419 943.906 480.949L949.904 481.097C950.014 476.615 949.091 472.297 947.157 468.177L941.726 470.728ZM943.905 480.978C943.853 484.478 943.136 487.923 941.731 491.329L947.278 493.617C948.959 489.541 949.841 485.352 949.905 481.067L943.905 480.978ZM941.749 491.286C940.339 494.559 938.288 497.468 935.568 500.023L939.677 504.396C942.975 501.297 945.512 497.715 947.259 493.66L941.749 491.286ZM936.139 504.817L973.578 526.123L976.546 520.909L939.106 499.602L936.139 504.817ZM973.807 520.791L958.227 527.966L960.737 533.416L976.317 526.241L973.807 520.791ZM960.978 528.09L925.915 507.93L922.924 513.132L957.987 533.292L960.978 528.09ZM923.144 507.816L897.887 519.677L900.437 525.108L925.695 513.247L923.144 507.816ZM896.447 523.668L910.539 553.675L915.969 551.125L901.877 521.117L896.447 523.668ZM911.979 549.685L899.466 555.561L902.016 560.992L914.529 555.116L911.979 549.685ZM903.457 557.001L865.37 475.899L859.939 478.449L898.026 559.552L903.457 557.001ZM863.93 479.89L907.725 459.323L905.175 453.892L861.379 474.459L863.93 479.89ZM907.725 459.323C911.917 457.354 916.21 456.526 920.645 456.806L921.023 450.818C915.548 450.472 910.251 451.508 905.175 453.892L907.725 459.323ZM920.669 456.808C925.197 457.056 929.298 458.369 933.027 460.747L936.253 455.688C931.638 452.745 926.535 451.121 920.998 450.817L920.669 456.808ZM933.063 460.77C936.779 463.064 939.668 466.347 941.726 470.728L947.157 468.177C944.644 462.826 940.999 458.619 936.216 455.665L933.063 460.77ZM907.821 467.356L879.551 480.632L882.101 486.063L910.371 472.787L907.821 467.356ZM878.111 484.623L890.788 511.618L896.219 509.068L883.542 482.072L878.111 484.623ZM894.779 513.058L923.975 499.347L921.425 493.916L892.228 507.627L894.779 513.058ZM923.975 499.347C927.174 497.845 929.806 495.736 931.789 493.003L926.932 489.48C925.596 491.322 923.788 492.807 921.425 493.916L923.975 499.347ZM931.809 492.975C933.772 490.203 934.99 487.187 935.389 483.954L929.435 483.219C929.167 485.389 928.35 487.477 926.912 489.508L931.809 492.975ZM935.386 483.982C935.833 480.62 935.364 477.394 933.948 474.38L928.518 476.931C929.424 478.86 929.74 480.921 929.438 483.191L935.386 483.982ZM933.948 474.38C932.488 471.27 930.253 468.873 927.266 467.311L924.486 472.628C926.248 473.549 927.584 474.943 928.518 476.931L933.948 474.38ZM927.316 467.337C924.401 465.742 921.174 465.018 917.711 465.111L917.871 471.109C920.366 471.042 922.53 471.558 924.436 472.601L927.316 467.337ZM917.826 465.11C914.401 465.07 911.057 465.836 907.821 467.356L910.371 472.787C912.851 471.623 915.303 471.081 917.756 471.109L917.826 465.11Z" fill="white"/>
<path d="M1113.5 482.06L1098.16 407.33L1067.32 413.661L1064.64 400.621L1140.75 385L1143.43 398.04L1111.71 404.551L1127.04 479.281L1113.5 482.06Z" fill="white"/>
<path d="M1113.5 482.06L1110.56 482.664L1111.17 485.602L1114.11 484.999L1113.5 482.06ZM1098.16 407.33L1101.1 406.727L1100.5 403.788L1097.56 404.391L1098.16 407.33ZM1067.32 413.661L1064.38 414.264L1064.98 417.203L1067.92 416.6L1067.32 413.661ZM1064.64 400.621L1064.04 397.682L1061.1 398.285L1061.7 401.224L1064.64 400.621ZM1140.75 385L1143.69 384.396L1143.09 381.458L1140.15 382.061L1140.75 385ZM1143.43 398.04L1144.03 400.979L1146.97 400.375L1146.37 397.437L1143.43 398.04ZM1111.71 404.551L1111.1 401.612L1108.16 402.215L1108.77 405.154L1111.71 404.551ZM1127.04 479.281L1127.65 482.22L1130.59 481.617L1129.98 478.678L1127.04 479.281ZM1116.44 481.457L1101.1 406.727L1095.23 407.933L1110.56 482.664L1116.44 481.457ZM1097.56 404.391L1066.72 410.722L1067.92 416.6L1098.77 410.269L1097.56 404.391ZM1070.26 413.058L1067.58 400.018L1061.7 401.224L1064.38 414.264L1070.26 413.058ZM1065.25 403.56L1141.36 387.938L1140.15 382.061L1064.04 397.682L1065.25 403.56ZM1137.81 385.603L1140.49 398.643L1146.37 397.437L1143.69 384.396L1137.81 385.603ZM1142.83 395.101L1111.1 401.612L1112.31 407.49L1144.03 400.979L1142.83 395.101ZM1108.77 405.154L1124.11 479.884L1129.98 478.678L1114.65 403.948L1108.77 405.154ZM1126.44 476.342L1112.9 479.122L1114.11 484.999L1127.65 482.22L1126.44 476.342Z" fill="white"/>
<path d="M1332.32 464.647L1276.66 463.496L1276.93 450.059L1297.79 450.49L1299.09 387.783L1278.23 387.352L1278.51 373.915L1334.17 375.066L1333.9 388.503L1312.91 388.069L1311.61 450.776L1332.6 451.21L1332.32 464.647Z" fill="white"/>
<path d="M1332.32 464.647L1332.26 467.646L1335.26 467.708L1335.32 464.709L1332.32 464.647ZM1276.66 463.496L1273.66 463.434L1273.59 466.433L1276.59 466.495L1276.66 463.496ZM1276.93 450.059L1276.99 447.06L1274 446.998L1273.93 449.997L1276.93 450.059ZM1297.79 450.49L1297.73 453.489L1300.73 453.551L1300.79 450.552L1297.79 450.49ZM1299.09 387.783L1302.09 387.845L1302.15 384.846L1299.15 384.784L1299.09 387.783ZM1278.23 387.352L1275.23 387.29L1275.17 390.29L1278.17 390.352L1278.23 387.352ZM1278.51 373.915L1278.57 370.916L1275.57 370.854L1275.51 373.853L1278.51 373.915ZM1334.17 375.066L1337.17 375.128L1337.24 372.128L1334.24 372.066L1334.17 375.066ZM1333.9 388.503L1333.84 391.502L1336.83 391.564L1336.9 388.565L1333.9 388.503ZM1312.91 388.069L1312.97 385.07L1309.97 385.008L1309.91 388.007L1312.91 388.069ZM1311.61 450.776L1308.61 450.714L1308.55 453.713L1311.55 453.775L1311.61 450.776ZM1332.6 451.21L1335.6 451.272L1335.66 448.272L1332.66 448.21L1332.6 451.21ZM1332.39 461.647L1276.72 460.497L1276.59 466.495L1332.26 467.646L1332.39 461.647ZM1279.65 463.558L1279.93 450.121L1273.93 449.997L1273.66 463.434L1279.65 463.558ZM1276.87 453.058L1297.73 453.489L1297.85 447.491L1276.99 447.06L1276.87 453.058ZM1300.79 450.552L1302.09 387.845L1296.09 387.722L1294.79 450.428L1300.79 450.552ZM1299.15 384.784L1278.29 384.353L1278.17 390.352L1299.03 390.783L1299.15 384.784ZM1281.23 387.414L1281.51 373.977L1275.51 373.853L1275.23 387.29L1281.23 387.414ZM1278.44 376.915L1334.11 378.065L1334.24 372.066L1278.57 370.916L1278.44 376.915ZM1331.18 375.004L1330.9 388.441L1336.9 388.565L1337.17 375.128L1331.18 375.004ZM1333.96 385.504L1312.97 385.07L1312.85 391.069L1333.84 391.502L1333.96 385.504ZM1309.91 388.007L1308.61 450.714L1314.61 450.838L1315.91 388.131L1309.91 388.007ZM1311.55 453.775L1332.54 454.209L1332.66 448.21L1311.68 447.776L1311.55 453.775ZM1329.6 451.148L1329.32 464.585L1335.32 464.709L1335.6 451.272L1329.6 451.148Z" fill="white"/>
<path d="M1459.94 482.007L1482.32 395.247L1549.38 412.543L1546.05 425.433L1492.38 411.59L1485.96 436.502L1534.05 448.907L1530.72 461.797L1482.63 449.393L1473.33 485.46L1459.94 482.007Z" fill="white"/>
<path d="M1459.94 482.007L1457.04 481.258L1456.29 484.163L1459.19 484.912L1459.94 482.007ZM1482.32 395.247L1483.07 392.342L1480.17 391.593L1479.42 394.498L1482.32 395.247ZM1549.38 412.543L1552.28 413.292L1553.03 410.387L1550.12 409.638L1549.38 412.543ZM1546.05 425.433L1545.3 428.338L1548.21 429.087L1548.96 426.182L1546.05 425.433ZM1492.38 411.59L1493.13 408.685L1490.23 407.936L1489.48 410.841L1492.38 411.59ZM1485.96 436.502L1483.05 435.753L1482.3 438.658L1485.21 439.407L1485.96 436.502ZM1534.05 448.907L1536.95 449.656L1537.7 446.751L1534.8 446.002L1534.05 448.907ZM1530.72 461.797L1529.97 464.702L1532.88 465.451L1533.63 462.546L1530.72 461.797ZM1482.63 449.393L1483.38 446.488L1480.48 445.738L1479.73 448.643L1482.63 449.393ZM1473.33 485.46L1472.58 488.365L1475.48 489.114L1476.23 486.209L1473.33 485.46ZM1462.85 482.756L1485.23 395.996L1479.42 394.498L1457.04 481.258L1462.85 482.756ZM1481.57 398.152L1548.63 415.448L1550.12 409.638L1483.07 392.342L1481.57 398.152ZM1546.47 411.794L1543.15 424.684L1548.96 426.182L1552.28 413.292L1546.47 411.794ZM1546.8 422.528L1493.13 408.685L1491.63 414.495L1545.3 428.338L1546.8 422.528ZM1489.48 410.841L1483.05 435.753L1488.86 437.252L1495.29 412.339L1489.48 410.841ZM1485.21 439.407L1533.3 451.812L1534.8 446.002L1486.71 433.598L1485.21 439.407ZM1531.14 448.158L1527.82 461.048L1533.63 462.546L1536.95 449.656L1531.14 448.158ZM1531.47 458.892L1483.38 446.488L1481.88 452.297L1529.97 464.702L1531.47 458.892ZM1479.73 448.643L1470.42 484.711L1476.23 486.209L1485.54 450.142L1479.73 448.643ZM1474.08 482.555L1460.69 479.102L1459.19 484.912L1472.58 488.365L1474.08 482.555Z" fill="white"/>
<path d="M1690.1 570.281L1640.76 544.463L1647 532.555L1665.48 542.229L1694.56 486.659L1676.08 476.985L1682.31 465.077L1731.64 490.895L1725.41 502.803L1706.81 493.069L1677.73 548.639L1696.33 558.373L1690.1 570.281Z" fill="white"/>
<path d="M1690.1 570.281L1688.71 572.939L1691.36 574.33L1692.75 571.672L1690.1 570.281ZM1640.76 544.463L1638.11 543.072L1636.71 545.73L1639.37 547.121L1640.76 544.463ZM1647 532.555L1648.39 529.897L1645.73 528.506L1644.34 531.164L1647 532.555ZM1665.48 542.229L1664.09 544.887L1666.75 546.278L1668.14 543.62L1665.48 542.229ZM1694.56 486.659L1697.22 488.05L1698.61 485.392L1695.95 484.001L1694.56 486.659ZM1676.08 476.985L1673.42 475.594L1672.03 478.252L1674.69 479.643L1676.08 476.985ZM1682.31 465.077L1683.7 462.419L1681.04 461.028L1679.65 463.686L1682.31 465.077ZM1731.64 490.895L1734.3 492.286L1735.69 489.628L1733.03 488.237L1731.64 490.895ZM1725.41 502.803L1724.02 505.461L1726.68 506.852L1728.07 504.194L1725.41 502.803ZM1706.81 493.069L1708.2 490.411L1705.54 489.02L1704.15 491.678L1706.81 493.069ZM1677.73 548.639L1675.07 547.248L1673.68 549.906L1676.34 551.297L1677.73 548.639ZM1696.33 558.373L1698.99 559.764L1700.38 557.106L1697.72 555.715L1696.33 558.373ZM1691.49 567.623L1642.15 541.805L1639.37 547.121L1688.71 572.939L1691.49 567.623ZM1643.42 545.854L1649.65 533.946L1644.34 531.164L1638.11 543.072L1643.42 545.854ZM1645.6 535.213L1664.09 544.887L1666.87 539.571L1648.39 529.897L1645.6 535.213ZM1668.14 543.62L1697.22 488.05L1691.91 485.268L1662.82 540.838L1668.14 543.62ZM1695.95 484.001L1677.47 474.327L1674.69 479.643L1693.17 489.317L1695.95 484.001ZM1678.74 478.376L1684.97 466.468L1679.65 463.686L1673.42 475.594L1678.74 478.376ZM1680.92 467.735L1730.25 493.553L1733.03 488.237L1683.7 462.419L1680.92 467.735ZM1728.98 489.504L1722.75 501.412L1728.07 504.194L1734.3 492.286L1728.98 489.504ZM1726.8 500.145L1708.2 490.411L1705.42 495.727L1724.02 505.461L1726.8 500.145ZM1704.15 491.678L1675.07 547.248L1680.39 550.03L1709.47 494.46L1704.15 491.678ZM1676.34 551.297L1694.94 561.031L1697.72 555.715L1679.12 545.981L1676.34 551.297ZM1693.67 556.982L1687.44 568.89L1692.75 571.672L1698.99 559.764L1693.67 556.982Z" fill="white"/>
<path d="M1857.73 576.043L1910.21 621.428L1901.5 631.496L1859.48 595.155L1843.99 613.065L1880.68 644.801L1871.97 654.869L1835.28 623.134L1818.28 642.786L1860.3 679.127L1851.59 689.196L1799.12 643.811L1857.73 576.043Z" fill="white"/>
<path d="M1857.73 576.043L1859.7 573.774L1857.43 571.812L1855.47 574.081L1857.73 576.043ZM1910.21 621.428L1912.48 623.391L1914.44 621.122L1912.17 619.159L1910.21 621.428ZM1901.5 631.496L1899.54 633.765L1901.8 635.728L1903.77 633.459L1901.5 631.496ZM1859.48 595.155L1861.44 592.886L1859.18 590.924L1857.21 593.193L1859.48 595.155ZM1843.99 613.065L1841.72 611.103L1839.76 613.372L1842.03 615.334L1843.99 613.065ZM1880.68 644.801L1882.95 646.764L1884.91 644.495L1882.64 642.532L1880.68 644.801ZM1871.97 654.869L1870.01 657.138L1872.28 659.101L1874.24 656.832L1871.97 654.869ZM1835.28 623.134L1837.24 620.865L1834.98 618.902L1833.01 621.171L1835.28 623.134ZM1818.28 642.786L1816.01 640.824L1814.05 643.093L1816.32 645.055L1818.28 642.786ZM1860.3 679.127L1862.57 681.09L1864.53 678.821L1862.26 676.858L1860.3 679.127ZM1851.59 689.196L1849.63 691.465L1851.9 693.427L1853.86 691.158L1851.59 689.196ZM1799.12 643.811L1796.85 641.849L1794.89 644.118L1797.16 646.08L1799.12 643.811ZM1855.77 578.313L1908.24 623.697L1912.17 619.159L1859.7 573.774L1855.77 578.313ZM1907.94 619.466L1899.23 629.534L1903.77 633.459L1912.48 623.391L1907.94 619.466ZM1903.46 629.227L1861.44 592.886L1857.52 597.424L1899.54 633.765L1903.46 629.227ZM1857.21 593.193L1841.72 611.103L1846.26 615.028L1861.75 597.118L1857.21 593.193ZM1842.03 615.334L1878.72 647.07L1882.64 642.532L1845.95 610.796L1842.03 615.334ZM1878.41 642.838L1869.7 652.907L1874.24 656.832L1882.95 646.764L1878.41 642.838ZM1873.94 652.6L1837.24 620.865L1833.32 625.403L1870.01 657.138L1873.94 652.6ZM1833.01 621.171L1816.01 640.824L1820.55 644.749L1837.55 625.096L1833.01 621.171ZM1816.32 645.055L1858.34 681.396L1862.26 676.858L1820.25 640.517L1816.32 645.055ZM1858.03 677.165L1849.32 687.233L1853.86 691.158L1862.57 681.09L1858.03 677.165ZM1853.55 686.927L1801.08 641.542L1797.16 646.08L1849.63 691.465L1853.55 686.927ZM1801.39 645.774L1860 578.006L1855.47 574.081L1796.85 641.849L1801.39 645.774Z" fill="white"/>
<path d="M2032.19 763.755C2036.75 770.249 2039.77 776.627 2041.25 782.888C2042.8 789.1 2043.02 795.049 2041.9 800.735C2040.85 806.371 2038.68 811.597 2035.39 816.412C2032.17 821.178 2028.08 825.302 2023.12 828.785C2016.42 833.494 2009.22 836.309 2001.53 837.23C1993.95 838.172 1986.45 836.923 1979.03 833.482C1971.67 829.992 1964.96 823.917 1958.87 815.259L1934.45 780.485L2007.76 728.982L2032.19 763.755ZM1969.4 807.083C1974.01 813.647 1978.89 818.144 1984.04 820.576C1989.24 823.077 1994.45 823.896 1999.69 823.035C2004.97 822.243 2009.99 820.18 2014.74 816.844C2019.34 813.607 2022.92 809.637 2025.45 804.935C2028.04 800.303 2029.07 795.093 2028.55 789.306C2028.08 783.588 2025.54 777.447 2020.93 770.884L2004.82 747.945L1953.29 784.145L1969.4 807.083Z" fill="white"/>
<path d="M2041.25 782.888L2038.33 783.578L2038.34 783.596L2038.34 783.614L2041.25 782.888ZM2041.9 800.735L2038.96 800.157L2038.95 800.172L2038.95 800.187L2041.9 800.735ZM2035.39 816.412L2032.92 814.719L2032.91 814.725L2032.91 814.732L2035.39 816.412ZM2001.53 837.23L2001.17 834.251L2001.16 834.253L2001.53 837.23ZM1979.03 833.482L1977.74 836.192L1977.75 836.198L1977.76 836.204L1979.03 833.482ZM1934.45 780.485L1932.72 778.03L1930.27 779.754L1931.99 782.209L1934.45 780.485ZM2007.76 728.982L2010.22 727.257L2008.5 724.802L2006.04 726.527L2007.76 728.982ZM1984.04 820.576L1985.34 817.872L1985.33 817.867L1985.32 817.863L1984.04 820.576ZM1999.69 823.035L1999.24 820.068L1999.22 820.071L1999.2 820.075L1999.69 823.035ZM2025.45 804.935L2022.83 803.473L2022.82 803.492L2022.81 803.511L2025.45 804.935ZM2028.55 789.306L2025.56 789.552L2025.56 789.563L2025.57 789.574L2028.55 789.306ZM2004.82 747.945L2007.27 746.221L2005.55 743.766L2003.09 745.491L2004.82 747.945ZM1953.29 784.145L1951.56 781.69L1949.11 783.414L1950.83 785.869L1953.29 784.145ZM2029.74 765.48C2034.13 771.732 2036.96 777.763 2038.33 783.578L2044.17 782.199C2042.59 775.49 2039.38 768.767 2034.65 762.031L2029.74 765.48ZM2038.34 783.614C2039.79 789.444 2039.98 794.947 2038.96 800.157L2044.84 801.313C2046.05 795.152 2045.81 788.757 2044.16 782.163L2038.34 783.614ZM2038.95 800.187C2037.98 805.405 2035.98 810.242 2032.92 814.719L2037.87 818.105C2041.39 812.951 2043.73 807.336 2044.85 801.282L2038.95 800.187ZM2032.91 814.732C2029.9 819.179 2026.07 823.046 2021.4 826.33L2024.85 831.24C2030.09 827.558 2034.44 823.176 2037.88 818.092L2032.91 814.732ZM2021.4 826.33C2015.08 830.771 2008.34 833.392 2001.17 834.252L2001.88 840.209C2010.1 839.225 2017.76 836.217 2024.85 831.24L2021.4 826.33ZM2001.16 834.253C1994.18 835.121 1987.24 833.983 1980.29 830.76L1977.76 836.204C1985.66 839.863 1993.72 841.224 2001.9 840.207L2001.16 834.253ZM1980.31 830.772C1973.55 827.561 1967.2 821.893 1961.33 813.534L1956.42 816.983C1962.71 825.942 1969.8 832.423 1977.74 836.192L1980.31 830.772ZM1961.33 813.534L1936.9 778.76L1931.99 782.209L1956.42 816.983L1961.33 813.534ZM1936.17 782.94L2009.49 731.436L2006.04 726.527L1932.72 778.03L1936.17 782.94ZM2005.31 730.706L2029.74 765.48L2034.65 762.031L2010.22 727.257L2005.31 730.706ZM1966.94 808.807C1971.74 815.632 1976.98 820.562 1982.76 823.288L1985.32 817.863C1980.79 815.726 1976.28 811.661 1971.85 805.359L1966.94 808.807ZM1982.74 823.279C1988.44 826.023 1994.28 826.966 2000.18 825.995L1999.2 820.075C1994.63 820.827 1990.03 820.131 1985.34 817.872L1982.74 823.279ZM2000.13 826.002C2005.92 825.135 2011.36 822.879 2016.46 819.299L2013.01 814.389C2008.61 817.481 2004.03 819.351 1999.24 820.068L2000.13 826.002ZM2016.46 819.299C2021.43 815.809 2025.32 811.494 2028.09 806.36L2022.81 803.511C2020.51 807.781 2017.26 811.405 2013.01 814.389L2016.46 819.299ZM2028.07 806.398C2030.98 801.189 2032.11 795.366 2031.54 789.037L2025.57 789.574C2026.04 794.821 2025.1 799.418 2022.83 803.473L2028.07 806.398ZM2031.54 789.06C2031.01 782.64 2028.19 775.994 2023.39 769.159L2018.48 772.608C2022.9 778.901 2025.15 784.536 2025.56 789.552L2031.54 789.06ZM2023.39 769.159L2007.27 746.221L2002.36 749.67L2018.48 772.608L2023.39 769.159ZM2003.09 745.491L1951.56 781.69L1955.01 786.6L2006.54 750.4L2003.09 745.491ZM1950.83 785.869L1966.94 808.807L1971.85 805.359L1955.74 782.42L1950.83 785.869Z" fill="white"/>
<path d="M2096.79 1154.56L2115.75 1140.61L2105.99 1093.09L2083.07 1087.73L2080.16 1073.56L2176.22 1095.92L2179.36 1111.22L2099.82 1169.35L2096.79 1154.56ZM2146.33 1102.45L2120.27 1096.43L2127.58 1132.04L2149.59 1115.76C2151.94 1114.06 2154.25 1112.41 2156.54 1110.8C2158.82 1109.2 2161.28 1107.61 2163.92 1106.02C2160.75 1105.45 2157.71 1104.86 2154.8 1104.24C2151.98 1103.68 2149.16 1103.08 2146.33 1102.45Z" fill="white"/>
<path d="M2096.79 1154.56L2095.01 1152.14L2093.46 1153.28L2093.85 1155.16L2096.79 1154.56ZM2115.75 1140.61L2117.52 1143.02L2119.07 1141.88L2118.68 1140L2115.75 1140.61ZM2105.99 1093.09L2108.93 1092.48L2108.54 1090.6L2106.68 1090.16L2105.99 1093.09ZM2083.07 1087.73L2080.13 1088.33L2080.52 1090.21L2082.39 1090.65L2083.07 1087.73ZM2080.16 1073.56L2080.84 1070.64L2076.28 1069.58L2077.22 1074.16L2080.16 1073.56ZM2176.22 1095.92L2179.16 1095.32L2178.77 1093.43L2176.9 1093L2176.22 1095.92ZM2179.36 1111.22L2181.13 1113.64L2182.69 1112.5L2182.3 1110.61L2179.36 1111.22ZM2099.82 1169.35L2096.89 1169.96L2097.83 1174.53L2101.6 1171.78L2099.82 1169.35ZM2146.33 1102.45L2145.66 1105.37L2145.66 1105.37L2145.67 1105.37L2146.33 1102.45ZM2120.27 1096.43L2120.94 1093.5L2116.39 1092.45L2117.33 1097.03L2120.27 1096.43ZM2127.58 1132.04L2124.64 1132.64L2125.58 1137.24L2129.36 1134.45L2127.58 1132.04ZM2149.59 1115.76L2147.83 1113.33L2147.81 1113.34L2147.8 1113.35L2149.59 1115.76ZM2156.54 1110.8L2154.82 1108.35L2156.54 1110.8ZM2163.92 1106.02L2165.47 1108.59L2172.3 1104.48L2164.45 1103.07L2163.92 1106.02ZM2154.8 1104.24L2155.42 1101.3L2155.4 1101.3L2155.38 1101.29L2154.8 1104.24ZM2098.57 1156.98L2117.52 1143.02L2113.97 1138.19L2095.01 1152.14L2098.57 1156.98ZM2118.68 1140L2108.93 1092.48L2103.05 1093.69L2112.81 1141.21L2118.68 1140ZM2106.68 1090.16L2083.75 1084.81L2082.39 1090.65L2105.31 1096.01L2106.68 1090.16ZM2086.01 1087.13L2083.1 1072.96L2077.22 1074.16L2080.13 1088.33L2086.01 1087.13ZM2079.48 1076.48L2175.54 1098.84L2176.9 1093L2080.84 1070.64L2079.48 1076.48ZM2173.28 1096.52L2176.42 1111.82L2182.3 1110.61L2179.16 1095.32L2173.28 1096.52ZM2177.59 1108.79L2098.05 1166.93L2101.6 1171.78L2181.13 1113.64L2177.59 1108.79ZM2102.76 1168.75L2099.73 1153.96L2093.85 1155.16L2096.89 1169.96L2102.76 1168.75ZM2147.01 1099.52L2120.94 1093.5L2119.59 1099.35L2145.66 1105.37L2147.01 1099.52ZM2117.33 1097.03L2124.64 1132.64L2130.52 1131.43L2123.21 1095.82L2117.33 1097.03ZM2129.36 1134.45L2151.37 1118.17L2147.8 1113.35L2125.79 1129.63L2129.36 1134.45ZM2151.34 1118.19C2153.68 1116.5 2155.99 1114.85 2158.26 1113.26L2154.82 1108.35C2152.52 1109.96 2150.19 1111.62 2147.83 1113.33L2151.34 1118.19ZM2158.26 1113.26C2160.48 1111.7 2162.88 1110.15 2165.47 1108.59L2162.37 1103.45C2159.68 1105.07 2157.16 1106.7 2154.82 1108.35L2158.26 1113.26ZM2164.45 1103.07C2161.31 1102.51 2158.31 1101.92 2155.42 1101.3L2154.17 1107.17C2157.12 1107.8 2160.19 1108.4 2163.39 1108.98L2164.45 1103.07ZM2155.38 1101.29C2152.59 1100.74 2149.8 1100.15 2146.99 1099.52L2145.67 1105.37C2148.53 1106.02 2151.38 1106.62 2154.22 1107.18L2155.38 1101.29Z" fill="white"/>
<path d="M2134.73 1286.47C2129.36 1290.89 2125.14 1295.61 2122.06 1300.62C2119.06 1305.64 2117.43 1311.81 2117.17 1319.15C2117.04 1323.07 2117.41 1326.88 2118.31 1330.59C2119.2 1334.38 2120.62 1337.5 2122.58 1339.96C2124.55 1342.42 2127.11 1343.71 2130.26 1343.82C2134.53 1343.97 2137.59 1341.69 2139.47 1336.97C2141.34 1332.34 2143.03 1325.74 2144.53 1317.17C2145.72 1310.13 2147.47 1304.04 2149.78 1298.92C2152.1 1293.79 2155.06 1289.84 2158.66 1287.06C2162.34 1284.38 2166.82 1283.13 2172.11 1283.31C2177.57 1283.51 2182.16 1285.33 2185.88 1288.8C2189.68 1292.26 2192.51 1296.84 2194.36 1302.54C2196.29 1308.33 2197.13 1314.68 2196.88 1321.59C2196.58 1330.03 2194.96 1337.32 2192.01 1343.45C2189.06 1349.58 2185.01 1354.34 2179.85 1357.75L2170.2 1348.05C2174.23 1345.12 2177.57 1341.36 2180.21 1336.75C2182.84 1332.24 2184.27 1326.91 2184.49 1320.77C2184.71 1314.46 2183.79 1309.13 2181.72 1304.79C2179.74 1300.45 2176.79 1298.21 2172.87 1298.07C2169.71 1297.96 2167.16 1298.89 2165.21 1300.87C2163.35 1302.94 2161.84 1305.79 2160.68 1309.42C2159.53 1313.14 2158.52 1317.5 2157.66 1322.51C2156.81 1327.26 2155.79 1331.79 2154.61 1336.1C2153.43 1340.5 2151.89 1344.42 2149.97 1347.85C2148.06 1351.28 2145.66 1353.97 2142.77 1355.92C2139.88 1357.87 2136.31 1358.76 2132.04 1358.61C2126.24 1358.41 2121.23 1356.61 2116.99 1353.21C2112.84 1349.91 2109.68 1345.22 2107.5 1339.17C2105.41 1333.2 2104.5 1326.21 2104.78 1318.2C2105.09 1309.58 2106.73 1301.83 2109.71 1294.93C2112.68 1288.12 2117.33 1282.18 2123.66 1277.11L2134.73 1286.47Z" fill="white"/>
<path d="M2134.73 1286.47L2136.64 1288.79L2139.41 1286.5L2136.66 1284.18L2134.73 1286.47ZM2122.06 1300.62L2119.5 1299.05L2119.49 1299.07L2119.48 1299.08L2122.06 1300.62ZM2118.31 1330.59L2121.23 1329.9L2121.22 1329.89L2121.22 1329.88L2118.31 1330.59ZM2122.58 1339.96L2120.24 1341.83L2122.58 1339.96ZM2139.47 1336.97L2136.69 1335.85L2136.68 1335.86L2136.68 1335.87L2139.47 1336.97ZM2144.53 1317.17L2147.48 1317.69L2147.48 1317.68L2147.48 1317.67L2144.53 1317.17ZM2149.78 1298.92L2152.52 1300.15L2149.78 1298.92ZM2158.66 1287.06L2156.89 1284.64L2156.86 1284.66L2156.83 1284.69L2158.66 1287.06ZM2185.88 1288.8L2183.83 1290.99L2183.85 1291L2183.86 1291.01L2185.88 1288.8ZM2194.36 1302.54L2191.5 1303.47L2191.51 1303.48L2191.51 1303.49L2194.36 1302.54ZM2179.85 1357.75L2177.72 1359.86L2179.45 1361.6L2181.5 1360.25L2179.85 1357.75ZM2170.2 1348.05L2168.44 1345.63L2165.6 1347.69L2168.07 1350.17L2170.2 1348.05ZM2180.21 1336.75L2177.62 1335.24L2177.61 1335.25L2177.6 1335.26L2180.21 1336.75ZM2181.72 1304.79L2179 1306.03L2179.01 1306.05L2179.02 1306.08L2181.72 1304.79ZM2165.21 1300.87L2163.07 1298.77L2163.03 1298.81L2162.99 1298.86L2165.21 1300.87ZM2160.68 1309.42L2157.82 1308.51L2157.82 1308.52L2157.82 1308.53L2160.68 1309.42ZM2157.66 1322.51L2160.61 1323.03L2160.61 1323.02L2160.61 1323.01L2157.66 1322.51ZM2154.61 1336.1L2151.72 1335.31L2151.72 1335.32L2154.61 1336.1ZM2142.77 1355.92L2144.45 1358.41L2142.77 1355.92ZM2116.99 1353.21L2118.87 1350.87L2118.86 1350.86L2116.99 1353.21ZM2107.5 1339.17L2104.67 1340.16L2104.67 1340.17L2104.68 1340.19L2107.5 1339.17ZM2109.71 1294.93L2106.96 1293.73L2106.95 1293.74L2109.71 1294.93ZM2123.66 1277.11L2125.6 1274.82L2123.71 1273.23L2121.78 1274.77L2123.66 1277.11ZM2132.82 1284.15C2127.24 1288.75 2122.79 1293.71 2119.5 1299.05L2124.61 1302.19C2127.49 1297.51 2131.48 1293.03 2136.64 1288.79L2132.82 1284.15ZM2119.48 1299.08C2116.17 1304.63 2114.45 1311.33 2114.18 1319.04L2120.17 1319.26C2120.42 1312.3 2121.96 1306.65 2124.63 1302.16L2119.48 1299.08ZM2114.18 1319.04C2114.03 1323.23 2114.43 1327.32 2115.39 1331.29L2121.22 1329.88C2120.4 1326.45 2120.04 1322.91 2120.17 1319.26L2114.18 1319.04ZM2115.39 1331.27C2116.35 1335.4 2117.94 1338.95 2120.24 1341.83L2124.93 1338.09C2123.3 1336.05 2122.04 1333.36 2121.23 1329.9L2115.39 1331.27ZM2120.24 1341.83C2122.75 1344.98 2126.13 1346.68 2130.15 1346.82L2130.37 1340.82C2128.08 1340.74 2126.34 1339.86 2124.93 1338.09L2120.24 1341.83ZM2130.15 1346.82C2132.88 1346.91 2135.41 1346.22 2137.55 1344.63C2139.66 1343.06 2141.18 1340.79 2142.26 1338.08L2136.68 1335.87C2135.88 1337.87 2134.94 1339.1 2133.97 1339.81C2133.05 1340.5 2131.9 1340.88 2130.37 1340.82L2130.15 1346.82ZM2142.25 1338.1C2144.24 1333.18 2145.97 1326.34 2147.48 1317.69L2141.57 1316.66C2140.09 1325.15 2138.44 1331.51 2136.69 1335.85L2142.25 1338.1ZM2147.48 1317.67C2148.64 1310.82 2150.33 1304.99 2152.52 1300.15L2147.05 1297.68C2144.6 1303.09 2142.79 1309.44 2141.57 1316.67L2147.48 1317.67ZM2152.52 1300.15C2154.68 1295.37 2157.36 1291.85 2160.49 1289.44L2156.83 1284.69C2152.76 1287.83 2149.52 1292.21 2147.05 1297.68L2152.52 1300.15ZM2160.43 1289.49C2163.48 1287.26 2167.28 1286.14 2172 1286.31L2172.22 1280.31C2166.37 1280.11 2161.2 1281.49 2156.89 1284.64L2160.43 1289.49ZM2172 1286.31C2176.8 1286.48 2180.68 1288.06 2183.83 1290.99L2187.92 1286.6C2183.63 1282.61 2178.34 1280.53 2172.22 1280.31L2172 1286.31ZM2183.86 1291.01C2187.22 1294.07 2189.79 1298.18 2191.5 1303.47L2197.21 1301.62C2195.23 1295.51 2192.15 1290.45 2187.9 1286.58L2183.86 1291.01ZM2191.51 1303.49C2193.31 1308.9 2194.12 1314.89 2193.88 1321.48L2199.88 1321.7C2200.14 1314.48 2199.26 1307.77 2197.2 1301.6L2191.51 1303.49ZM2193.88 1321.48C2193.6 1329.61 2192.04 1336.47 2189.31 1342.15L2194.71 1344.75C2197.88 1338.17 2199.57 1330.46 2199.88 1321.7L2193.88 1321.48ZM2189.31 1342.15C2186.57 1347.84 2182.86 1352.17 2178.19 1355.24L2181.5 1360.25C2187.15 1356.52 2191.55 1351.32 2194.71 1344.75L2189.31 1342.15ZM2181.97 1355.63L2172.33 1345.94L2168.07 1350.17L2177.72 1359.86L2181.97 1355.63ZM2171.96 1350.48C2176.36 1347.28 2179.97 1343.19 2182.81 1338.25L2177.6 1335.26C2175.16 1339.52 2172.1 1342.96 2168.44 1345.63L2171.96 1350.48ZM2182.8 1338.27C2185.72 1333.25 2187.25 1327.42 2187.49 1320.87L2181.49 1320.66C2181.29 1326.39 2179.96 1331.22 2177.62 1335.24L2182.8 1338.27ZM2187.49 1320.87C2187.72 1314.23 2186.76 1308.39 2184.43 1303.5L2179.02 1306.08C2180.82 1309.87 2181.7 1314.69 2181.49 1320.66L2187.49 1320.87ZM2184.45 1303.54C2183.31 1301.05 2181.81 1298.96 2179.84 1297.46C2177.84 1295.95 2175.52 1295.16 2172.98 1295.07L2172.76 1301.07C2174.14 1301.12 2175.26 1301.52 2176.21 1302.24C2177.19 1302.99 2178.15 1304.19 2179 1306.03L2184.45 1303.54ZM2172.98 1295.07C2169.11 1294.93 2165.7 1296.1 2163.07 1298.77L2167.35 1302.98C2168.63 1301.68 2170.32 1300.98 2172.76 1301.07L2172.98 1295.07ZM2162.99 1298.86C2160.75 1301.34 2159.06 1304.61 2157.82 1308.51L2163.54 1310.33C2164.61 1306.96 2165.95 1304.54 2167.44 1302.88L2162.99 1298.86ZM2157.82 1308.53C2156.61 1312.4 2155.58 1316.9 2154.7 1322L2160.61 1323.01C2161.46 1318.1 2162.44 1313.87 2163.55 1310.31L2157.82 1308.53ZM2154.7 1321.98C2153.87 1326.65 2152.87 1331.09 2151.72 1335.31L2157.51 1336.89C2158.71 1332.49 2159.74 1327.87 2160.61 1323.03L2154.7 1321.98ZM2151.72 1335.32C2150.59 1339.52 2149.13 1343.2 2147.35 1346.39L2152.59 1349.31C2154.64 1345.63 2156.28 1341.48 2157.51 1336.88L2151.72 1335.32ZM2147.35 1346.39C2145.64 1349.46 2143.54 1351.78 2141.09 1353.43L2144.45 1358.41C2147.77 1356.16 2150.48 1353.1 2152.59 1349.31L2147.35 1346.39ZM2141.09 1353.43C2138.84 1354.95 2135.92 1355.75 2132.15 1355.61L2131.94 1361.61C2136.69 1361.78 2140.92 1360.78 2144.45 1358.41L2141.09 1353.43ZM2132.15 1355.61C2126.95 1355.43 2122.56 1353.83 2118.87 1350.87L2115.12 1355.55C2119.89 1359.38 2125.54 1361.38 2131.94 1361.61L2132.15 1355.61ZM2118.86 1350.86C2115.23 1347.97 2112.35 1343.8 2110.32 1338.16L2104.68 1340.19C2107 1346.65 2110.45 1351.84 2115.12 1355.56L2118.86 1350.86ZM2110.33 1338.18C2108.39 1332.64 2107.51 1326.04 2107.78 1318.3L2101.79 1318.09C2101.49 1326.38 2102.42 1333.76 2104.67 1340.16L2110.33 1338.18ZM2107.78 1318.3C2108.08 1310.01 2109.65 1302.63 2112.46 1296.12L2106.95 1293.74C2103.81 1301.03 2102.1 1309.16 2101.79 1318.09L2107.78 1318.3ZM2112.46 1296.13C2115.22 1289.81 2119.55 1284.25 2125.54 1279.45L2121.78 1274.77C2115.11 1280.12 2110.14 1286.44 2106.96 1293.73L2112.46 1296.13ZM2121.72 1279.4L2132.79 1288.76L2136.66 1284.18L2125.6 1274.82L2121.72 1279.4Z" fill="white"/>
<path d="M2110.86 1486.06C2104.6 1489.08 2099.38 1492.66 2095.19 1496.79C2091.09 1500.96 2088.04 1506.57 2086.05 1513.63C2084.98 1517.41 2084.44 1521.2 2084.43 1525.01C2084.4 1528.9 2085.04 1532.28 2086.36 1535.13C2087.69 1537.99 2089.87 1539.85 2092.9 1540.7C2097.01 1541.86 2100.53 1540.38 2103.47 1536.24C2106.39 1532.19 2109.6 1526.18 2113.09 1518.21C2115.92 1511.65 2119.06 1506.15 2122.53 1501.72C2126 1497.29 2129.81 1494.16 2133.97 1492.31C2138.18 1490.58 2142.83 1490.43 2147.93 1491.87C2153.18 1493.35 2157.2 1496.22 2160 1500.46C2162.87 1504.73 2164.53 1509.85 2164.97 1515.83C2165.47 1521.91 2164.78 1528.28 2162.9 1534.93C2160.6 1543.06 2157.29 1549.75 2152.97 1555.01C2148.65 1560.26 2143.58 1563.93 2137.76 1566.01L2130.69 1554.3C2135.31 1552.41 2139.44 1549.54 2143.1 1545.7C2146.73 1541.94 2149.38 1537.1 2151.05 1531.19C2152.77 1525.11 2153.14 1519.72 2152.16 1515.01C2151.27 1510.32 2148.93 1507.45 2145.16 1506.38C2142.12 1505.52 2139.42 1505.82 2137.05 1507.28C2134.75 1508.85 2132.61 1511.26 2130.62 1514.51C2128.62 1517.85 2126.6 1521.85 2124.58 1526.51C2122.62 1530.92 2120.56 1535.08 2118.39 1538.99C2116.2 1542.98 2113.77 1546.42 2111.09 1549.3C2108.42 1552.18 2105.45 1554.22 2102.18 1555.43C2098.91 1556.63 2095.23 1556.66 2091.12 1555.5C2085.54 1553.92 2081.09 1550.98 2077.78 1546.68C2074.54 1542.48 2072.57 1537.18 2071.9 1530.78C2071.28 1524.49 2072.06 1517.48 2074.24 1509.76C2076.58 1501.47 2080.02 1494.33 2084.55 1488.34C2089.05 1482.43 2094.98 1477.76 2102.33 1474.34L2110.86 1486.06Z" fill="white"/>
<path d="M2110.86 1486.06L2112.16 1488.76L2115.4 1487.2L2113.29 1484.29L2110.86 1486.06ZM2095.19 1496.79L2093.08 1494.66L2093.07 1494.68L2093.06 1494.69L2095.19 1496.79ZM2084.43 1525.01L2087.43 1525.04L2087.43 1525.03L2087.43 1525.02L2084.43 1525.01ZM2086.36 1535.13L2083.64 1536.39L2086.36 1535.13ZM2103.47 1536.24L2101.04 1534.49L2101.03 1534.5L2101.03 1534.5L2103.47 1536.24ZM2113.09 1518.21L2115.84 1519.41L2115.84 1519.4L2115.84 1519.39L2113.09 1518.21ZM2122.53 1501.72L2124.89 1503.57L2122.53 1501.72ZM2133.97 1492.31L2132.82 1489.54L2132.79 1489.56L2132.75 1489.57L2133.97 1492.31ZM2160 1500.46L2157.49 1502.11L2157.5 1502.12L2157.51 1502.14L2160 1500.46ZM2164.97 1515.83L2161.97 1516.05L2161.98 1516.06L2161.98 1516.08L2164.97 1515.83ZM2137.76 1566.01L2135.2 1567.56L2136.46 1569.66L2138.77 1568.83L2137.76 1566.01ZM2130.69 1554.3L2129.56 1551.53L2126.32 1552.85L2128.13 1555.85L2130.69 1554.3ZM2143.1 1545.7L2140.94 1543.62L2140.93 1543.62L2140.93 1543.63L2143.1 1545.7ZM2152.16 1515.01L2149.22 1515.57L2149.22 1515.59L2149.23 1515.62L2152.16 1515.01ZM2137.05 1507.28L2135.48 1504.73L2135.42 1504.77L2135.37 1504.8L2137.05 1507.28ZM2130.62 1514.51L2128.06 1512.95L2128.06 1512.96L2128.05 1512.97L2130.62 1514.51ZM2124.58 1526.51L2127.32 1527.72L2127.33 1527.71L2127.33 1527.7L2124.58 1526.51ZM2118.39 1538.99L2115.77 1537.54L2115.76 1537.55L2118.39 1538.99ZM2102.18 1555.43L2103.22 1558.24L2102.18 1555.43ZM2077.78 1546.68L2080.16 1544.85L2080.16 1544.84L2077.78 1546.68ZM2071.9 1530.78L2068.91 1531.08L2068.91 1531.09L2068.91 1531.1L2071.9 1530.78ZM2084.55 1488.34L2082.16 1486.52L2082.15 1486.53L2084.55 1488.34ZM2102.33 1474.34L2104.76 1472.57L2103.31 1470.58L2101.07 1471.62L2102.33 1474.34ZM2109.56 1483.35C2103.05 1486.49 2097.54 1490.25 2093.08 1494.66L2097.3 1498.93C2101.21 1495.06 2106.15 1491.66 2112.16 1488.76L2109.56 1483.35ZM2093.06 1494.69C2088.52 1499.29 2085.26 1505.39 2083.16 1512.82L2088.94 1514.45C2090.83 1507.75 2093.66 1502.62 2097.33 1498.9L2093.06 1494.69ZM2083.16 1512.82C2082.03 1516.85 2081.45 1520.91 2081.43 1525L2087.43 1525.02C2087.44 1521.49 2087.94 1517.97 2088.94 1514.45L2083.16 1512.82ZM2081.43 1524.99C2081.4 1529.22 2082.09 1533.05 2083.64 1536.39L2089.09 1533.87C2087.99 1531.5 2087.4 1528.59 2087.43 1525.04L2081.43 1524.99ZM2083.64 1536.39C2085.33 1540.05 2088.21 1542.5 2092.09 1543.59L2093.72 1537.82C2091.52 1537.2 2090.04 1535.93 2089.09 1533.87L2083.64 1536.39ZM2092.09 1543.59C2094.72 1544.33 2097.33 1544.26 2099.79 1543.22C2102.21 1542.2 2104.23 1540.36 2105.92 1537.98L2101.03 1534.5C2099.78 1536.26 2098.57 1537.23 2097.46 1537.69C2096.4 1538.14 2095.2 1538.23 2093.72 1537.82L2092.09 1543.59ZM2105.91 1537.99C2109.01 1533.69 2112.31 1527.45 2115.84 1519.41L2110.34 1517C2106.88 1524.9 2103.78 1530.69 2101.04 1534.49L2105.91 1537.99ZM2115.84 1519.39C2118.6 1513.01 2121.62 1507.75 2124.89 1503.57L2120.17 1499.87C2116.51 1504.55 2113.24 1510.28 2110.33 1517.02L2115.84 1519.39ZM2124.89 1503.57C2128.13 1499.44 2131.57 1496.66 2135.18 1495.06L2132.75 1489.57C2128.05 1491.65 2123.87 1495.15 2120.17 1499.87L2124.89 1503.57ZM2135.11 1495.09C2138.61 1493.65 2142.56 1493.47 2147.11 1494.75L2148.74 1488.98C2143.11 1487.39 2137.76 1487.51 2132.82 1489.54L2135.11 1495.09ZM2147.11 1494.75C2151.73 1496.06 2155.13 1498.51 2157.49 1502.11L2162.5 1498.81C2159.28 1493.92 2154.63 1490.64 2148.74 1488.98L2147.11 1494.75ZM2157.51 1502.14C2160.04 1505.91 2161.57 1510.51 2161.97 1516.05L2167.96 1515.61C2167.49 1509.2 2165.69 1503.56 2162.48 1498.79L2157.51 1502.14ZM2161.98 1516.08C2162.44 1521.76 2161.8 1527.76 2160.01 1534.12L2165.79 1535.75C2167.75 1528.8 2168.49 1522.07 2167.96 1515.59L2161.98 1516.08ZM2160.01 1534.12C2157.8 1541.94 2154.66 1548.24 2150.66 1553.1L2155.29 1556.91C2159.93 1551.27 2163.4 1544.18 2165.79 1535.75L2160.01 1534.12ZM2150.66 1553.1C2146.65 1557.98 2142.01 1561.3 2136.75 1563.18L2138.77 1568.83C2145.15 1566.55 2150.66 1562.54 2155.29 1556.91L2150.66 1553.1ZM2140.33 1564.46L2133.26 1552.75L2128.13 1555.85L2135.2 1567.56L2140.33 1564.46ZM2131.83 1557.08C2136.86 1555.02 2141.34 1551.9 2145.27 1547.77L2140.93 1543.63C2137.54 1547.19 2133.75 1549.81 2129.56 1551.53L2131.83 1557.08ZM2145.26 1547.78C2149.29 1543.61 2152.16 1538.31 2153.94 1532L2148.17 1530.37C2146.61 1535.89 2144.18 1540.27 2140.94 1543.62L2145.26 1547.78ZM2153.94 1532C2155.75 1525.6 2156.2 1519.71 2155.1 1514.4L2149.23 1515.62C2150.08 1519.73 2149.79 1524.62 2148.17 1530.37L2153.94 1532ZM2155.11 1514.45C2154.6 1511.75 2153.63 1509.36 2152.07 1507.45C2150.49 1505.5 2148.42 1504.18 2145.97 1503.49L2144.34 1509.27C2145.67 1509.64 2146.66 1510.3 2147.41 1511.23C2148.19 1512.19 2148.84 1513.58 2149.22 1515.57L2155.11 1514.45ZM2145.97 1503.49C2142.25 1502.44 2138.66 1502.77 2135.48 1504.73L2138.63 1509.84C2140.18 1508.88 2141.99 1508.6 2144.34 1509.27L2145.97 1503.49ZM2135.37 1504.8C2132.61 1506.68 2130.19 1509.46 2128.06 1512.95L2133.19 1516.07C2135.02 1513.06 2136.9 1511.02 2138.74 1509.77L2135.37 1504.8ZM2128.05 1512.97C2125.96 1516.44 2123.89 1520.56 2121.83 1525.31L2127.33 1527.7C2129.32 1523.13 2131.27 1519.25 2133.2 1516.06L2128.05 1512.97ZM2121.84 1525.29C2119.91 1529.63 2117.89 1533.71 2115.77 1537.54L2121.02 1540.45C2123.23 1536.45 2125.33 1532.21 2127.32 1527.72L2121.84 1525.29ZM2115.76 1537.55C2113.67 1541.36 2111.38 1544.58 2108.89 1547.26L2113.29 1551.34C2116.16 1548.25 2118.73 1544.61 2121.02 1540.43L2115.76 1537.55ZM2108.89 1547.26C2106.5 1549.84 2103.91 1551.59 2101.14 1552.61L2103.22 1558.24C2106.98 1556.85 2110.34 1554.52 2113.29 1551.34L2108.89 1547.26ZM2101.14 1552.61C2098.59 1553.55 2095.57 1553.64 2091.94 1552.61L2090.31 1558.38C2094.88 1559.68 2099.23 1559.71 2103.22 1558.24L2101.14 1552.61ZM2091.94 1552.61C2086.93 1551.2 2083.05 1548.6 2080.16 1544.85L2075.41 1548.5C2079.13 1553.36 2084.15 1556.64 2090.31 1558.38L2091.94 1552.61ZM2080.16 1544.84C2077.32 1541.17 2075.51 1536.43 2074.88 1530.47L2068.91 1531.1C2069.64 1537.93 2071.76 1543.79 2075.41 1548.51L2080.16 1544.84ZM2074.88 1530.49C2074.31 1524.65 2075.02 1518.03 2077.13 1510.58L2071.35 1508.95C2069.1 1516.94 2068.25 1524.33 2068.91 1531.08L2074.88 1530.49ZM2077.13 1510.58C2079.38 1502.59 2082.67 1495.8 2086.94 1490.14L2082.15 1486.53C2077.37 1492.86 2073.78 1500.35 2071.35 1508.95L2077.13 1510.58ZM2086.93 1490.15C2091.12 1484.67 2096.65 1480.29 2103.6 1477.06L2101.07 1471.62C2093.32 1475.23 2086.99 1480.19 2082.16 1486.52L2086.93 1490.15ZM2099.91 1476.1L2108.44 1487.82L2113.29 1484.29L2104.76 1472.57L2099.91 1476.1Z" fill="white"/>
<path d="M2095.31 1703.52L2061.26 1763.96L2049.66 1757.43L2076.93 1709.03L2056.3 1697.41L2032.49 1739.67L2020.89 1733.14L2044.7 1690.87L2022.06 1678.12L1994.8 1726.52L1983.2 1719.99L2017.25 1659.54L2095.31 1703.52Z" fill="white"/>
<path d="M2095.31 1703.52L2097.93 1704.99L2099.4 1702.38L2096.79 1700.9L2095.31 1703.52ZM2061.26 1763.96L2059.79 1766.58L2062.4 1768.05L2063.88 1765.43L2061.26 1763.96ZM2049.66 1757.43L2047.05 1755.96L2045.58 1758.57L2048.19 1760.04L2049.66 1757.43ZM2076.93 1709.03L2079.54 1710.5L2081.02 1707.89L2078.4 1706.41L2076.93 1709.03ZM2056.3 1697.41L2057.77 1694.79L2055.16 1693.32L2053.68 1695.93L2056.3 1697.41ZM2032.49 1739.67L2031.02 1742.29L2033.63 1743.76L2035.1 1741.14L2032.49 1739.67ZM2020.89 1733.14L2018.28 1731.67L2016.8 1734.28L2019.42 1735.75L2020.89 1733.14ZM2044.7 1690.87L2047.31 1692.34L2048.79 1689.73L2046.17 1688.26L2044.7 1690.87ZM2022.06 1678.12L2023.53 1675.5L2020.92 1674.03L2019.45 1676.65L2022.06 1678.12ZM1994.8 1726.52L1993.32 1729.13L1995.94 1730.61L1997.41 1727.99L1994.8 1726.52ZM1983.2 1719.99L1980.58 1718.51L1979.11 1721.13L1981.72 1722.6L1983.2 1719.99ZM2017.25 1659.54L2018.72 1656.93L2016.11 1655.45L2014.63 1658.07L2017.25 1659.54ZM2092.7 1702.04L2058.65 1762.49L2063.88 1765.43L2097.93 1704.99L2092.7 1702.04ZM2062.74 1761.35L2051.14 1754.81L2048.19 1760.04L2059.79 1766.58L2062.74 1761.35ZM2052.28 1758.9L2079.54 1710.5L2074.32 1707.56L2047.05 1755.96L2052.28 1758.9ZM2078.4 1706.41L2057.77 1694.79L2054.83 1700.02L2075.46 1711.64L2078.4 1706.41ZM2053.68 1695.93L2029.87 1738.2L2035.1 1741.14L2058.91 1698.88L2053.68 1695.93ZM2033.96 1737.06L2022.36 1730.52L2019.42 1735.75L2031.02 1742.29L2033.96 1737.06ZM2023.5 1734.61L2047.31 1692.34L2042.09 1689.4L2018.28 1731.67L2023.5 1734.61ZM2046.17 1688.26L2023.53 1675.5L2020.59 1680.73L2043.23 1693.49L2046.17 1688.26ZM2019.45 1676.65L1992.18 1725.05L1997.41 1727.99L2024.67 1679.59L2019.45 1676.65ZM1996.27 1723.91L1984.67 1717.37L1981.72 1722.6L1993.32 1729.13L1996.27 1723.91ZM1985.81 1721.46L2019.86 1661.01L2014.63 1658.07L1980.58 1718.51L1985.81 1721.46ZM2015.77 1662.15L2093.84 1706.13L2096.79 1700.9L2018.72 1656.93L2015.77 1662.15Z" fill="white"/>
<path d="M1894.3 1836.94L1950.45 1888.59L1971.76 1865.41L1981.56 1874.42L1928.96 1931.61L1919.17 1922.6L1941.09 1898.76L1884.94 1847.12L1894.3 1836.94Z" fill="white"/>
<path d="M1894.3 1836.94L1896.33 1834.73L1894.12 1832.7L1892.09 1834.91L1894.3 1836.94ZM1950.45 1888.59L1948.42 1890.79L1950.62 1892.82L1952.66 1890.62L1950.45 1888.59ZM1971.76 1865.41L1973.8 1863.2L1971.59 1861.17L1969.56 1863.38L1971.76 1865.41ZM1981.56 1874.42L1983.77 1876.45L1985.8 1874.25L1983.59 1872.21L1981.56 1874.42ZM1928.96 1931.61L1926.93 1933.82L1929.14 1935.85L1931.17 1933.64L1928.96 1931.61ZM1919.17 1922.6L1916.96 1920.56L1914.93 1922.77L1917.13 1924.8L1919.17 1922.6ZM1941.09 1898.76L1943.3 1900.79L1945.33 1898.58L1943.12 1896.55L1941.09 1898.76ZM1884.94 1847.12L1882.73 1845.08L1880.7 1847.29L1882.91 1849.32L1884.94 1847.12ZM1892.27 1839.15L1948.42 1890.79L1952.48 1886.38L1896.33 1834.73L1892.27 1839.15ZM1952.66 1890.62L1973.97 1867.44L1969.56 1863.38L1948.24 1886.56L1952.66 1890.62ZM1969.73 1867.62L1979.53 1876.63L1983.59 1872.21L1973.8 1863.2L1969.73 1867.62ZM1979.35 1872.39L1926.76 1929.58L1931.17 1933.64L1983.77 1876.45L1979.35 1872.39ZM1930.99 1929.4L1921.2 1920.39L1917.13 1924.8L1926.93 1933.82L1930.99 1929.4ZM1921.37 1924.63L1943.3 1900.79L1938.88 1896.73L1916.96 1920.56L1921.37 1924.63ZM1943.12 1896.55L1886.97 1844.91L1882.91 1849.32L1939.06 1900.97L1943.12 1896.55ZM1887.15 1849.15L1896.51 1838.97L1892.09 1834.91L1882.73 1845.08L1887.15 1849.15Z" fill="white"/>
<path d="M1656.76 2117.55C1652.11 2119.69 1647.33 2120.53 1642.42 2120.07C1637.55 2119.69 1633.07 2118.13 1629 2115.41C1624.88 2112.79 1621.73 2109.12 1619.55 2104.39C1617.3 2099.51 1616.55 2094.5 1617.28 2089.37C1617.98 2084.36 1619.88 2079.72 1623 2075.47C1626.03 2071.25 1630.03 2068 1634.99 2065.71L1664.29 2052.22L1650.31 2021.87L1662.87 2016.09L1700.36 2097.47L1656.76 2117.55ZM1641.38 2077.43C1638.66 2078.68 1636.47 2080.44 1634.79 2082.72C1633.08 2085.11 1632.04 2087.65 1631.69 2090.35C1631.26 2093.08 1631.63 2095.73 1632.81 2098.29C1633.91 2100.69 1635.61 2102.54 1637.9 2103.83C1640.11 2105.17 1642.65 2105.88 1645.51 2105.97C1648.29 2106.09 1651.04 2105.53 1653.75 2104.28L1682.23 2091.16L1669.86 2064.31L1641.38 2077.43Z" fill="white"/>
<path d="M1642.42 2120.07L1642.7 2117.09L1642.68 2117.08L1642.66 2117.08L1642.42 2120.07ZM1629 2115.41L1630.66 2112.91L1630.63 2112.89L1630.6 2112.87L1629 2115.41ZM1617.28 2089.37L1620.25 2089.8L1620.26 2089.79L1620.26 2089.78L1617.28 2089.37ZM1623 2075.47L1625.42 2077.24L1625.43 2077.23L1625.43 2077.22L1623 2075.47ZM1664.29 2052.22L1665.54 2054.94L1668.27 2053.68L1667.01 2050.96L1664.29 2052.22ZM1650.31 2021.87L1649.05 2019.15L1646.33 2020.4L1647.59 2023.13L1650.31 2021.87ZM1662.87 2016.09L1665.59 2014.83L1664.34 2012.11L1661.61 2013.36L1662.87 2016.09ZM1700.36 2097.47L1701.61 2100.19L1704.34 2098.94L1703.08 2096.21L1700.36 2097.47ZM1634.79 2082.72L1632.38 2080.94L1632.37 2080.95L1632.36 2080.96L1634.79 2082.72ZM1631.69 2090.35L1634.65 2090.82L1634.66 2090.78L1634.66 2090.74L1631.69 2090.35ZM1637.9 2103.83L1639.45 2101.26L1639.41 2101.24L1639.38 2101.22L1637.9 2103.83ZM1645.51 2105.97L1645.64 2102.97L1645.62 2102.97L1645.6 2102.97L1645.51 2105.97ZM1682.23 2091.16L1683.49 2093.89L1686.21 2092.63L1684.96 2089.91L1682.23 2091.16ZM1669.86 2064.31L1672.58 2063.05L1671.33 2060.33L1668.6 2061.58L1669.86 2064.31ZM1655.51 2114.83C1651.32 2116.76 1647.07 2117.5 1642.7 2117.09L1642.14 2123.06C1647.6 2123.57 1652.91 2122.63 1658.02 2120.28L1655.51 2114.83ZM1642.66 2117.08C1638.3 2116.74 1634.31 2115.35 1630.66 2112.91L1627.33 2117.9C1631.83 2120.91 1636.8 2122.64 1642.18 2123.06L1642.66 2117.08ZM1630.6 2112.87C1627.01 2110.59 1624.23 2107.38 1622.28 2103.14L1616.83 2105.65C1619.23 2110.86 1622.75 2114.99 1627.39 2117.94L1630.6 2112.87ZM1622.28 2103.14C1620.26 2098.76 1619.6 2094.34 1620.25 2089.8L1614.32 2088.95C1613.49 2094.67 1614.35 2100.26 1616.83 2105.65L1622.28 2103.14ZM1620.26 2089.78C1620.88 2085.28 1622.59 2081.11 1625.42 2077.24L1620.58 2073.69C1617.18 2078.33 1615.08 2083.43 1614.31 2088.96L1620.26 2089.78ZM1625.43 2077.22C1628.15 2073.44 1631.73 2070.52 1636.25 2068.44L1633.74 2062.99C1628.33 2065.48 1623.92 2069.05 1620.56 2073.71L1625.43 2077.22ZM1636.25 2068.44L1665.54 2054.94L1663.03 2049.49L1633.74 2062.99L1636.25 2068.44ZM1667.01 2050.96L1653.03 2020.62L1647.59 2023.13L1661.56 2053.47L1667.01 2050.96ZM1651.57 2024.6L1664.12 2018.81L1661.61 2013.36L1649.05 2019.15L1651.57 2024.6ZM1660.14 2017.34L1697.63 2098.72L1703.08 2096.21L1665.59 2014.83L1660.14 2017.34ZM1699.1 2094.74L1655.51 2114.83L1658.02 2120.28L1701.61 2100.19L1699.1 2094.74ZM1640.12 2074.7C1636.98 2076.15 1634.37 2078.23 1632.38 2080.94L1637.21 2084.5C1638.57 2082.65 1640.35 2081.2 1642.63 2080.15L1640.12 2074.7ZM1632.36 2080.96C1630.37 2083.72 1629.13 2086.73 1628.71 2089.96L1634.66 2090.74C1634.94 2088.57 1635.78 2086.49 1637.23 2084.47L1632.36 2080.96ZM1628.72 2089.88C1628.2 2093.21 1628.66 2096.46 1630.08 2099.54L1635.53 2097.03C1634.6 2095 1634.31 2092.96 1634.65 2090.82L1628.72 2089.88ZM1630.08 2099.54C1631.45 2102.51 1633.58 2104.84 1636.42 2106.45L1639.38 2101.22C1637.64 2100.24 1636.38 2098.87 1635.53 2097.03L1630.08 2099.54ZM1636.35 2106.4C1639.05 2108.03 1642.09 2108.86 1645.41 2108.97L1645.6 2102.97C1643.2 2102.89 1641.17 2102.3 1639.45 2101.26L1636.35 2106.4ZM1645.37 2108.96C1648.67 2109.11 1651.89 2108.44 1655 2107.01L1652.49 2101.56C1650.18 2102.62 1647.91 2103.07 1645.64 2102.97L1645.37 2108.96ZM1655 2107.01L1683.49 2093.89L1680.98 2088.44L1652.49 2101.56L1655 2107.01ZM1684.96 2089.91L1672.58 2063.05L1667.13 2065.56L1679.51 2092.42L1684.96 2089.91ZM1668.6 2061.58L1640.12 2074.7L1642.63 2080.15L1671.11 2067.03L1668.6 2061.58Z" fill="white"/>
<path d="M1412.54 2160.51C1411.78 2156.49 1411.94 2152.55 1413.03 2148.69C1414.05 2144.93 1415.78 2141.44 1418.2 2138.2C1420.64 2135.04 1423.67 2132.47 1427.29 2130.47L1396.32 2100.53L1413.19 2097.45L1442.14 2125.7L1469.56 2120.48L1463.36 2087.91L1476.94 2085.33L1493.68 2173.36L1446.15 2182.39C1441.12 2183.35 1436.24 2183.06 1431.52 2181.53C1426.72 2180.01 1422.62 2177.44 1419.24 2173.83C1415.78 2170.23 1413.55 2165.79 1412.54 2160.51ZM1446.93 2168.69L1477.61 2162.86L1472.04 2133.56L1440.35 2139.59C1437.34 2140.16 1434.74 2141.35 1432.56 2143.15C1430.32 2145.06 1428.7 2147.27 1427.71 2149.81C1426.64 2152.44 1426.37 2155.1 1426.88 2157.78C1427.4 2160.55 1428.66 2162.83 1430.65 2164.62C1432.66 2166.5 1435.12 2167.77 1438.02 2168.43C1440.86 2169.2 1443.83 2169.28 1446.93 2168.69Z" fill="white"/>
<path d="M1413.03 2148.69L1415.92 2149.51L1415.92 2149.49L1415.92 2149.48L1413.03 2148.69ZM1418.2 2138.2L1415.83 2136.36L1415.81 2136.38L1415.8 2136.4L1418.2 2138.2ZM1427.29 2130.47L1428.73 2133.1L1432.29 2131.14L1429.37 2128.32L1427.29 2130.47ZM1396.32 2100.53L1395.78 2097.58L1390.03 2098.63L1394.23 2102.69L1396.32 2100.53ZM1413.19 2097.45L1415.29 2095.31L1414.18 2094.22L1412.65 2094.5L1413.19 2097.45ZM1442.14 2125.7L1440.05 2127.84L1441.17 2128.93L1442.7 2128.64L1442.14 2125.7ZM1469.56 2120.48L1470.12 2123.43L1473.06 2122.87L1472.5 2119.92L1469.56 2120.48ZM1463.36 2087.91L1462.8 2084.97L1459.86 2085.53L1460.42 2088.48L1463.36 2087.91ZM1476.94 2085.33L1479.89 2084.77L1479.33 2081.82L1476.38 2082.39L1476.94 2085.33ZM1493.68 2173.36L1494.24 2176.3L1497.19 2175.74L1496.63 2172.8L1493.68 2173.36ZM1431.52 2181.53L1432.45 2178.67L1432.44 2178.67L1432.42 2178.67L1431.52 2181.53ZM1419.24 2173.83L1421.43 2171.78L1421.42 2171.76L1421.4 2171.75L1419.24 2173.83ZM1477.61 2162.86L1478.17 2165.81L1481.12 2165.25L1480.56 2162.3L1477.61 2162.86ZM1472.04 2133.56L1474.99 2133L1474.43 2130.05L1471.48 2130.61L1472.04 2133.56ZM1432.56 2143.15L1430.65 2140.84L1430.64 2140.85L1430.62 2140.86L1432.56 2143.15ZM1427.71 2149.81L1430.49 2150.93L1430.49 2150.92L1430.5 2150.9L1427.71 2149.81ZM1430.65 2164.62L1432.7 2162.43L1432.68 2162.41L1432.66 2162.39L1430.65 2164.62ZM1438.02 2168.43L1438.8 2165.54L1438.75 2165.52L1438.69 2165.51L1438.02 2168.43ZM1415.49 2159.95C1414.81 2156.37 1414.96 2152.9 1415.92 2149.51L1410.14 2147.87C1408.92 2152.19 1408.74 2156.6 1409.59 2161.07L1415.49 2159.95ZM1415.92 2149.48C1416.84 2146.1 1418.4 2142.94 1420.6 2139.99L1415.8 2136.4C1413.16 2139.93 1411.26 2143.77 1410.14 2147.9L1415.92 2149.48ZM1420.57 2140.03C1422.75 2137.21 1425.46 2134.9 1428.73 2133.1L1425.84 2127.85C1421.88 2130.03 1418.53 2132.87 1415.83 2136.36L1420.57 2140.03ZM1429.37 2128.32L1398.4 2098.38L1394.23 2102.69L1425.2 2132.63L1429.37 2128.32ZM1396.86 2103.48L1413.73 2100.41L1412.65 2094.5L1395.78 2097.58L1396.86 2103.48ZM1411.1 2099.6L1440.05 2127.84L1444.24 2123.55L1415.29 2095.31L1411.1 2099.6ZM1442.7 2128.64L1470.12 2123.43L1469 2117.54L1441.58 2122.75L1442.7 2128.64ZM1472.5 2119.92L1466.31 2087.35L1460.42 2088.48L1466.61 2121.04L1472.5 2119.92ZM1463.92 2090.86L1477.51 2088.28L1476.38 2082.39L1462.8 2084.97L1463.92 2090.86ZM1474 2085.89L1490.73 2173.92L1496.63 2172.8L1479.89 2084.77L1474 2085.89ZM1493.12 2170.41L1445.59 2179.45L1446.71 2185.34L1494.24 2176.3L1493.12 2170.41ZM1445.59 2179.45C1441.04 2180.31 1436.67 2180.05 1432.45 2178.67L1430.59 2184.38C1435.81 2186.07 1441.2 2186.39 1446.71 2185.34L1445.59 2179.45ZM1432.42 2178.67C1428.1 2177.3 1424.45 2175.01 1421.43 2171.78L1417.05 2175.88C1420.79 2179.87 1425.33 2182.72 1430.62 2184.39L1432.42 2178.67ZM1421.4 2171.75C1418.38 2168.6 1416.39 2164.7 1415.49 2159.95L1409.59 2161.07C1410.7 2166.88 1413.18 2171.86 1417.08 2175.91L1421.4 2171.75ZM1447.49 2171.64L1478.17 2165.81L1477.05 2159.91L1446.37 2165.75L1447.49 2171.64ZM1480.56 2162.3L1474.99 2133L1469.1 2134.12L1474.67 2163.42L1480.56 2162.3ZM1471.48 2130.61L1439.79 2136.64L1440.91 2142.53L1472.6 2136.51L1471.48 2130.61ZM1439.79 2136.64C1436.32 2137.3 1433.25 2138.69 1430.65 2140.84L1434.48 2145.46C1436.23 2144.01 1438.35 2143.02 1440.91 2142.53L1439.79 2136.64ZM1430.62 2140.86C1428.03 2143.06 1426.1 2145.68 1424.91 2148.71L1430.5 2150.9C1431.3 2148.87 1432.61 2147.05 1434.5 2145.44L1430.62 2140.86ZM1424.92 2148.69C1423.65 2151.83 1423.31 2155.07 1423.93 2158.34L1429.82 2157.22C1429.43 2155.13 1429.63 2153.05 1430.49 2150.93L1424.92 2148.69ZM1423.93 2158.34C1424.57 2161.72 1426.14 2164.6 1428.65 2166.85L1432.66 2162.39C1431.18 2161.06 1430.23 2159.38 1429.82 2157.22L1423.93 2158.34ZM1428.6 2166.81C1431.03 2169.08 1433.98 2170.59 1437.35 2171.36L1438.69 2165.51C1436.26 2164.95 1434.29 2163.92 1432.7 2162.43L1428.6 2166.81ZM1437.24 2171.33C1440.55 2172.22 1443.98 2172.31 1447.49 2171.64L1446.37 2165.75C1443.68 2166.26 1441.17 2166.17 1438.8 2165.54L1437.24 2171.33Z" fill="white"/>
<path d="M1178.04 2146.96C1178.46 2140.49 1180.13 2134.52 1183.05 2129.07C1185.88 2123.7 1189.73 2119.07 1194.6 2115.2C1199.47 2111.33 1205.09 2108.4 1211.46 2106.42C1217.83 2104.53 1224.76 2103.82 1232.25 2104.31C1239.75 2104.8 1246.57 2106.4 1252.72 2109.11C1258.78 2111.9 1263.98 2115.53 1268.3 2120C1272.54 2124.47 1275.72 2129.55 1277.83 2135.24C1279.93 2141.02 1280.77 2147.15 1280.35 2153.62C1279.93 2160.09 1278.3 2166.02 1275.47 2171.39C1272.64 2176.85 1268.83 2181.52 1264.04 2185.4C1259.17 2189.27 1253.55 2192.15 1247.19 2194.05C1240.73 2196.02 1233.76 2196.77 1226.26 2196.28C1218.77 2195.79 1211.99 2194.15 1205.93 2191.36C1199.86 2188.66 1194.67 2185.07 1190.34 2180.6C1186.02 2176.12 1182.8 2171 1180.7 2165.22C1178.5 2159.52 1177.62 2153.43 1178.04 2146.96ZM1192.09 2147.87C1191.68 2154.09 1192.94 2159.73 1195.86 2164.79C1198.69 2169.94 1202.82 2174.1 1208.26 2177.27C1213.61 2180.53 1219.9 2182.39 1227.14 2182.87C1234.46 2183.34 1241.03 2182.32 1246.83 2179.79C1252.55 2177.34 1257.15 2173.75 1260.62 2169.01C1264 2164.36 1265.89 2158.92 1266.3 2152.71C1266.7 2146.49 1265.53 2140.81 1262.79 2135.68C1259.96 2130.62 1255.87 2126.46 1250.52 2123.2C1245.08 2120.03 1238.7 2118.2 1231.38 2117.72C1224.14 2117.25 1217.66 2118.24 1211.95 2120.69C1206.14 2123.22 1201.5 2126.85 1198.02 2131.58C1194.47 2136.31 1192.49 2141.74 1192.09 2147.87Z" fill="white"/>
<path d="M1183.05 2129.07L1185.7 2130.49L1185.7 2130.48L1185.71 2130.47L1183.05 2129.07ZM1211.46 2106.42L1210.61 2103.55L1210.59 2103.55L1210.57 2103.56L1211.46 2106.42ZM1252.72 2109.11L1253.97 2106.38L1253.95 2106.37L1253.93 2106.36L1252.72 2109.11ZM1268.3 2120L1270.48 2117.93L1270.47 2117.92L1270.46 2117.91L1268.3 2120ZM1277.83 2135.24L1280.65 2134.22L1280.64 2134.21L1280.64 2134.2L1277.83 2135.24ZM1275.47 2171.39L1272.82 2169.99L1272.81 2170L1272.81 2170.01L1275.47 2171.39ZM1264.04 2185.4L1265.91 2187.75L1265.92 2187.74L1265.93 2187.73L1264.04 2185.4ZM1247.19 2194.05L1246.33 2191.17L1246.32 2191.18L1246.31 2191.18L1247.19 2194.05ZM1205.93 2191.36L1207.19 2188.64L1207.17 2188.63L1207.15 2188.62L1205.93 2191.36ZM1190.34 2180.6L1192.5 2178.51L1192.5 2178.51L1190.34 2180.6ZM1180.7 2165.22L1183.52 2164.19L1183.51 2164.17L1183.5 2164.14L1180.7 2165.22ZM1195.86 2164.79L1198.49 2163.35L1198.47 2163.32L1198.46 2163.3L1195.86 2164.79ZM1208.26 2177.27L1209.82 2174.71L1209.8 2174.7L1209.77 2174.68L1208.26 2177.27ZM1246.83 2179.79L1245.65 2177.03L1245.64 2177.03L1245.64 2177.04L1246.83 2179.79ZM1260.62 2169.01L1263.04 2170.79L1263.05 2170.78L1260.62 2169.01ZM1262.79 2135.68L1265.44 2134.26L1265.42 2134.24L1265.41 2134.21L1262.79 2135.68ZM1250.52 2123.2L1252.08 2120.64L1252.06 2120.63L1252.03 2120.61L1250.52 2123.2ZM1211.95 2120.69L1210.76 2117.93L1210.76 2117.94L1210.75 2117.94L1211.95 2120.69ZM1198.02 2131.58L1200.42 2133.39L1200.43 2133.37L1200.44 2133.36L1198.02 2131.58ZM1181.03 2147.15C1181.43 2141.09 1182.99 2135.54 1185.7 2130.49L1180.41 2127.65C1177.27 2133.5 1175.49 2139.88 1175.04 2146.76L1181.03 2147.15ZM1185.71 2130.47C1188.34 2125.47 1191.92 2121.17 1196.47 2117.55L1192.73 2112.85C1187.55 2116.98 1183.43 2121.92 1180.4 2127.67L1185.71 2130.47ZM1196.47 2117.55C1201.03 2113.92 1206.31 2111.16 1212.35 2109.29L1210.57 2103.56C1203.87 2105.64 1197.92 2108.73 1192.73 2112.85L1196.47 2117.55ZM1212.32 2109.3C1218.3 2107.52 1224.87 2106.84 1232.06 2107.31L1232.45 2101.32C1224.65 2100.81 1217.36 2101.54 1210.61 2103.55L1212.32 2109.3ZM1232.06 2107.31C1239.24 2107.77 1245.72 2109.3 1251.51 2111.85L1253.93 2106.36C1247.42 2103.5 1240.25 2101.83 1232.45 2101.32L1232.06 2107.31ZM1251.47 2111.83C1257.21 2114.48 1262.1 2117.9 1266.15 2122.09L1270.46 2117.91C1265.85 2113.16 1260.35 2109.32 1253.97 2106.38L1251.47 2111.83ZM1266.13 2122.07C1270.09 2126.24 1273.05 2130.98 1275.01 2136.29L1280.64 2134.2C1278.39 2128.12 1274.99 2122.69 1270.48 2117.93L1266.13 2122.07ZM1275.01 2136.27C1276.96 2141.64 1277.75 2147.35 1277.36 2153.43L1283.34 2153.82C1283.79 2146.95 1282.9 2140.41 1280.65 2134.22L1275.01 2136.27ZM1277.36 2153.43C1276.96 2159.51 1275.44 2165.02 1272.82 2169.99L1278.13 2172.79C1281.17 2167.02 1282.9 2160.68 1283.34 2153.82L1277.36 2153.43ZM1272.81 2170.01C1270.16 2175.1 1266.62 2179.45 1262.15 2183.07L1265.93 2187.73C1271.04 2183.59 1275.11 2178.6 1278.13 2172.77L1272.81 2170.01ZM1262.17 2183.05C1257.62 2186.67 1252.36 2189.38 1246.33 2191.17L1248.04 2196.92C1254.75 2194.93 1260.72 2191.87 1265.91 2187.75L1262.17 2183.05ZM1246.31 2191.18C1240.24 2193.04 1233.63 2193.75 1226.46 2193.28L1226.07 2199.27C1233.88 2199.78 1241.22 2199.01 1248.06 2196.92L1246.31 2191.18ZM1226.46 2193.28C1219.28 2192.82 1212.87 2191.25 1207.19 2188.64L1204.68 2194.09C1211.11 2197.05 1218.25 2198.76 1226.07 2199.27L1226.46 2193.28ZM1207.15 2188.62C1201.41 2186.06 1196.54 2182.69 1192.5 2178.51L1188.19 2182.68C1192.8 2187.45 1198.32 2191.25 1204.71 2194.1L1207.15 2188.62ZM1192.5 2178.51C1188.46 2174.34 1185.47 2169.57 1183.52 2164.19L1177.88 2166.24C1180.13 2172.42 1183.57 2177.91 1188.19 2182.68L1192.5 2178.51ZM1183.5 2164.14C1181.47 2158.87 1180.64 2153.22 1181.03 2147.15L1175.04 2146.76C1174.6 2153.64 1175.54 2160.16 1177.9 2166.29L1183.5 2164.14ZM1189.09 2147.68C1188.65 2154.44 1190.03 2160.68 1193.26 2166.29L1198.46 2163.3C1195.86 2158.78 1194.71 2153.73 1195.08 2148.07L1189.09 2147.68ZM1193.23 2166.24C1196.34 2171.89 1200.88 2176.44 1206.75 2179.86L1209.77 2174.68C1204.77 2171.76 1201.04 2167.98 1198.49 2163.35L1193.23 2166.24ZM1206.7 2179.84C1212.52 2183.38 1219.3 2185.36 1226.94 2185.86L1227.33 2179.87C1220.5 2179.43 1214.69 2177.68 1209.82 2174.71L1206.7 2179.84ZM1226.94 2185.86C1234.67 2186.36 1241.72 2185.29 1248.03 2182.54L1245.64 2177.04C1240.33 2179.35 1234.25 2180.32 1227.33 2179.87L1226.94 2185.86ZM1248.02 2182.54C1254.2 2179.9 1259.23 2175.98 1263.04 2170.79L1258.2 2167.24C1255.06 2171.51 1250.91 2174.78 1245.65 2177.03L1248.02 2182.54ZM1263.05 2170.78C1266.79 2165.63 1268.85 2159.64 1269.29 2152.9L1263.31 2152.51C1262.93 2158.21 1261.21 2163.09 1258.19 2167.25L1263.05 2170.78ZM1269.29 2152.9C1269.73 2146.17 1268.46 2139.93 1265.44 2134.26L1260.14 2137.09C1262.61 2141.7 1263.68 2146.81 1263.31 2152.51L1269.29 2152.9ZM1265.41 2134.21C1262.3 2128.66 1257.83 2124.14 1252.08 2120.64L1248.96 2125.77C1253.9 2128.77 1257.61 2132.57 1260.17 2137.14L1265.41 2134.21ZM1252.03 2120.61C1246.13 2117.17 1239.29 2115.23 1231.57 2114.73L1231.18 2120.72C1238.12 2121.17 1244.03 2122.89 1249.01 2125.79L1252.03 2120.61ZM1231.57 2114.73C1223.94 2114.23 1216.98 2115.27 1210.76 2117.93L1213.13 2123.45C1218.34 2121.21 1224.34 2120.27 1231.18 2120.72L1231.57 2114.73ZM1210.75 2117.94C1204.49 2120.66 1199.42 2124.62 1195.61 2129.81L1200.44 2133.36C1203.58 2129.09 1207.78 2125.78 1213.14 2123.44L1210.75 2117.94ZM1195.63 2129.78C1191.7 2134.99 1189.53 2140.99 1189.09 2147.68L1195.08 2148.07C1195.45 2142.5 1197.23 2137.63 1200.42 2133.39L1195.63 2129.78Z" fill="white"/>
<path d="M957.794 2137.32L1022.94 2064.4L1037.9 2069.31L1047.79 2166.85L1032.95 2161.98L1027.54 2103.76C1027.25 2100.26 1026.9 2096.41 1026.48 2092.23C1025.94 2088.11 1025.59 2084.13 1025.41 2080.3C1022.99 2083.28 1020.48 2086.27 1017.88 2089.28C1015.17 2092.34 1012.7 2095.21 1010.47 2097.89L973.239 2142.39L957.794 2137.32Z" fill="white"/>
<path d="M957.794 2137.32L955.556 2135.32L952.501 2138.74L956.858 2140.17L957.794 2137.32ZM1022.94 2064.4L1023.88 2061.55L1022.02 2060.94L1020.71 2062.4L1022.94 2064.4ZM1037.9 2069.31L1040.89 2069.01L1040.69 2067.07L1038.84 2066.46L1037.9 2069.31ZM1047.79 2166.85L1046.86 2169.7L1051.24 2171.14L1050.78 2166.55L1047.79 2166.85ZM1032.95 2161.98L1029.97 2162.26L1030.15 2164.22L1032.02 2164.84L1032.95 2161.98ZM1027.54 2103.76L1024.55 2104.01L1024.55 2104.02L1024.55 2104.04L1027.54 2103.76ZM1026.48 2092.23L1029.46 2091.93L1029.46 2091.89L1029.45 2091.85L1026.48 2092.23ZM1025.41 2080.3L1028.4 2080.16L1028.03 2072.29L1023.08 2078.41L1025.41 2080.3ZM1017.88 2089.28L1020.13 2091.27L1020.14 2091.25L1020.15 2091.24L1017.88 2089.28ZM1010.47 2097.89L1012.77 2099.82L1012.78 2099.81L1010.47 2097.89ZM973.239 2142.39L972.304 2145.24L974.235 2145.87L975.54 2144.32L973.239 2142.39ZM960.031 2139.32L1025.18 2066.4L1020.71 2062.4L955.556 2135.32L960.031 2139.32ZM1022.01 2067.25L1036.97 2072.16L1038.84 2066.46L1023.88 2061.55L1022.01 2067.25ZM1034.92 2069.61L1044.81 2167.16L1050.78 2166.55L1040.89 2069.01L1034.92 2069.61ZM1048.73 2164L1033.89 2159.13L1032.02 2164.84L1046.86 2169.7L1048.73 2164ZM1035.94 2161.71L1030.53 2103.49L1024.55 2104.04L1029.97 2162.26L1035.94 2161.71ZM1030.53 2103.52C1030.24 2099.99 1029.89 2096.13 1029.46 2091.93L1023.49 2092.53C1023.91 2096.7 1024.27 2100.52 1024.55 2104.01L1030.53 2103.52ZM1029.45 2091.85C1028.93 2087.8 1028.58 2083.9 1028.4 2080.16L1022.41 2080.44C1022.59 2084.36 1022.96 2088.42 1023.5 2092.62L1029.45 2091.85ZM1023.08 2078.41C1020.68 2081.36 1018.19 2084.33 1015.61 2087.31L1020.15 2091.24C1022.77 2088.21 1025.3 2085.19 1027.74 2082.18L1023.08 2078.41ZM1015.63 2087.29C1012.91 2090.37 1010.42 2093.27 1008.16 2095.98L1012.78 2099.81C1014.98 2097.16 1017.43 2094.31 1020.13 2091.27L1015.63 2087.29ZM1008.17 2095.97L970.938 2140.46L975.54 2144.32L1012.77 2099.82L1008.17 2095.97ZM974.175 2139.54L958.729 2134.47L956.858 2140.17L972.304 2145.24L974.175 2139.54Z" fill="white"/>
<path d="M835.281 2078.82L776.335 2042.24L783.355 2030.93L830.555 2060.22L843.042 2040.1L801.824 2014.52L808.844 2003.21L850.062 2028.79L863.765 2006.72L816.565 1977.42L823.585 1966.11L882.531 2002.69L835.281 2078.82Z" fill="white"/>
<path d="M835.281 2078.82L833.699 2081.37L836.248 2082.95L837.83 2080.41L835.281 2078.82ZM776.335 2042.24L773.786 2040.66L772.204 2043.21L774.753 2044.79L776.335 2042.24ZM783.355 2030.93L784.937 2028.38L782.388 2026.8L780.806 2029.35L783.355 2030.93ZM830.555 2060.22L828.973 2062.77L831.522 2064.35L833.104 2061.81L830.555 2060.22ZM843.042 2040.1L845.591 2041.69L847.173 2039.14L844.624 2037.55L843.042 2040.1ZM801.824 2014.52L799.275 2012.94L797.693 2015.49L800.242 2017.07L801.824 2014.52ZM808.844 2003.21L810.426 2000.66L807.877 1999.08L806.295 2001.63L808.844 2003.21ZM850.062 2028.79L848.48 2031.34L851.029 2032.92L852.611 2030.37L850.062 2028.79ZM863.765 2006.72L866.314 2008.3L867.896 2005.75L865.347 2004.17L863.765 2006.72ZM816.565 1977.42L814.016 1975.84L812.434 1978.39L814.983 1979.97L816.565 1977.42ZM823.585 1966.11L825.167 1963.56L822.618 1961.98L821.036 1964.53L823.585 1966.11ZM882.531 2002.69L885.079 2004.28L886.661 2001.73L884.113 2000.15L882.531 2002.69ZM836.863 2076.27L777.917 2039.69L774.753 2044.79L833.699 2081.37L836.863 2076.27ZM778.884 2043.82L785.904 2032.51L780.806 2029.35L773.786 2040.66L778.884 2043.82ZM781.773 2033.48L828.973 2062.77L832.137 2057.67L784.937 2028.38L781.773 2033.48ZM833.104 2061.81L845.591 2041.69L840.494 2038.52L828.006 2058.64L833.104 2061.81ZM844.624 2037.55L803.406 2011.97L800.242 2017.07L841.46 2042.65L844.624 2037.55ZM804.373 2016.1L811.393 2004.79L806.295 2001.63L799.275 2012.94L804.373 2016.1ZM807.262 2005.76L848.48 2031.34L851.644 2026.24L810.426 2000.66L807.262 2005.76ZM852.611 2030.37L866.314 2008.3L861.216 2005.13L847.513 2027.21L852.611 2030.37ZM865.347 2004.17L818.147 1974.87L814.983 1979.97L862.183 2009.26L865.347 2004.17ZM819.114 1979L826.134 1967.69L821.036 1964.53L814.016 1975.84L819.114 1979ZM822.003 1968.66L880.948 2005.24L884.113 2000.15L825.167 1963.56L822.003 1968.66ZM879.982 2001.11L832.732 2077.24L837.83 2080.41L885.079 2004.28L879.982 2001.11Z" fill="white"/>
<path d="M608.049 1896.46L598.462 1886.5L663.015 1824.37L672.513 1834.23L667.966 1930.28C671.545 1926.13 675.125 1921.97 678.704 1917.82C682.223 1913.72 685.949 1909.78 689.884 1905.99L716.719 1880.16L726.306 1890.12L661.753 1952.25L652.432 1942.57L658.271 1845.28C655.613 1848.55 652.651 1851.99 649.383 1855.61C645.995 1859.23 642.608 1862.78 639.222 1866.28C635.715 1869.77 632.394 1873.03 629.259 1876.05L608.049 1896.46Z" fill="white"/>
<path d="M608.049 1896.46L605.887 1898.54L607.968 1900.7L610.129 1898.62L608.049 1896.46ZM598.462 1886.5L596.381 1884.34L594.22 1886.42L596.3 1888.58L598.462 1886.5ZM663.015 1824.37L665.176 1822.28L663.096 1820.12L660.934 1822.2L663.015 1824.37ZM672.513 1834.23L675.509 1834.37L675.571 1833.08L674.674 1832.15L672.513 1834.23ZM667.966 1930.28L664.969 1930.14L664.557 1938.84L670.239 1932.24L667.966 1930.28ZM678.704 1917.82L680.978 1919.77L680.98 1919.77L678.704 1917.82ZM716.719 1880.16L718.881 1878.08L716.8 1875.92L714.639 1878L716.719 1880.16ZM726.306 1890.12L728.387 1892.28L730.548 1890.2L728.467 1888.04L726.306 1890.12ZM661.753 1952.25L659.592 1954.34L661.672 1956.5L663.834 1954.42L661.753 1952.25ZM652.432 1942.57L649.438 1942.39L649.359 1943.7L650.271 1944.65L652.432 1942.57ZM658.271 1845.28L661.265 1845.46L661.824 1836.15L655.943 1843.38L658.271 1845.28ZM649.383 1855.61L651.573 1857.66L651.591 1857.64L651.61 1857.62L649.383 1855.61ZM639.222 1866.28L641.339 1868.4L641.358 1868.38L641.377 1868.36L639.222 1866.28ZM610.21 1894.38L600.623 1884.42L596.3 1888.58L605.887 1898.54L610.21 1894.38ZM600.542 1888.66L665.095 1826.53L660.934 1822.2L596.381 1884.34L600.542 1888.66ZM660.853 1826.45L670.351 1836.31L674.674 1832.15L665.176 1822.28L660.853 1826.45ZM669.516 1834.09L664.969 1930.14L670.962 1930.43L675.509 1834.37L669.516 1834.09ZM670.239 1932.24C673.818 1928.09 677.398 1923.93 680.978 1919.77L676.431 1915.86C672.852 1920.01 669.272 1924.17 665.692 1928.33L670.239 1932.24ZM680.98 1919.77C684.436 1915.75 688.097 1911.87 691.964 1908.15L687.803 1903.83C683.801 1907.68 680.009 1911.69 676.428 1915.86L680.98 1919.77ZM691.964 1908.15L718.8 1882.32L714.639 1878L687.803 1903.83L691.964 1908.15ZM714.558 1882.24L724.145 1892.2L728.467 1888.04L718.881 1878.08L714.558 1882.24ZM724.226 1887.96L659.673 1950.09L663.834 1954.42L728.387 1892.28L724.226 1887.96ZM663.914 1950.17L654.594 1940.49L650.271 1944.65L659.592 1954.34L663.914 1950.17ZM655.427 1942.75L661.265 1845.46L655.276 1845.1L649.438 1942.39L655.427 1942.75ZM655.943 1843.38C653.323 1846.61 650.395 1850.01 647.156 1853.6L651.61 1857.62C654.907 1853.97 657.904 1850.48 660.598 1847.17L655.943 1843.38ZM647.194 1853.56C643.817 1857.16 640.441 1860.71 637.067 1864.19L641.377 1868.36C644.775 1864.86 648.173 1861.29 651.573 1857.66L647.194 1853.56ZM637.104 1864.15C633.608 1867.64 630.3 1870.88 627.178 1873.88L631.339 1878.21C634.489 1875.18 637.822 1871.91 641.339 1868.4L637.104 1864.15ZM627.178 1873.88L605.968 1894.3L610.129 1898.62L631.339 1878.21L627.178 1873.88Z" fill="white"/>
<path d="M551.278 1656.93L537.41 1675.95L561.04 1718.31L584.51 1716.51L591.555 1729.14L493.227 1736.79L485.621 1723.15L543.921 1643.74L551.278 1656.93ZM519.757 1721.55L546.422 1719.43L528.715 1687.69L512.639 1709.84C510.911 1712.17 509.199 1714.45 507.503 1716.66C505.808 1718.88 503.943 1721.14 501.908 1723.45C505.098 1723.04 508.176 1722.69 511.143 1722.4C513.994 1722.08 516.865 1721.8 519.757 1721.55Z" fill="white"/>
<path d="M551.278 1656.93L553.702 1658.69L554.834 1657.14L553.898 1655.47L551.278 1656.93ZM537.41 1675.95L534.986 1674.18L533.855 1675.73L534.79 1677.41L537.41 1675.95ZM561.04 1718.31L558.42 1719.78L559.356 1721.45L561.27 1721.31L561.04 1718.31ZM584.51 1716.51L587.13 1715.05L586.195 1713.37L584.28 1713.52L584.51 1716.51ZM591.555 1729.14L591.788 1732.13L596.456 1731.77L594.175 1727.68L591.555 1729.14ZM493.227 1736.79L490.607 1738.25L491.543 1739.93L493.46 1739.78L493.227 1736.79ZM485.621 1723.15L483.202 1721.38L482.062 1722.93L483.001 1724.61L485.621 1723.15ZM543.921 1643.74L546.541 1642.27L544.267 1638.2L541.503 1641.96L543.921 1643.74ZM519.757 1721.55L519.52 1718.56L519.512 1718.56L519.504 1718.56L519.757 1721.55ZM546.422 1719.43L546.659 1722.42L551.318 1722.05L549.042 1717.97L546.422 1719.43ZM528.715 1687.69L531.335 1686.22L529.046 1682.12L526.287 1685.92L528.715 1687.69ZM512.639 1709.84L515.049 1711.63L515.058 1711.62L515.067 1711.6L512.639 1709.84ZM507.503 1716.66L509.886 1718.49L507.503 1716.66ZM501.908 1723.45L499.658 1721.46L494.384 1727.44L502.291 1726.42L501.908 1723.45ZM511.143 1722.4L511.432 1725.39L511.455 1725.39L511.478 1725.38L511.143 1722.4ZM548.854 1655.16L534.986 1674.18L539.834 1677.71L553.702 1658.69L548.854 1655.16ZM534.79 1677.41L558.42 1719.78L563.66 1716.85L540.03 1674.49L534.79 1677.41ZM561.27 1721.31L584.74 1719.5L584.28 1713.52L560.81 1715.32L561.27 1721.31ZM581.89 1717.97L588.935 1730.6L594.175 1727.68L587.13 1715.05L581.89 1717.97ZM591.323 1726.15L492.994 1733.8L493.46 1739.78L591.788 1732.13L591.323 1726.15ZM495.847 1735.33L488.241 1721.69L483.001 1724.61L490.607 1738.25L495.847 1735.33ZM488.039 1724.93L546.34 1645.51L541.503 1641.96L483.202 1721.38L488.039 1724.93ZM541.301 1645.2L548.658 1658.39L553.898 1655.47L546.541 1642.27L541.301 1645.2ZM519.995 1724.54L546.659 1722.42L546.184 1716.44L519.52 1718.56L519.995 1724.54ZM549.042 1717.97L531.335 1686.22L526.095 1689.15L543.802 1720.89L549.042 1717.97ZM526.287 1685.92L510.211 1708.08L515.067 1711.6L531.143 1689.45L526.287 1685.92ZM510.229 1708.06C508.509 1710.38 506.807 1712.64 505.121 1714.84L509.886 1718.49C511.591 1716.26 513.312 1713.97 515.049 1711.63L510.229 1708.06ZM505.121 1714.84C503.472 1717 501.651 1719.2 499.658 1721.46L504.158 1725.43C506.234 1723.08 508.144 1720.76 509.886 1718.49L505.121 1714.84ZM502.291 1726.42C505.452 1726.02 508.499 1725.67 511.432 1725.39L510.855 1719.42C507.854 1719.71 504.743 1720.06 501.524 1720.47L502.291 1726.42ZM511.478 1725.38C514.301 1725.07 517.145 1724.79 520.011 1724.54L519.504 1718.56C516.585 1718.81 513.687 1719.1 510.809 1719.42L511.478 1725.38Z" fill="white"/>
<path d="M395.815 1486.87L392.301 1473.5L478.96 1450.73L482.44 1463.97L431.632 1545.61C436.783 1543.73 441.935 1541.85 447.087 1539.97C452.157 1538.1 457.332 1536.48 462.614 1535.09L498.64 1525.63L502.153 1539L415.494 1561.77L412.079 1548.77L464.621 1466.67C460.707 1468.23 456.441 1469.79 451.824 1471.36C447.102 1472.86 442.41 1474.32 437.749 1475.72C432.984 1477.06 428.497 1478.28 424.288 1479.39L395.815 1486.87Z" fill="white"/>
<path d="M395.815 1486.87L392.913 1487.63L393.675 1490.53L396.577 1489.77L395.815 1486.87ZM392.301 1473.5L391.539 1470.6L388.638 1471.36L389.4 1474.26L392.301 1473.5ZM478.96 1450.73L481.861 1449.97L481.099 1447.06L478.198 1447.83L478.96 1450.73ZM482.44 1463.97L484.987 1465.56L485.67 1464.46L485.342 1463.21L482.44 1463.97ZM431.632 1545.61L429.085 1544.03L424.484 1551.42L432.661 1548.43L431.632 1545.61ZM447.087 1539.97L448.117 1542.78L448.121 1542.78L447.087 1539.97ZM498.64 1525.63L501.541 1524.86L500.779 1521.96L497.877 1522.72L498.64 1525.63ZM502.153 1539L502.915 1541.9L505.817 1541.13L505.054 1538.23L502.153 1539ZM415.494 1561.77L412.593 1562.53L413.355 1565.43L416.257 1564.67L415.494 1561.77ZM412.079 1548.77L409.552 1547.15L408.843 1548.26L409.177 1549.53L412.079 1548.77ZM464.621 1466.67L467.148 1468.29L472.173 1460.44L463.511 1463.88L464.621 1466.67ZM451.824 1471.36L452.735 1474.22L452.761 1474.21L452.787 1474.2L451.824 1471.36ZM437.749 1475.72L438.562 1478.6L438.587 1478.6L438.613 1478.59L437.749 1475.72ZM398.716 1486.11L395.203 1472.74L389.4 1474.26L392.913 1487.63L398.716 1486.11ZM393.064 1476.4L479.722 1453.63L478.198 1447.83L391.539 1470.6L393.064 1476.4ZM476.058 1451.49L479.539 1464.74L485.342 1463.21L481.861 1449.97L476.058 1451.49ZM479.893 1462.39L429.085 1544.03L434.179 1547.2L484.987 1465.56L479.893 1462.39ZM432.661 1548.43C437.813 1546.55 442.965 1544.67 448.117 1542.78L446.057 1537.15C440.906 1539.03 435.754 1540.91 430.602 1542.8L432.661 1548.43ZM448.121 1542.78C453.101 1540.95 458.186 1539.36 463.377 1537.99L461.852 1532.19C456.479 1533.6 451.213 1535.25 446.053 1537.15L448.121 1542.78ZM463.377 1537.99L499.402 1528.53L497.877 1522.72L461.852 1532.19L463.377 1537.99ZM495.738 1526.39L499.251 1539.76L505.054 1538.23L501.541 1524.86L495.738 1526.39ZM501.39 1536.09L414.732 1558.86L416.257 1564.67L502.915 1541.9L501.39 1536.09ZM418.396 1561L414.98 1548L409.177 1549.53L412.593 1562.53L418.396 1561ZM414.606 1550.38L467.148 1468.29L462.094 1465.05L409.552 1547.15L414.606 1550.38ZM463.511 1463.88C459.652 1465.42 455.436 1466.96 450.86 1468.52L452.787 1474.2C457.446 1472.62 461.761 1471.04 465.73 1469.46L463.511 1463.88ZM450.912 1468.5C446.206 1470 441.531 1471.45 436.886 1472.84L438.613 1478.59C443.29 1477.18 447.997 1475.73 452.735 1474.22L450.912 1468.5ZM436.937 1472.83C432.186 1474.17 427.716 1475.38 423.526 1476.48L425.05 1482.29C429.278 1481.18 433.782 1479.95 438.562 1478.6L436.937 1472.83ZM423.526 1476.48L395.052 1483.97L396.577 1489.77L425.05 1482.29L423.526 1476.48Z" fill="white"/>
<path d="M450.418 1245.85C452.477 1248.06 454.583 1251.08 456.736 1254.91C458.889 1258.74 460.747 1263.12 462.308 1268.07C463.784 1273.01 464.537 1278.29 464.565 1283.93C464.601 1290.84 463.567 1297.29 461.465 1303.27C459.277 1309.26 456.189 1314.52 452.202 1319.06C448.214 1323.52 443.41 1327 437.791 1329.5C432.086 1332.01 425.736 1333.28 418.738 1333.31C412.168 1333.35 406.103 1332.1 400.543 1329.57C394.983 1326.95 390.143 1323.35 386.023 1318.76C381.904 1314.18 378.719 1308.9 376.47 1302.94C374.135 1296.98 372.951 1290.67 372.917 1284.01C372.889 1278.55 373.63 1273.3 375.14 1268.26C376.565 1263.22 378.419 1258.73 380.703 1254.79C382.986 1250.77 385.359 1247.55 387.821 1245.15L399.001 1253.67C395.353 1257.87 392.391 1262.54 390.113 1267.67C387.75 1272.8 386.585 1278.57 386.618 1284.97C386.64 1289.32 387.387 1293.54 388.859 1297.63C390.33 1301.72 392.483 1305.42 395.316 1308.73C398.063 1311.96 401.404 1314.54 405.34 1316.49C409.275 1318.34 413.717 1319.26 418.666 1319.23C425.834 1319.2 431.841 1317.46 436.688 1314.02C441.449 1310.58 445.052 1306.09 447.498 1300.53C449.859 1294.88 451.023 1288.9 450.99 1282.59C450.967 1277.98 450.348 1273.84 449.135 1270.18C447.836 1266.52 446.283 1263.24 444.476 1260.35C442.669 1257.46 440.864 1254.86 439.06 1252.57L450.418 1245.85Z" fill="white"/>
<path d="M450.418 1245.85L452.612 1243.81L450.967 1242.05L448.891 1243.27L450.418 1245.85ZM456.736 1254.91L454.121 1256.38L456.736 1254.91ZM462.308 1268.07L465.183 1267.21L465.176 1267.18L465.169 1267.16L462.308 1268.07ZM461.465 1303.27L464.282 1304.3L464.289 1304.28L464.295 1304.27L461.465 1303.27ZM452.202 1319.06L454.438 1321.06L454.447 1321.05L454.456 1321.04L452.202 1319.06ZM437.791 1329.5L438.997 1332.25L439.004 1332.25L439.012 1332.25L437.791 1329.5ZM400.543 1329.57L399.265 1332.28L399.282 1332.29L399.3 1332.3L400.543 1329.57ZM386.023 1318.76L388.255 1316.76L388.255 1316.76L386.023 1318.76ZM376.47 1302.94L379.277 1301.88L379.27 1301.86L379.263 1301.85L376.47 1302.94ZM375.14 1268.26L378.014 1269.12L378.02 1269.1L378.027 1269.07L375.14 1268.26ZM380.703 1254.79L383.298 1256.29L383.305 1256.28L383.312 1256.27L380.703 1254.79ZM387.821 1245.15L389.64 1242.77L387.58 1241.2L385.727 1243L387.821 1245.15ZM399.001 1253.67L401.266 1255.64L403.364 1253.22L400.82 1251.28L399.001 1253.67ZM390.113 1267.67L392.838 1268.92L392.847 1268.9L392.855 1268.89L390.113 1267.67ZM388.859 1297.63L386.036 1298.64L388.859 1297.63ZM395.316 1308.73L397.601 1306.79L397.596 1306.78L395.316 1308.73ZM405.34 1316.49L404.012 1319.18L404.036 1319.19L404.059 1319.2L405.34 1316.49ZM436.688 1314.02L438.423 1316.47L438.434 1316.46L438.444 1316.45L436.688 1314.02ZM447.498 1300.53L450.244 1301.73L450.255 1301.71L450.266 1301.68L447.498 1300.53ZM449.135 1270.18L451.983 1269.24L451.973 1269.21L451.962 1269.18L449.135 1270.18ZM444.476 1260.35L441.932 1261.94L444.476 1260.35ZM439.06 1252.57L437.533 1249.99L434.585 1251.73L436.702 1254.42L439.06 1252.57ZM448.224 1247.9C450.065 1249.88 452.038 1252.67 454.121 1256.38L459.351 1253.44C457.129 1249.49 454.889 1246.25 452.612 1243.81L448.224 1247.9ZM454.121 1256.38C456.157 1260 457.937 1264.19 459.447 1268.97L465.169 1267.16C463.556 1262.06 461.622 1257.48 459.351 1253.44L454.121 1256.38ZM459.434 1268.92C460.821 1273.57 461.538 1278.57 461.565 1283.94L467.565 1283.91C467.535 1278.02 466.747 1272.45 465.183 1267.21L459.434 1268.92ZM461.565 1283.94C461.599 1290.54 460.613 1296.64 458.634 1302.28L464.295 1304.27C466.522 1297.93 467.603 1291.14 467.565 1283.91L461.565 1283.94ZM458.647 1302.24C456.58 1307.9 453.677 1312.83 449.947 1317.08L454.456 1321.04C458.702 1316.2 461.974 1310.61 464.282 1304.3L458.647 1302.24ZM449.966 1317.06C446.268 1321.2 441.814 1324.43 436.57 1326.76L439.012 1332.25C445.007 1329.57 450.159 1325.85 454.438 1321.06L449.966 1317.06ZM436.585 1326.76C431.3 1329.08 425.361 1330.28 418.723 1330.31L418.754 1336.31C426.11 1336.28 432.873 1334.94 438.997 1332.25L436.585 1326.76ZM418.723 1330.31C412.553 1330.35 406.921 1329.18 401.786 1326.84L399.3 1332.3C405.284 1335.02 411.782 1336.35 418.754 1336.31L418.723 1330.31ZM401.82 1326.85C396.624 1324.41 392.108 1321.05 388.255 1316.76L383.791 1320.77C388.178 1325.65 393.342 1329.49 399.265 1332.28L401.82 1326.85ZM388.255 1316.76C384.393 1312.46 381.399 1307.51 379.277 1301.88L373.663 1304C376.039 1310.3 379.415 1315.89 383.791 1320.77L388.255 1316.76ZM379.263 1301.85C377.069 1296.24 375.949 1290.3 375.917 1284L369.917 1284.03C369.953 1291.04 371.202 1297.71 373.676 1304.03L379.263 1301.85ZM375.917 1284C375.89 1278.82 376.592 1273.87 378.014 1269.12L372.266 1267.4C370.668 1272.73 369.887 1278.28 369.917 1284.03L375.917 1284ZM378.027 1269.07C379.393 1264.24 381.157 1259.98 383.298 1256.29L378.108 1253.28C375.681 1257.47 373.736 1262.19 372.253 1267.44L378.027 1269.07ZM383.312 1256.27C385.501 1252.41 387.712 1249.45 389.916 1247.3L385.727 1243C383.007 1245.66 380.472 1249.12 378.094 1253.31L383.312 1256.27ZM386.003 1247.54L397.183 1256.06L400.82 1251.28L389.64 1242.77L386.003 1247.54ZM396.736 1251.7C392.891 1256.13 389.768 1261.05 387.371 1266.45L392.855 1268.89C395.013 1264.02 397.816 1259.61 401.266 1255.64L396.736 1251.7ZM387.388 1266.41C384.819 1271.99 383.583 1278.2 383.618 1284.98L389.618 1284.95C389.587 1278.93 390.681 1273.61 392.838 1268.92L387.388 1266.41ZM383.618 1284.98C383.642 1289.67 384.449 1294.23 386.036 1298.64L391.681 1296.61C390.326 1292.84 389.638 1288.96 389.618 1284.95L383.618 1284.98ZM386.036 1298.64C387.631 1303.07 389.968 1307.09 393.036 1310.68L397.596 1306.78C394.998 1303.74 393.03 1300.36 391.681 1296.61L386.036 1298.64ZM393.031 1310.67C396.053 1314.23 399.723 1317.06 404.012 1319.18L406.668 1313.8C403.086 1312.03 400.074 1309.69 397.601 1306.79L393.031 1310.67ZM404.059 1319.2C408.452 1321.27 413.346 1322.26 418.681 1322.23L418.651 1316.23C414.088 1316.26 410.098 1315.42 406.62 1313.77L404.059 1319.2ZM418.681 1322.23C426.336 1322.2 432.978 1320.33 438.423 1316.47L434.952 1311.58C430.705 1314.59 425.332 1316.2 418.651 1316.23L418.681 1322.23ZM438.444 1316.45C443.653 1312.69 447.591 1307.77 450.244 1301.73L444.753 1299.32C442.514 1304.41 439.244 1308.48 434.931 1311.59L438.444 1316.45ZM450.266 1301.68C452.787 1295.66 454.025 1289.28 453.99 1282.57L447.99 1282.6C448.021 1288.53 446.931 1294.11 444.731 1299.37L450.266 1301.68ZM453.99 1282.57C453.965 1277.71 453.312 1273.25 451.983 1269.24L446.287 1271.13C447.384 1274.44 447.968 1278.25 447.99 1282.6L453.99 1282.57ZM451.962 1269.18C450.6 1265.34 448.957 1261.86 447.02 1258.76L441.932 1261.94C443.609 1264.62 445.071 1267.7 446.307 1271.18L451.962 1269.18ZM447.02 1258.76C445.166 1255.79 443.299 1253.11 441.419 1250.72L436.702 1254.42C438.429 1256.62 440.173 1259.12 441.932 1261.94L447.02 1258.76ZM440.587 1255.15L451.945 1248.44L448.891 1243.27L437.533 1249.99L440.587 1255.15Z" fill="white"/>
<path d="M390.38 1108.15L406.434 1040.66L419.384 1043.74L406.529 1097.79L429.567 1103.27L440.792 1056.07L453.743 1059.15L442.517 1106.35L467.796 1112.36L480.651 1058.31L493.602 1061.4L477.548 1128.89L390.38 1108.15Z" fill="white"/>
<path d="M390.38 1108.15L387.461 1107.46L386.767 1110.38L389.686 1111.07L390.38 1108.15ZM406.434 1040.66L407.128 1037.74L404.209 1037.05L403.515 1039.97L406.434 1040.66ZM419.384 1043.74L422.303 1044.44L422.997 1041.52L420.078 1040.82L419.384 1043.74ZM406.529 1097.79L403.611 1097.09L402.917 1100.01L405.835 1100.7L406.529 1097.79ZM429.567 1103.27L428.873 1106.18L431.791 1106.88L432.485 1103.96L429.567 1103.27ZM440.792 1056.07L441.487 1053.15L438.568 1052.46L437.874 1055.38L440.792 1056.07ZM453.743 1059.15L456.662 1059.85L457.356 1056.93L454.437 1056.23L453.743 1059.15ZM442.517 1106.35L439.599 1105.65L438.905 1108.57L441.823 1109.26L442.517 1106.35ZM467.796 1112.36L467.102 1115.28L470.021 1115.97L470.715 1113.05L467.796 1112.36ZM480.651 1058.31L481.345 1055.4L478.427 1054.7L477.732 1057.62L480.651 1058.31ZM493.602 1061.4L496.52 1062.09L497.214 1059.17L494.296 1058.48L493.602 1061.4ZM477.548 1128.89L476.854 1131.81L479.772 1132.5L480.467 1129.58L477.548 1128.89ZM393.298 1108.85L409.352 1041.36L403.515 1039.97L387.461 1107.46L393.298 1108.85ZM405.739 1043.58L418.69 1046.66L420.078 1040.82L407.128 1037.74L405.739 1043.58ZM416.466 1043.05L403.611 1097.09L409.448 1098.48L422.303 1044.44L416.466 1043.05ZM405.835 1100.7L428.873 1106.18L430.261 1100.35L407.224 1094.87L405.835 1100.7ZM432.485 1103.96L443.711 1056.76L437.874 1055.38L426.648 1102.57L432.485 1103.96ZM440.098 1058.99L453.049 1062.07L454.437 1056.23L441.487 1053.15L440.098 1058.99ZM450.825 1058.46L439.599 1105.65L445.436 1107.04L456.662 1059.85L450.825 1058.46ZM441.823 1109.26L467.102 1115.28L468.49 1109.44L443.212 1103.43L441.823 1109.26ZM470.715 1113.05L483.57 1059.01L477.732 1057.62L464.878 1111.66L470.715 1113.05ZM479.957 1061.23L492.907 1064.31L494.296 1058.48L481.345 1055.4L479.957 1061.23ZM490.683 1060.7L474.629 1128.19L480.467 1129.58L496.52 1062.09L490.683 1060.7ZM478.242 1125.97L391.074 1105.24L389.686 1111.07L476.854 1131.81L478.242 1125.97Z" fill="white"/>
<circle cx="1286" cy="1286" r="725" stroke="white" stroke-width="50"/>
<path d="M1710.84 1089.69C1698.37 1089.68 1686.2 1093.48 1675.95 1100.6C1665.71 1107.72 1657.89 1117.8 1653.54 1129.5C1649.18 1141.2 1648.51 1153.96 1651.61 1166.05C1654.71 1178.14 1661.43 1189 1670.87 1197.16C1652.26 1226.52 1631.8 1254.67 1609.62 1281.43C1600.14 1292.86 1589.49 1303.26 1577.84 1312.47C1457.43 1406.65 1342.96 1290.29 1306.45 1041.97C1321.31 1037.2 1333.99 1027.27 1342.18 1013.97C1350.38 1000.67 1353.56 984.872 1351.15 969.429C1348.74 953.986 1340.9 939.913 1329.05 929.749C1317.19 919.586 1302.09 914 1286.48 914C1270.88 914 1255.78 919.586 1243.92 929.749C1232.06 939.913 1224.22 953.986 1221.81 969.429C1219.41 984.872 1222.59 1000.67 1230.78 1013.97C1238.98 1027.27 1251.66 1037.2 1266.52 1041.97C1230.02 1290.29 1115.54 1406.65 995.123 1312.47C983.483 1303.26 972.833 1292.85 963.347 1281.43C941.17 1254.66 920.714 1226.52 902.101 1197.16C912.915 1187.76 920.088 1174.86 922.369 1160.7C924.649 1146.55 921.891 1132.04 914.576 1119.71C907.261 1107.39 895.854 1098.03 882.348 1093.27C868.843 1088.51 854.097 1088.65 840.686 1093.67C827.275 1098.7 816.052 1108.27 808.977 1120.74C801.902 1133.2 799.426 1147.76 801.98 1161.87C804.533 1175.98 811.956 1188.74 822.95 1197.92C833.944 1207.11 847.81 1212.13 862.128 1212.12C863.063 1212.12 863.951 1212.03 864.871 1211.98C884.828 1290.58 911.158 1493.65 920.15 1620.93C921.497 1639.99 939.747 1653.56 958.388 1649.35C1021.18 1635.16 1156.45 1608.5 1286.48 1608.5C1416.66 1608.5 1552.64 1635.22 1615.63 1649.4C1634.26 1653.59 1652.48 1640.02 1653.8 1620.97C1662.63 1493.7 1688.14 1290.56 1708.11 1211.98C1709.02 1211.98 1709.92 1212.12 1710.84 1212.12C1726.88 1211.87 1742.18 1205.3 1753.44 1193.85C1764.69 1182.4 1771 1166.97 1771 1150.91C1771 1134.84 1764.69 1119.41 1753.44 1107.96C1742.18 1096.51 1726.88 1089.95 1710.84 1089.69Z" fill="white"/>
</svg>
