<?xml version="1.0" encoding="UTF-8" standalone="no"?><!DOCTYPE svg PUBLIC "-//W3C//DTD SVG 1.1//EN" "http://www.w3.org/Graphics/SVG/1.1/DTD/svg11.dtd"><svg width="100%" height="100%" viewBox="0 0 25 25" version="1.1" xmlns="http://www.w3.org/2000/svg" xmlns:xlink="http://www.w3.org/1999/xlink" xml:space="preserve" xmlns:serif="http://www.serif.com/" style="fill-rule:evenodd;clip-rule:evenodd;"><g><circle cx="12.4" cy="12.4" r="12.4"/><g><path d="M12.4,21.33c4.931,0 8.93,-3.999 8.93,-8.93c0,-4.932 -3.999,-8.93 -8.93,-8.93c-4.932,0 -8.93,3.998 -8.93,8.93c0,4.931 3.998,8.93 8.93,8.93Z" style="fill:none;fill-rule:nonzero;stroke:#fff;stroke-width:0.66px;"/><path d="M17.752,9.943c-0.157,0 -0.311,0.048 -0.44,0.139c-0.129,0.091 -0.227,0.22 -0.282,0.369c-0.055,0.15 -0.064,0.313 -0.024,0.467c0.039,0.154 0.123,0.293 0.242,0.397c-0.234,0.375 -0.492,0.735 -0.771,1.076c-0.12,0.146 -0.254,0.279 -0.401,0.397c-1.517,1.202 -2.959,-0.284 -3.419,-3.454c0.187,-0.061 0.347,-0.188 0.45,-0.358c0.104,-0.17 0.144,-0.371 0.113,-0.569c-0.03,-0.197 -0.129,-0.377 -0.278,-0.506c-0.15,-0.13 -0.34,-0.201 -0.536,-0.201c-0.197,0 -0.387,0.071 -0.536,0.201c-0.15,0.129 -0.249,0.309 -0.279,0.506c-0.03,0.198 0.01,0.399 0.113,0.569c0.103,0.17 0.263,0.297 0.45,0.358c-0.46,3.17 -1.902,4.656 -3.419,3.454c-0.146,-0.118 -0.281,-0.251 -0.4,-0.397c-0.28,-0.342 -0.537,-0.701 -0.772,-1.076c0.136,-0.12 0.227,-0.285 0.256,-0.465c0.028,-0.181 -0.006,-0.366 -0.099,-0.524c-0.092,-0.157 -0.235,-0.277 -0.406,-0.337c-0.17,-0.061 -0.356,-0.059 -0.524,0.005c-0.169,0.064 -0.311,0.186 -0.4,0.345c-0.089,0.16 -0.12,0.345 -0.088,0.526c0.032,0.18 0.126,0.343 0.264,0.46c0.139,0.117 0.313,0.181 0.494,0.181c0.011,0 0.023,-0.001 0.034,-0.002c0.252,1.004 0.583,3.597 0.697,5.222c0.017,0.244 0.247,0.417 0.481,0.363c0.791,-0.181 2.496,-0.521 4.134,-0.521c1.64,0 3.353,0.341 4.146,0.522c0.235,0.053 0.465,-0.12 0.481,-0.363c0.111,-1.625 0.433,-4.219 0.684,-5.223c0.012,0 0.023,0.002 0.035,0.002c0.202,-0.003 0.395,-0.087 0.536,-0.233c0.142,-0.146 0.222,-0.343 0.222,-0.548c0,-0.206 -0.08,-0.402 -0.222,-0.549c-0.141,-0.146 -0.334,-0.23 -0.536,-0.233Z" style="fill:#fff;fill-rule:nonzero;"/></g></g></svg>