<?xml version="1.0" encoding="UTF-8" standalone="no"?><!DOCTYPE svg PUBLIC "-//W3C//DTD SVG 1.1//EN" "http://www.w3.org/Graphics/SVG/1.1/DTD/svg11.dtd"><svg width="100%" height="100%" viewBox="0 0 25 25" version="1.1" xmlns="http://www.w3.org/2000/svg" xmlns:xlink="http://www.w3.org/1999/xlink" xml:space="preserve" xmlns:serif="http://www.serif.com/" style="fill-rule:evenodd;clip-rule:evenodd;"><g><circle cx="12.4" cy="12.4" r="12.4"/><g><path d="M12.4,20.666c4.565,0 8.266,-3.701 8.266,-8.266c0,-4.566 -3.701,-8.266 -8.266,-8.266c-4.566,0 -8.266,3.7 -8.266,8.266c0,4.565 3.7,8.266 8.266,8.266Z" style="fill:none;fill-rule:nonzero;stroke:#fff;stroke-width:0.61px;"/><path d="M17.354,10.126c-0.146,-0.001 -0.288,0.044 -0.407,0.129c-0.12,0.084 -0.211,0.203 -0.261,0.341c-0.051,0.138 -0.059,0.289 -0.023,0.432c0.036,0.143 0.115,0.271 0.225,0.368c-0.217,0.347 -0.456,0.68 -0.715,0.996c-0.11,0.135 -0.234,0.258 -0.37,0.367c-1.404,1.113 -2.739,-0.262 -3.165,-3.197c0.173,-0.057 0.321,-0.174 0.417,-0.331c0.095,-0.158 0.132,-0.344 0.104,-0.527c-0.028,-0.182 -0.119,-0.349 -0.257,-0.469c-0.139,-0.12 -0.315,-0.186 -0.497,-0.186c-0.182,0 -0.358,0.066 -0.496,0.186c-0.138,0.12 -0.23,0.287 -0.258,0.469c-0.028,0.183 0.009,0.369 0.105,0.527c0.095,0.157 0.243,0.274 0.416,0.331c-0.425,2.935 -1.76,4.31 -3.164,3.197c-0.136,-0.109 -0.26,-0.232 -0.371,-0.367c-0.259,-0.316 -0.497,-0.649 -0.714,-0.996c0.126,-0.111 0.21,-0.264 0.236,-0.431c0.027,-0.167 -0.005,-0.339 -0.091,-0.485c-0.085,-0.145 -0.218,-0.256 -0.375,-0.312c-0.158,-0.056 -0.33,-0.055 -0.486,0.005c-0.157,0.059 -0.288,0.172 -0.37,0.32c-0.083,0.147 -0.111,0.319 -0.082,0.486c0.03,0.167 0.117,0.317 0.245,0.426c0.128,0.108 0.29,0.168 0.457,0.168c0.011,0 0.021,-0.001 0.032,-0.002c0.232,0.929 0.539,3.329 0.644,4.834c0.016,0.225 0.229,0.385 0.446,0.336c0.733,-0.168 2.31,-0.483 3.826,-0.483c1.518,0 3.104,0.315 3.838,0.483c0.218,0.05 0.43,-0.111 0.446,-0.336c0.103,-1.504 0.4,-3.905 0.633,-4.834c0.011,0 0.021,0.002 0.032,0.002c0.187,-0.003 0.365,-0.081 0.496,-0.216c0.132,-0.136 0.205,-0.318 0.205,-0.508c0,-0.19 -0.073,-0.372 -0.205,-0.507c-0.131,-0.136 -0.309,-0.213 -0.496,-0.216Z" style="fill:#fff;fill-rule:nonzero;"/></g></g></svg>