<svg width="1250" height="1250" viewBox="0 0 1250 1250" fill="none" xmlns="http://www.w3.org/2000/svg">
<circle cx="625" cy="625" r="625" fill="#0E0E0E"/>
<path d="M348.942 383.556C387.07 341.971 434.91 309.445 488.859 289.567C494.007 287.67 499.671 291.511 499.671 297.488V368.833C499.671 372.263 497.614 375.491 494.306 377.069C466.981 390.11 442.152 407.532 420.729 428.425C417.664 431.414 413.132 431.998 409.677 430.004L351.15 396.214C346.392 393.467 345.496 387.316 348.942 383.556ZM676.896 891.943C797.417 862.932 886.975 754.431 886.975 624.999C886.975 495.566 797.417 387.063 676.896 358.053C672.589 357.017 669.637 353.295 669.637 349.178V282.164C669.637 276.782 674.337 272.942 679.253 273.872C844.675 305.167 969.779 450.478 969.779 624.999C969.779 799.518 844.675 944.83 679.253 976.124C674.337 977.054 669.637 973.214 669.637 967.832V900.819C669.637 896.702 672.589 892.98 676.896 891.943ZM399.328 798.153C424.913 829.602 457.322 855.278 494.306 872.927C497.614 874.506 499.671 877.733 499.671 881.164V952.508C499.671 958.484 494.007 962.326 488.857 960.429C424.307 936.644 368.503 894.751 327.617 840.902C324.699 837.06 325.813 831.375 330.291 828.789L387.531 795.742C391.321 793.554 396.35 794.493 399.328 798.153ZM551.968 195H617.34C622.153 195 626.056 198.902 626.056 203.716V1046.28C626.056 1051.1 622.153 1055 617.34 1055H551.968C547.154 1055 543.252 1051.1 543.252 1046.28V203.716C543.252 198.902 547.154 195 551.968 195Z" fill="white"/>
</svg>
