<?xml version="1.0" encoding="UTF-8" standalone="no"?>
<!DOCTYPE svg PUBLIC "-//W3C//DTD SVG 1.1//EN" "http://www.w3.org/Graphics/SVG/1.1/DTD/svg11.dtd">
<svg width="100%" height="100%" viewBox="0 0 1250 1250" version="1.1" xmlns="http://www.w3.org/2000/svg" xmlns:xlink="http://www.w3.org/1999/xlink" xml:space="preserve" xmlns:serif="http://www.serif.com/" style="fill-rule:evenodd;clip-rule:evenodd;stroke-linejoin:round;stroke-miterlimit:2;">
    <circle cx="625" cy="625" r="625" style="fill:rgb(14,14,14);"/>
    <g transform="matrix(0.643464,0,0,0.643464,196.998,282.844)">
        <g transform="matrix(0.821165,0,0,0.821165,-325.281,-495.067)">
            <path d="M1209.13,878.121C1385.26,207.767 2245.56,1984.85 1647.04,1753.94C1019.9,1511.99 556.375,1637.1 556.375,1637.1C556.375,1637.1 1108.35,1261.71 1209.13,878.121ZM1209.13,1075.57C1409.3,711.468 1418.21,1493.73 1418.21,1493.73L825.759,1540.47C825.759,1540.47 1047.18,1370.15 1209.13,1075.57Z" style="fill:rgb(69,69,69);"/>
        </g>
        <g transform="matrix(0.794477,0,0,0.794477,-325.47,-469.072)">
            <path d="M1209.13,878.121C1385.26,207.767 2245.56,1984.85 1647.04,1753.94C1019.9,1511.99 575.304,1661.3 575.304,1661.3C575.304,1661.3 1108.35,1261.71 1209.13,878.121ZM1209.13,1075.57C1409.3,711.468 1418.21,1493.73 1418.21,1493.73L825.759,1540.47C825.759,1540.47 1047.18,1370.15 1209.13,1075.57Z" style="fill:url(#_Radial1);"/>
        </g>
    </g>
    <defs>
        <radialGradient id="_Radial1" cx="0" cy="0" r="1" gradientUnits="userSpaceOnUse" gradientTransform="matrix(1280.59,0,0,1048.73,575.304,1250.43)"><stop offset="0" style="stop-color:rgb(43,255,172);stop-opacity:1"/><stop offset="0.5" style="stop-color:rgb(51,240,183);stop-opacity:1"/><stop offset="0.63" style="stop-color:rgb(75,197,215);stop-opacity:1"/><stop offset="0.74" style="stop-color:rgb(104,143,255);stop-opacity:1"/><stop offset="0.88" style="stop-color:rgb(82,130,225);stop-opacity:1"/><stop offset="1" style="stop-color:rgb(0,82,112);stop-opacity:1"/></radialGradient>
    </defs>
</svg>
