<?xml version="1.0" encoding="UTF-8" standalone="no"?><!DOCTYPE svg PUBLIC "-//W3C//DTD SVG 1.1//EN" "http://www.w3.org/Graphics/SVG/1.1/DTD/svg11.dtd"><svg width="100%" height="100%" viewBox="0 0 2572 2572" version="1.1" xmlns="http://www.w3.org/2000/svg" xmlns:xlink="http://www.w3.org/1999/xlink" xml:space="preserve" xmlns:serif="http://www.serif.com/" style="fill-rule:evenodd;clip-rule:evenodd;"><g id="Layer1"><circle cx="1286.2" cy="1286" r="1286"/></g><g><path d="M646.753,746.365c0.294,3.005 0.133,6.682 -0.484,11.032c-0.616,4.349 -1.806,8.96 -3.568,13.834c-1.831,4.821 -4.445,9.478 -7.845,13.968c-4.171,5.511 -8.91,10.005 -14.216,13.48c-5.374,3.424 -11.025,5.728 -16.953,6.914c-5.875,1.117 -11.805,0.963 -17.79,-0.463c-6.052,-1.477 -11.868,-4.328 -17.447,-8.551c-5.239,-3.965 -9.297,-8.643 -12.175,-14.031c-2.826,-5.457 -4.481,-11.259 -4.966,-17.405c-0.485,-6.146 0.191,-12.27 2.027,-18.372c1.768,-6.153 4.661,-11.883 8.678,-17.191c3.296,-4.354 7.076,-8.075 11.339,-11.162c4.195,-3.139 8.396,-5.578 12.602,-7.317c4.258,-1.808 8.094,-2.917 11.509,-3.329l3.703,13.559c-5.449,1.12 -10.637,3.025 -15.564,5.717c-4.995,2.64 -9.424,6.512 -13.287,11.615c-2.626,3.47 -4.597,7.276 -5.913,11.417c-1.315,4.141 -1.855,8.389 -1.618,12.742c0.22,4.233 1.303,8.317 3.248,12.251c1.997,3.866 4.969,7.293 8.915,10.28c5.715,4.326 11.542,6.596 17.48,6.81c5.871,0.162 11.466,-1.221 16.787,-4.15c5.304,-3.048 9.862,-7.09 13.673,-12.125c2.781,-3.674 4.803,-7.335 6.065,-10.981c1.194,-3.699 1.952,-7.245 2.274,-10.64c0.322,-3.395 0.464,-6.552 0.426,-9.47l13.1,1.568Z" style="fill:#fff;fill-rule:nonzero;"/><path d="M646.753,746.365l2.986,-0.292l-0.235,-2.4l-2.394,-0.287l-0.357,2.979Zm-0.484,11.032l-2.97,-0.421l2.97,0.421Zm-3.568,13.834l2.804,1.064l0.009,-0.022l0.008,-0.022l-2.821,-1.02Zm-22.061,27.448l1.612,2.53l0.032,-0.02l-1.644,-2.51Zm-16.953,6.914l0.561,2.947l0.014,-0.003l0.014,-0.002l-0.589,-2.942Zm-17.79,-0.463l-0.711,2.914l0.016,0.004l0.695,-2.918Zm-29.622,-22.582l-2.664,1.379l0.018,0.034l2.646,-1.413Zm-4.966,-17.405l2.991,-0.236l-2.991,0.236Zm2.027,-18.372l2.873,0.864l0.005,-0.017l0.005,-0.018l-2.883,-0.829Zm20.017,-28.353l1.759,2.43l0.038,-0.028l-1.797,-2.402Zm12.602,-7.317l1.146,2.772l0.013,-0.005l0.013,-0.006l-1.172,-2.761Zm11.509,-3.329l2.894,-0.79l-0.682,-2.498l-2.571,0.31l0.359,2.978Zm3.703,13.559l0.604,2.939l3.133,-0.644l-0.843,-3.085l-2.894,0.79Zm-15.564,5.717l1.402,2.652l0.018,-0.009l0.018,-0.01l-1.438,-2.633Zm-19.2,23.032l-2.859,-0.908l2.859,0.908Zm-1.618,12.742l2.996,-0.156l0,-0.007l-2.996,0.163Zm3.248,12.251l-2.689,1.33l0.012,0.023l0.012,0.024l2.665,-1.377Zm26.395,17.09l-0.108,2.998l0.013,0l0.012,0.001l0.083,-2.999Zm16.787,-4.15l1.447,2.628l0.024,-0.013l0.024,-0.014l-1.495,-2.601Zm19.738,-23.106l2.835,0.981l0.01,-0.03l0.009,-0.03l-2.854,-0.921Zm2.274,-10.64l-2.987,-0.284l2.987,0.284Zm0.426,-9.47l0.356,-2.979l-3.401,-0.407l0.045,3.425l3,-0.039Zm10.114,1.86c0.263,2.687 0.129,6.109 -0.468,10.319l5.94,0.842c0.637,-4.489 0.825,-8.422 0.5,-11.745l-5.972,0.584Zm-0.468,10.319c-0.583,4.112 -1.715,8.522 -3.419,13.234l5.642,2.041c1.82,-5.034 3.067,-9.847 3.717,-14.433l-5.94,-0.842Zm-3.403,13.19c-1.72,4.531 -4.189,8.939 -7.432,13.223l4.784,3.621c3.556,-4.698 6.317,-9.603 8.257,-14.715l-5.609,-2.129Zm-7.432,13.223c-3.982,5.261 -8.474,9.51 -13.468,12.78l3.288,5.02c5.618,-3.68 10.604,-8.418 14.964,-14.179l-4.784,-3.621Zm-13.436,12.76c-5.079,3.235 -10.385,5.393 -15.929,6.502l1.177,5.884c6.31,-1.263 12.306,-3.714 17.976,-7.326l-3.224,-5.06Zm-15.901,6.497c-5.448,1.036 -10.95,0.896 -16.534,-0.434l-1.391,5.836c6.384,1.522 12.742,1.691 19.046,0.492l-1.121,-5.894Zm-16.518,-0.43c-5.608,-1.369 -11.056,-4.023 -16.348,-8.029l-3.621,4.784c5.865,4.44 12.049,7.488 18.546,9.073l1.423,-5.828Zm-16.348,-8.029c-4.92,-3.724 -8.681,-8.075 -11.339,-13.053l-5.293,2.827c3.097,5.8 7.452,10.803 13.011,15.01l3.621,-4.784Zm-11.322,-13.019c-2.641,-5.1 -4.186,-10.513 -4.639,-16.261l-5.982,0.472c0.517,6.544 2.283,12.735 5.293,18.548l5.328,-2.759Zm-4.639,-16.261c-0.455,-5.763 0.176,-11.514 1.909,-17.272l-5.746,-1.728c-1.939,6.446 -2.66,12.942 -2.145,19.472l5.982,-0.472Zm1.919,-17.307c1.662,-5.785 4.384,-11.184 8.187,-16.209l-4.784,-3.621c-4.231,5.589 -7.295,11.65 -9.169,18.173l5.766,1.657Zm8.187,-16.209c3.124,-4.127 6.692,-7.637 10.706,-10.543l-3.519,-4.86c-4.512,3.268 -8.503,7.2 -11.971,11.782l4.784,3.621Zm10.744,-10.571c4.024,-3.011 8.009,-5.317 11.951,-6.947l-2.292,-5.545c-4.47,1.848 -8.887,4.421 -13.253,7.688l3.594,4.804Zm11.977,-6.958c4.081,-1.732 7.638,-2.743 10.696,-3.111l-0.718,-5.957c-3.772,0.454 -7.888,1.663 -12.322,3.545l2.344,5.523Zm7.443,-5.299l3.703,13.559l5.788,-1.581l-3.703,-13.559l-5.788,1.581Zm5.994,9.83c-5.744,1.179 -11.213,3.189 -16.399,6.022l2.876,5.266c4.668,-2.551 9.575,-4.352 14.73,-5.411l-1.207,-5.877Zm-16.363,6.003c-5.431,2.871 -10.185,7.05 -14.277,12.456l4.784,3.622c3.633,-4.8 7.738,-8.364 12.297,-10.774l-2.804,-5.304Zm-14.277,12.456c-2.832,3.742 -4.961,7.853 -6.38,12.32l5.718,1.816c1.212,-3.815 3.025,-7.316 5.446,-10.514l-4.784,-3.622Zm-6.38,12.32c-1.426,4.488 -2.011,9.099 -1.754,13.813l5.991,-0.326c-0.217,-3.992 0.276,-7.876 1.481,-11.671l-5.718,-1.816Zm-1.755,13.806c0.242,4.656 1.435,9.138 3.555,13.425l5.379,-2.66c-1.771,-3.58 -2.744,-7.266 -2.942,-11.077l-5.992,0.312Zm3.579,13.472c2.229,4.315 5.515,8.075 9.769,11.295l3.622,-4.784c-3.639,-2.754 -6.296,-5.848 -8.06,-9.265l-5.331,2.754Zm9.769,11.295c6.104,4.62 12.511,7.175 19.183,7.416l0.216,-5.996c-5.204,-0.188 -10.45,-2.172 -15.777,-6.204l-3.622,4.784Zm19.208,7.417c6.423,0.178 12.545,-1.343 18.317,-4.521l-2.894,-5.256c-4.869,2.681 -9.939,3.926 -15.257,3.779l-0.166,5.998Zm18.365,-4.548c5.664,-3.256 10.524,-7.57 14.57,-12.916l-4.784,-3.621c-3.576,4.725 -7.832,8.494 -12.776,11.335l2.99,5.202Zm14.57,-12.916c2.936,-3.878 5.125,-7.814 6.508,-11.81l-5.67,-1.963c-1.142,3.298 -2.996,6.682 -5.622,10.152l4.784,3.621Zm6.527,-11.87c1.252,-3.877 2.061,-7.638 2.406,-11.278l-5.973,-0.567c-0.299,3.151 -1.006,6.483 -2.142,10.002l5.709,1.843Zm2.406,-11.278c0.331,-3.484 0.479,-6.75 0.44,-9.793l-6,0.079c0.037,2.795 -0.099,5.843 -0.413,9.147l5.973,0.567Zm-2.917,-6.775l13.101,1.569l0.713,-5.958l-13.101,-1.568l-0.713,5.957Z" style="fill:#fff;fill-rule:nonzero;"/><path d="M684.369,599.308l53.797,-43.805l8.405,10.322l-43.077,35.077l14.952,18.362l37.618,-30.631l8.406,10.323l-37.619,30.631l16.407,20.149l43.077,-35.076l8.406,10.322l-53.797,43.805l-56.575,-69.479Z" style="fill:#fff;fill-rule:nonzero;"/><path d="M684.369,599.308l-1.894,-2.327l-2.327,1.895l1.894,2.326l2.327,-1.894Zm53.797,-43.805l2.326,-1.895l-1.894,-2.326l-2.326,1.894l1.894,2.327Zm8.405,10.322l1.895,2.327l2.326,-1.895l-1.894,-2.326l-2.327,1.894Zm-43.077,35.077l-1.894,-2.327l-2.327,1.895l1.895,2.326l2.326,-1.894Zm14.952,18.362l-2.326,1.894l1.894,2.327l2.326,-1.894l-1.894,-2.327Zm37.618,-30.631l2.327,-1.894l-1.895,-2.327l-2.326,1.895l1.894,2.326Zm8.406,10.323l1.894,2.326l2.326,-1.894l-1.894,-2.327l-2.326,1.895Zm-37.619,30.631l-1.894,-2.326l-2.326,1.894l1.894,2.326l2.326,-1.894Zm16.407,20.149l-2.326,1.894l1.894,2.327l2.326,-1.895l-1.894,-2.326Zm43.077,-35.076l2.327,-1.895l-1.894,-2.326l-2.327,1.894l1.894,2.327Zm8.406,10.322l1.894,2.327l2.326,-1.895l-1.894,-2.326l-2.326,1.894Zm-53.797,43.805l-2.327,1.895l1.895,2.326l2.326,-1.894l-1.894,-2.327Zm-54.681,-67.153l53.797,-43.805l-3.788,-4.653l-53.797,43.805l3.788,4.653Zm49.577,-44.237l8.405,10.323l4.653,-3.789l-8.406,-10.323l-4.652,3.789Zm8.837,6.102l-43.077,35.076l3.788,4.653l43.078,-35.076l-3.789,-4.653Zm-43.509,39.297l14.952,18.362l4.652,-3.788l-14.952,-18.363l-4.652,3.789Zm19.172,18.795l37.618,-30.632l-3.788,-4.652l-37.618,30.631l3.788,4.653Zm33.398,-31.064l8.405,10.323l4.653,-3.789l-8.405,-10.322l-4.653,3.788Zm8.837,6.102l-37.618,30.632l3.789,4.652l37.618,-30.631l-3.789,-4.653Zm-38.05,34.852l16.407,20.149l4.652,-3.788l-16.406,-20.149l-4.653,3.788Zm20.627,20.581l43.078,-35.076l-3.789,-4.653l-43.077,35.077l3.788,4.652Zm38.857,-35.508l8.406,10.323l4.652,-3.789l-8.405,-10.323l-4.653,3.789Zm8.838,6.102l-53.798,43.805l3.789,4.653l53.797,-43.805l-3.788,-4.653Zm-49.577,44.237l-56.575,-69.48l-4.653,3.789l56.575,69.48l4.653,-3.789Z" style="fill:#fff;fill-rule:nonzero;"/><path d="M944.441,469.453c1.741,3.707 2.562,7.564 2.464,11.57c-0.058,3.892 -0.858,7.709 -2.401,11.45c-1.579,3.664 -3.872,6.91 -6.881,9.737l37.439,21.306l-15.58,7.175l-35.062,-20.16l-25.258,11.861l14.092,30.008l-12.513,5.876l-38.086,-81.102l43.795,-20.567c4.634,-2.176 9.429,-3.108 14.384,-2.795c5.032,0.277 9.634,1.745 13.806,4.405c4.249,2.624 7.516,6.37 9.801,11.236Zm-35.345,0.619l-28.27,13.275l12.677,26.996l29.197,-13.711c2.781,-1.306 5.001,-3.103 6.661,-5.391c1.7,-2.401 2.717,-4.953 3.051,-7.655c0.375,-2.815 -0.018,-5.459 -1.179,-7.931c-1.197,-2.549 -2.983,-4.444 -5.357,-5.686c-2.411,-1.319 -5.106,-1.939 -8.085,-1.859c-2.939,-0.035 -5.837,0.619 -8.695,1.962Z" style="fill:#fff;fill-rule:nonzero;"/><path d="M946.905,481.023l-2.999,-0.074l-0.001,0.015l0,0.014l3,0.045Zm-2.401,11.45l2.755,1.187l0.01,-0.021l0.009,-0.022l-2.774,-1.144Zm-6.881,9.737l-2.055,-2.187l-2.962,2.784l3.533,2.01l1.484,-2.607Zm37.439,21.306l1.255,2.725l5.305,-2.443l-5.076,-2.889l-1.484,2.607Zm-15.58,7.175l-1.495,2.601l1.343,0.772l1.407,-0.648l-1.255,-2.725Zm-35.062,-20.16l1.495,-2.601l-1.355,-0.779l-1.416,0.665l1.276,2.715Zm-25.258,11.861l-1.275,-2.715l-2.716,1.275l1.276,2.716l2.715,-1.276Zm14.092,30.008l1.275,2.716l2.716,-1.275l-1.276,-2.716l-2.715,1.275Zm-12.513,5.876l-2.715,1.276l1.275,2.715l2.715,-1.275l-1.275,-2.716Zm-38.086,-81.102l-1.276,-2.715l-2.715,1.275l1.275,2.715l2.716,-1.275Zm58.179,-23.362l-0.189,2.994l0.024,0.002l0.165,-2.996Zm13.806,4.405l-1.613,2.53l0.018,0.012l0.018,0.011l1.577,-2.553Zm-53.814,25.13l-1.275,-2.715l-2.716,1.275l1.276,2.716l2.715,-1.276Zm12.677,26.996l-2.715,1.275l1.275,2.716l2.716,-1.276l-1.276,-2.715Zm35.858,-19.102l2.428,1.762l0.02,-0.028l-2.448,-1.734Zm3.051,-7.655l-2.974,-0.395l-0.002,0.014l-0.001,0.014l2.977,0.367Zm-6.536,-13.617l-1.44,2.632l0.025,0.014l0.025,0.013l1.39,-2.659Zm-8.085,-1.859l-0.035,2.999l0.057,0.001l0.058,-0.001l-0.08,-2.999Zm23.935,2.618c1.547,3.296 2.267,6.691 2.18,10.221l5.998,0.148c0.11,-4.482 -0.813,-8.8 -2.747,-12.92l-5.431,2.551Zm2.179,10.25c-0.052,3.5 -0.769,6.945 -2.174,10.351l5.547,2.288c1.681,-4.076 2.563,-8.265 2.627,-12.55l-6,-0.089Zm-2.156,10.308c-1.41,3.273 -3.461,6.182 -6.181,8.737l4.109,4.373c3.298,-3.099 5.835,-6.681 7.582,-10.736l-5.51,-2.374Zm-5.61,13.531l37.439,21.306l2.968,-5.214l-37.44,-21.307l-2.967,5.215Zm37.668,15.974l-15.58,7.175l2.51,5.45l15.58,-7.175l-2.51,-5.45Zm-12.829,7.299l-35.063,-20.16l-2.991,5.202l35.063,20.16l2.991,-5.202Zm-37.834,-20.274l-25.257,11.861l2.55,5.431l25.258,-11.861l-2.551,-5.431Zm-26.697,15.852l14.092,30.007l5.43,-2.55l-14.092,-30.008l-5.43,2.551Zm15.532,26.017l-12.513,5.876l2.55,5.431l12.513,-5.876l-2.55,-5.431Zm-8.522,7.316l-38.087,-81.102l-5.431,2.55l38.087,81.103l5.431,-2.551Zm-39.527,-77.111l43.795,-20.567l-2.55,-5.431l-43.796,20.567l2.551,5.431Zm43.795,-20.567c4.192,-1.969 8.485,-2.797 12.92,-2.517l0.378,-5.988c-5.475,-0.346 -10.772,0.69 -15.848,3.074l2.55,5.431Zm12.944,-2.515c4.528,0.248 8.629,1.561 12.358,3.939l3.226,-5.059c-4.615,-2.943 -9.718,-4.567 -15.255,-4.871l-0.329,5.991Zm12.394,3.962c3.716,2.294 6.605,5.577 8.663,9.958l5.431,-2.551c-2.513,-5.351 -6.158,-9.558 -10.941,-12.512l-3.153,5.105Zm-25.242,6.586l-28.27,13.276l2.55,5.431l28.27,-13.276l-2.55,-5.431Zm-29.71,17.267l12.677,26.995l5.431,-2.55l-12.677,-26.996l-5.431,2.551Zm16.668,28.435l29.196,-13.711l-2.55,-5.431l-29.197,13.711l2.551,5.431Zm29.196,-13.711c3.199,-1.502 5.831,-3.611 7.814,-6.344l-4.857,-3.523c-1.336,1.842 -3.144,3.327 -5.507,4.436l2.55,5.431Zm7.834,-6.372c1.963,-2.772 3.181,-5.788 3.58,-9.021l-5.954,-0.735c-0.268,2.17 -1.085,4.258 -2.523,6.289l4.897,3.467Zm3.577,-8.993c0.447,-3.362 -0.022,-6.588 -1.438,-9.602l-5.43,2.551c0.906,1.929 1.222,3.99 0.92,6.26l5.948,0.791Zm-1.438,-9.602c-1.46,-3.11 -3.695,-5.507 -6.682,-7.069l-2.78,5.317c1.762,0.921 3.098,2.315 4.032,4.303l5.43,-2.551Zm-6.632,-7.043c-2.915,-1.595 -6.142,-2.319 -9.605,-2.226l0.16,5.998c2.495,-0.067 4.659,0.449 6.565,1.492l2.88,-5.264Zm-9.49,-2.227c-3.425,-0.04 -6.769,0.726 -10.005,2.246l2.55,5.431c2.48,-1.164 4.932,-1.706 7.385,-1.678l0.07,-5.999Z" style="fill:#fff;fill-rule:nonzero;"/><path d="M1113.5,482.06l-15.34,-74.73l-30.84,6.331l-2.68,-13.04l76.11,-15.621l2.68,13.04l-31.72,6.511l15.33,74.73l-13.54,2.779Z" style="fill:#fff;fill-rule:nonzero;"/><path d="M1113.5,482.06l-2.94,0.604l0.61,2.938l2.94,-0.603l-0.61,-2.939Zm-15.34,-74.73l2.94,-0.603l-0.6,-2.939l-2.94,0.603l0.6,2.939Zm-30.84,6.331l-2.94,0.603l0.6,2.939l2.94,-0.603l-0.6,-2.939Zm-2.68,-13.04l-0.6,-2.939l-2.94,0.603l0.6,2.939l2.94,-0.603Zm76.11,-15.621l2.94,-0.604l-0.6,-2.938l-2.94,0.603l0.6,2.939Zm2.68,13.04l0.6,2.939l2.94,-0.604l-0.6,-2.938l-2.94,0.603Zm-31.72,6.511l-0.61,-2.939l-2.94,0.603l0.61,2.939l2.94,-0.603Zm15.33,74.73l0.61,2.939l2.94,-0.603l-0.61,-2.939l-2.94,0.603Zm-10.6,2.176l-15.34,-74.73l-5.87,1.206l15.33,74.731l5.88,-1.207Zm-18.88,-77.066l-30.84,6.331l1.2,5.878l30.85,-6.331l-1.21,-5.878Zm-27.3,8.667l-2.68,-13.04l-5.88,1.206l2.68,13.04l5.88,-1.206Zm-5.01,-9.498l76.11,-15.622l-1.21,-5.877l-76.11,15.621l1.21,5.878Zm72.56,-17.957l2.68,13.04l5.88,-1.206l-2.68,-13.041l-5.88,1.207Zm5.02,9.498l-31.73,6.511l1.21,5.878l31.72,-6.511l-1.2,-5.878Zm-34.06,10.053l15.34,74.73l5.87,-1.206l-15.33,-74.73l-5.88,1.206Zm17.67,71.188l-13.54,2.78l1.21,5.877l13.54,-2.779l-1.21,-5.878Z" style="fill:#fff;fill-rule:nonzero;"/><path d="M1332.32,464.647l-55.66,-1.151l0.27,-13.437l20.86,0.431l1.3,-62.707l-20.86,-0.431l0.28,-13.437l55.66,1.151l-0.27,13.437l-20.99,-0.434l-1.3,62.707l20.99,0.434l-0.28,13.437Z" style="fill:#fff;fill-rule:nonzero;"/><path d="M1332.32,464.647l-0.06,2.999l3,0.062l0.06,-2.999l-3,-0.062Zm-55.66,-1.151l-3,-0.062l-0.07,2.999l3,0.062l0.07,-2.999Zm0.27,-13.437l0.06,-2.999l-2.99,-0.062l-0.07,2.999l3,0.062Zm20.86,0.431l-0.06,2.999l3,0.062l0.06,-2.999l-3,-0.062Zm1.3,-62.707l3,0.062l0.06,-2.999l-3,-0.062l-0.06,2.999Zm-20.86,-0.431l-3,-0.062l-0.06,3l3,0.062l0.06,-3Zm0.28,-13.437l0.06,-2.999l-3,-0.062l-0.06,2.999l3,0.062Zm55.66,1.151l3,0.062l0.07,-3l-3,-0.062l-0.07,3Zm-0.27,13.437l-0.06,2.999l2.99,0.062l0.07,-2.999l-3,-0.062Zm-20.99,-0.434l0.06,-2.999l-3,-0.062l-0.06,2.999l3,0.062Zm-1.3,62.707l-3,-0.062l-0.06,2.999l3,0.062l0.06,-2.999Zm20.99,0.434l3,0.062l0.06,-3l-3,-0.062l-0.06,3Zm-0.21,10.437l-55.67,-1.15l-0.13,5.998l55.67,1.151l0.13,-5.999Zm-52.74,1.911l0.28,-13.437l-6,-0.124l-0.27,13.437l5.99,0.124Zm-2.78,-10.5l20.86,0.431l0.12,-5.998l-20.86,-0.431l-0.12,5.998Zm23.92,-2.506l1.3,-62.707l-6,-0.123l-1.3,62.706l6,0.124Zm-1.64,-65.768l-20.86,-0.431l-0.12,5.999l20.86,0.431l0.12,-5.999Zm-17.92,2.63l0.28,-13.437l-6,-0.124l-0.28,13.437l6,0.124Zm-2.79,-10.499l55.67,1.15l0.13,-5.999l-55.67,-1.15l-0.13,5.999Zm52.74,-1.911l-0.28,13.437l6,0.124l0.27,-13.437l-5.99,-0.124Zm2.78,10.5l-20.99,-0.434l-0.12,5.999l20.99,0.433l0.12,-5.998Zm-24.05,2.503l-1.3,62.707l6,0.124l1.3,-62.707l-6,-0.124Zm1.64,65.768l20.99,0.434l0.12,-5.999l-20.98,-0.434l-0.13,5.999Zm18.05,-2.627l-0.28,13.437l6,0.124l0.28,-13.437l-6,-0.124Z" style="fill:#fff;fill-rule:nonzero;"/><path d="M1459.94,482.007l22.38,-86.76l67.06,17.296l-3.33,12.89l-53.67,-13.843l-6.42,24.912l48.09,12.405l-3.33,12.89l-48.09,-12.404l-9.3,36.067l-13.39,-3.453Z" style="fill:#fff;fill-rule:nonzero;"/><path d="M1459.94,482.007l-2.9,-0.749l-0.75,2.905l2.9,0.749l0.75,-2.905Zm22.38,-86.76l0.75,-2.905l-2.9,-0.749l-0.75,2.905l2.9,0.749Zm67.06,17.296l2.9,0.749l0.75,-2.905l-2.91,-0.749l-0.74,2.905Zm-3.33,12.89l-0.75,2.905l2.91,0.749l0.75,-2.905l-2.91,-0.749Zm-53.67,-13.843l0.75,-2.905l-2.9,-0.749l-0.75,2.905l2.9,0.749Zm-6.42,24.912l-2.91,-0.749l-0.75,2.905l2.91,0.749l0.75,-2.905Zm48.09,12.405l2.9,0.749l0.75,-2.905l-2.9,-0.749l-0.75,2.905Zm-3.33,12.89l-0.75,2.905l2.91,0.749l0.75,-2.905l-2.91,-0.749Zm-48.09,-12.404l0.75,-2.905l-2.9,-0.75l-0.75,2.905l2.9,0.75Zm-9.3,36.067l-0.75,2.905l2.9,0.749l0.75,-2.905l-2.9,-0.749Zm-10.48,-2.704l22.38,-86.76l-5.81,-1.498l-22.38,86.76l5.81,1.498Zm18.72,-84.604l67.06,17.296l1.49,-5.81l-67.05,-17.296l-1.5,5.81Zm64.9,13.642l-3.32,12.89l5.81,1.498l3.32,-12.89l-5.81,-1.498Zm0.33,10.734l-53.67,-13.843l-1.5,5.81l53.67,13.843l1.5,-5.81Zm-57.32,-11.687l-6.43,24.912l5.81,1.499l6.43,-24.913l-5.81,-1.498Zm-4.27,28.566l48.09,12.405l1.5,-5.81l-48.09,-12.404l-1.5,5.809Zm45.93,8.751l-3.32,12.89l5.81,1.498l3.32,-12.89l-5.81,-1.498Zm0.33,10.734l-48.09,-12.404l-1.5,5.809l48.09,12.405l1.5,-5.81Zm-51.74,-10.249l-9.31,36.068l5.81,1.498l9.31,-36.067l-5.81,-1.499Zm-5.65,33.912l-13.39,-3.453l-1.5,5.81l13.39,3.453l1.5,-5.81Z" style="fill:#fff;fill-rule:nonzero;"/><path d="M1690.1,570.281l-49.34,-25.818l6.24,-11.908l18.48,9.674l29.08,-55.57l-18.48,-9.674l6.23,-11.908l49.33,25.818l-6.23,11.908l-18.6,-9.734l-29.08,55.57l18.6,9.734l-6.23,11.908Z" style="fill:#fff;fill-rule:nonzero;"/><path d="M1690.1,570.281l-1.39,2.658l2.65,1.391l1.39,-2.658l-2.65,-1.391Zm-49.34,-25.818l-2.65,-1.391l-1.4,2.658l2.66,1.391l1.39,-2.658Zm6.24,-11.908l1.39,-2.658l-2.66,-1.391l-1.39,2.658l2.66,1.391Zm18.48,9.674l-1.39,2.658l2.66,1.391l1.39,-2.658l-2.66,-1.391Zm29.08,-55.57l2.66,1.391l1.39,-2.658l-2.66,-1.391l-1.39,2.658Zm-18.48,-9.674l-2.66,-1.391l-1.39,2.658l2.66,1.391l1.39,-2.658Zm6.23,-11.908l1.39,-2.658l-2.66,-1.391l-1.39,2.658l2.66,1.391Zm49.33,25.818l2.66,1.391l1.39,-2.658l-2.66,-1.391l-1.39,2.658Zm-6.23,11.908l-1.39,2.658l2.66,1.391l1.39,-2.658l-2.66,-1.391Zm-18.6,-9.734l1.39,-2.658l-2.66,-1.391l-1.39,2.658l2.66,1.391Zm-29.08,55.57l-2.66,-1.391l-1.39,2.658l2.66,1.391l1.39,-2.658Zm18.6,9.734l2.66,1.391l1.39,-2.658l-2.66,-1.391l-1.39,2.658Zm-4.84,9.25l-49.34,-25.818l-2.78,5.316l49.34,25.818l2.78,-5.316Zm-48.07,-21.769l6.23,-11.908l-5.31,-2.782l-6.23,11.908l5.31,2.782Zm2.18,-10.641l18.49,9.674l2.78,-5.316l-18.48,-9.674l-2.79,5.316Zm22.54,8.407l29.08,-55.57l-5.31,-2.782l-29.09,55.57l5.32,2.782Zm27.81,-59.619l-18.48,-9.674l-2.78,5.316l18.48,9.674l2.78,-5.316Zm-17.21,-5.625l6.23,-11.908l-5.32,-2.782l-6.23,11.908l5.32,2.782Zm2.18,-10.641l49.33,25.818l2.78,-5.316l-49.33,-25.818l-2.78,5.316Zm48.06,21.769l-6.23,11.908l5.32,2.782l6.23,-11.908l-5.32,-2.782Zm-2.18,10.641l-18.6,-9.734l-2.78,5.316l18.6,9.734l2.78,-5.316Zm-22.65,-8.467l-29.08,55.57l5.32,2.782l29.08,-55.57l-5.32,-2.782Zm-27.81,59.619l18.6,9.734l2.78,-5.316l-18.6,-9.734l-2.78,5.316Zm17.33,5.685l-6.23,11.908l5.31,2.782l6.24,-11.908l-5.32,-2.782Z" style="fill:#fff;fill-rule:nonzero;"/><path d="M1857.73,576.043l52.48,45.385l-8.71,10.068l-42.02,-36.341l-15.49,17.91l36.69,31.736l-8.71,10.068l-36.69,-31.735l-17,19.652l42.02,36.341l-8.71,10.069l-52.47,-45.385l58.61,-67.768Z" style="fill:#fff;fill-rule:nonzero;"/><path d="M1857.73,576.043l1.97,-2.269l-2.27,-1.962l-1.96,2.269l2.26,1.962Zm52.48,45.385l2.27,1.963l1.96,-2.269l-2.27,-1.963l-1.96,2.269Zm-8.71,10.068l-1.96,2.269l2.26,1.963l1.97,-2.269l-2.27,-1.963Zm-42.02,-36.341l1.96,-2.269l-2.26,-1.962l-1.97,2.269l2.27,1.962Zm-15.49,17.91l-2.27,-1.962l-1.96,2.269l2.27,1.962l1.96,-2.269Zm36.69,31.736l2.27,1.963l1.96,-2.269l-2.27,-1.963l-1.96,2.269Zm-8.71,10.068l-1.96,2.269l2.27,1.963l1.96,-2.269l-2.27,-1.963Zm-36.69,-31.735l1.96,-2.269l-2.26,-1.963l-1.97,2.269l2.27,1.963Zm-17,19.652l-2.27,-1.962l-1.96,2.269l2.27,1.962l1.96,-2.269Zm42.02,36.341l2.27,1.963l1.96,-2.269l-2.27,-1.963l-1.96,2.269Zm-8.71,10.069l-1.96,2.269l2.27,1.962l1.96,-2.269l-2.27,-1.962Zm-52.47,-45.385l-2.27,-1.962l-1.96,2.269l2.27,1.962l1.96,-2.269Zm56.65,-65.498l52.47,45.384l3.93,-4.538l-52.47,-45.385l-3.93,4.539Zm52.17,41.153l-8.71,10.068l4.54,3.925l8.71,-10.068l-4.54,-3.925Zm-4.48,9.761l-42.02,-36.341l-3.92,4.538l42.02,36.341l3.92,-4.538Zm-46.25,-36.034l-15.49,17.91l4.54,3.925l15.49,-17.91l-4.54,-3.925Zm-15.18,22.141l36.69,31.736l3.92,-4.538l-36.69,-31.736l-3.92,4.538Zm36.38,27.504l-8.71,10.069l4.54,3.925l8.71,-10.068l-4.54,-3.926Zm-4.47,9.762l-36.7,-31.735l-3.92,4.538l36.69,31.735l3.93,-4.538Zm-40.93,-31.429l-17,19.653l4.54,3.925l17,-19.653l-4.54,-3.925Zm-16.69,23.884l42.02,36.341l3.92,-4.538l-42.01,-36.341l-3.93,4.538Zm41.71,32.11l-8.71,10.068l4.54,3.925l8.71,-10.068l-4.54,-3.925Zm-4.48,9.762l-52.47,-45.385l-3.92,4.538l52.47,45.385l3.92,-4.538Zm-52.16,-41.153l58.61,-67.768l-4.53,-3.925l-58.62,67.768l4.54,3.925Z" style="fill:#fff;fill-rule:nonzero;"/><path d="M2032.19,763.755c4.56,6.494 7.58,12.872 9.06,19.133c1.55,6.212 1.77,12.161 0.65,17.847c-1.05,5.636 -3.22,10.862 -6.51,15.677c-3.22,4.766 -7.31,8.89 -12.27,12.373c-6.7,4.709 -13.9,7.524 -21.59,8.445c-7.58,0.942 -15.08,-0.307 -22.5,-3.748c-7.36,-3.49 -14.07,-9.565 -20.16,-18.223l-24.42,-34.774l73.31,-51.503l24.43,34.773Zm-62.79,43.328c4.61,6.564 9.49,11.061 14.64,13.493c5.2,2.501 10.41,3.32 15.65,2.459c5.28,-0.792 10.3,-2.855 15.05,-6.191c4.6,-3.237 8.18,-7.207 10.71,-11.909c2.59,-4.632 3.62,-9.842 3.1,-15.629c-0.47,-5.718 -3.01,-11.859 -7.62,-18.422l-16.11,-22.939l-51.53,36.2l16.11,22.938Z" style="fill:#fff;fill-rule:nonzero;"/><path d="M2041.25,782.888l-2.92,0.69l0.01,0.018l0,0.018l2.91,-0.726Zm0.65,17.847l-2.94,-0.578l-0.01,0.015l0,0.015l2.95,0.548Zm-6.51,15.677l-2.47,-1.693l-0.01,0.006l0,0.007l2.48,1.68Zm-33.86,20.818l-0.36,-2.979l-0.01,0.002l0.37,2.977Zm-22.5,-3.748l-1.29,2.71l0.02,0.012l1.27,-2.722Zm-44.58,-52.997l-1.73,-2.455l-2.45,1.724l1.72,2.455l2.46,-1.724Zm73.31,-51.503l2.46,-1.725l-1.72,-2.455l-2.46,1.725l1.72,2.455Zm-23.72,91.594l1.3,-2.704l-0.01,-0.005l-0.01,-0.004l-1.28,2.713Zm15.65,2.459l-0.45,-2.967l-0.02,0.003l-0.02,0.004l0.49,2.96Zm25.76,-18.1l-2.62,-1.462l-0.02,0.038l2.64,1.424Zm3.1,-15.629l-2.99,0.246l0,0.011l0.01,0.011l2.98,-0.268Zm-23.73,-41.361l2.45,-1.724l-1.72,-2.455l-2.46,1.725l1.73,2.454Zm-51.53,36.2l-1.73,-2.455l-2.45,1.724l1.72,2.455l2.46,-1.724Zm76.45,-18.665c4.39,6.252 7.22,12.283 8.59,18.098l5.84,-1.379c-1.58,-6.709 -4.79,-13.432 -9.52,-20.168l-4.91,3.449Zm8.6,18.134c1.45,5.83 1.64,11.333 0.62,16.543l5.88,1.156c1.21,-6.161 0.97,-12.556 -0.68,-19.15l-5.82,1.451Zm0.61,16.573c-0.97,5.218 -2.97,10.055 -6.03,14.532l4.95,3.386c3.52,-5.154 5.86,-10.769 6.98,-16.823l-5.9,-1.095Zm-6.04,14.545c-3.01,4.447 -6.84,8.314 -11.51,11.598l3.45,4.91c5.24,-3.682 9.59,-8.064 13.03,-13.148l-4.97,-3.36Zm-11.51,11.598c-6.32,4.441 -13.06,7.062 -20.23,7.922l0.71,5.957c8.22,-0.984 15.88,-3.992 22.97,-8.969l-3.45,-4.91Zm-20.24,7.923c-6.98,0.868 -13.92,-0.27 -20.87,-3.493l-2.53,5.444c7.9,3.659 15.96,5.02 24.14,4.003l-0.74,-5.954Zm-20.85,-3.481c-6.76,-3.211 -13.11,-8.879 -18.98,-17.238l-4.91,3.449c6.29,8.959 13.38,15.44 21.32,19.209l2.57,-5.42Zm-18.98,-17.238l-24.43,-34.774l-4.91,3.449l24.43,34.774l4.91,-3.449Zm-25.16,-30.594l73.32,-51.504l-3.45,-4.909l-73.32,51.503l3.45,4.91Zm69.14,-52.234l24.43,34.774l4.91,-3.449l-24.43,-34.774l-4.91,3.449Zm-38.37,78.101c4.8,6.825 10.04,11.755 15.82,14.481l2.56,-5.425c-4.53,-2.137 -9.04,-6.202 -13.47,-12.504l-4.91,3.448Zm15.8,14.472c5.7,2.744 11.54,3.687 17.44,2.716l-0.98,-5.92c-4.57,0.752 -9.17,0.056 -13.86,-2.203l-2.6,5.407Zm17.39,2.723c5.79,-0.867 11.23,-3.123 16.33,-6.703l-3.45,-4.91c-4.4,3.092 -8.98,4.962 -13.77,5.679l0.89,5.934Zm16.33,-6.703c4.97,-3.49 8.86,-7.805 11.63,-12.939l-5.28,-2.849c-2.3,4.27 -5.55,7.894 -9.8,10.878l3.45,4.91Zm11.61,-12.901c2.91,-5.209 4.04,-11.032 3.47,-17.361l-5.97,0.537c0.47,5.247 -0.47,9.844 -2.74,13.899l5.24,2.925Zm3.47,-17.338c-0.53,-6.42 -3.35,-13.066 -8.15,-19.901l-4.91,3.449c4.42,6.293 6.67,11.928 7.08,16.944l5.98,-0.492Zm-8.15,-19.901l-16.12,-22.938l-4.91,3.449l16.12,22.938l4.91,-3.449Zm-20.3,-23.668l-51.53,36.199l3.45,4.91l51.53,-36.2l-3.45,-4.909Zm-52.26,40.378l16.11,22.938l4.91,-3.448l-16.11,-22.939l-4.91,3.449Z" style="fill:#fff;fill-rule:nonzero;"/><path d="M2096.79,1154.56l18.96,-13.95l-9.76,-47.52l-22.92,-5.36l-2.91,-14.17l96.06,22.36l3.14,15.3l-79.54,58.13l-3.03,-14.79Zm49.54,-52.11l-26.06,-6.02l7.31,35.61l22.01,-16.28c2.35,-1.7 4.66,-3.35 6.95,-4.96c2.28,-1.6 4.74,-3.19 7.38,-4.78c-3.17,-0.57 -6.21,-1.16 -9.12,-1.78c-2.82,-0.56 -5.64,-1.16 -8.47,-1.79Z" style="fill:#fff;fill-rule:nonzero;"/><path d="M2096.79,1154.56l-1.78,-2.42l-1.55,1.14l0.39,1.88l2.94,-0.6Zm18.96,-13.95l1.77,2.41l1.55,-1.14l-0.39,-1.88l-2.93,0.61Zm-9.76,-47.52l2.94,-0.61l-0.39,-1.88l-1.86,-0.44l-0.69,2.93Zm-22.92,-5.36l-2.94,0.6l0.39,1.88l1.87,0.44l0.68,-2.92Zm-2.91,-14.17l0.68,-2.92l-4.56,-1.06l0.94,4.58l2.94,-0.6Zm96.06,22.36l2.94,-0.6l-0.39,-1.89l-1.87,-0.43l-0.68,2.92Zm3.14,15.3l1.77,2.42l1.56,-1.14l-0.39,-1.89l-2.94,0.61Zm-79.54,58.13l-2.93,0.61l0.94,4.57l3.77,-2.75l-1.78,-2.43Zm46.51,-66.9l-0.67,2.92l0.01,0l0.66,-2.92Zm-26.06,-6.02l0.67,-2.93l-4.55,-1.05l0.94,4.58l2.94,-0.6Zm7.31,35.61l-2.94,0.6l0.94,4.6l3.78,-2.79l-1.78,-2.41Zm22.01,-16.28l-1.76,-2.43l-0.02,0.01l-0.01,0.01l1.79,2.41Zm6.95,-4.96l-1.72,-2.45l1.72,2.45Zm7.38,-4.78l1.55,2.57l6.83,-4.11l-7.85,-1.41l-0.53,2.95Zm-9.12,-1.78l0.62,-2.94l-0.02,0l-0.02,-0.01l-0.58,2.95Zm-56.23,52.74l18.95,-13.96l-3.55,-4.83l-18.96,13.95l3.56,4.84Zm20.11,-16.98l-9.75,-47.52l-5.88,1.21l9.76,47.52l5.87,-1.21Zm-12,-49.84l-22.93,-5.35l-1.36,5.84l22.92,5.36l1.37,-5.85Zm-20.67,-3.03l-2.91,-14.17l-5.88,1.2l2.91,14.17l5.88,-1.2Zm-6.53,-10.65l96.06,22.36l1.36,-5.84l-96.06,-22.36l-1.36,5.84Zm93.8,20.04l3.14,15.3l5.88,-1.21l-3.14,-15.29l-5.88,1.2Zm4.31,12.27l-79.54,58.14l3.55,4.85l79.53,-58.14l-3.54,-4.85Zm-74.83,59.96l-3.03,-14.79l-5.88,1.2l3.04,14.8l5.87,-1.21Zm44.25,-69.23l-26.07,-6.02l-1.35,5.85l26.07,6.02l1.35,-5.85Zm-29.68,-2.49l7.31,35.61l5.88,-1.21l-7.31,-35.61l-5.88,1.21Zm12.03,37.42l22.01,-16.28l-3.57,-4.82l-22.01,16.28l3.57,4.82Zm21.98,-16.26c2.34,-1.69 4.65,-3.34 6.92,-4.93l-3.44,-4.91c-2.3,1.61 -4.63,3.27 -6.99,4.98l3.51,4.86Zm6.92,-4.93c2.22,-1.56 4.62,-3.11 7.21,-4.67l-3.1,-5.14c-2.69,1.62 -5.21,3.25 -7.55,4.9l3.44,4.91Zm6.19,-10.19c-3.14,-0.56 -6.14,-1.15 -9.03,-1.77l-1.25,5.87c2.95,0.63 6.02,1.23 9.22,1.81l1.06,-5.91Zm-9.07,-1.78c-2.79,-0.55 -5.58,-1.14 -8.39,-1.77l-1.32,5.85c2.86,0.65 5.71,1.25 8.55,1.81l1.16,-5.89Z" style="fill:#fff;fill-rule:nonzero;"/><path d="M2134.73,1286.47c-5.37,4.42 -9.59,9.14 -12.67,14.15c-3,5.02 -4.63,11.19 -4.89,18.53c-0.13,3.92 0.24,7.73 1.14,11.44c0.89,3.79 2.31,6.91 4.27,9.37c1.97,2.46 4.53,3.75 7.68,3.86c4.27,0.15 7.33,-2.13 9.21,-6.85c1.87,-4.63 3.56,-11.23 5.06,-19.8c1.19,-7.04 2.94,-13.13 5.25,-18.25c2.32,-5.13 5.28,-9.08 8.88,-11.86c3.68,-2.68 8.16,-3.93 13.45,-3.75c5.46,0.2 10.05,2.02 13.77,5.49c3.8,3.46 6.63,8.04 8.48,13.74c1.93,5.79 2.77,12.14 2.52,19.05c-0.3,8.44 -1.92,15.73 -4.87,21.86c-2.95,6.13 -7,10.89 -12.16,14.3l-9.65,-9.7c4.03,-2.93 7.37,-6.69 10.01,-11.3c2.63,-4.51 4.06,-9.84 4.28,-15.98c0.22,-6.31 -0.7,-11.64 -2.77,-15.98c-1.98,-4.34 -4.93,-6.58 -8.85,-6.72c-3.16,-0.11 -5.71,0.82 -7.66,2.8c-1.86,2.07 -3.37,4.92 -4.53,8.55c-1.15,3.72 -2.16,8.08 -3.02,13.09c-0.85,4.75 -1.87,9.28 -3.05,13.59c-1.18,4.4 -2.72,8.32 -4.64,11.75c-1.91,3.43 -4.31,6.12 -7.2,8.07c-2.89,1.95 -6.46,2.84 -10.73,2.69c-5.8,-0.2 -10.81,-2 -15.05,-5.4c-4.15,-3.3 -7.31,-7.99 -9.49,-14.04c-2.09,-5.97 -3,-12.96 -2.72,-20.97c0.31,-8.62 1.95,-16.37 4.93,-23.27c2.97,-6.81 7.62,-12.75 13.95,-17.82l11.07,9.36Z" style="fill:#fff;fill-rule:nonzero;"/><path d="M2134.73,1286.47l1.91,2.32l2.77,-2.29l-2.75,-2.32l-1.93,2.29Zm-12.67,14.15l-2.56,-1.57l-0.01,0.02l-0.01,0.01l2.58,1.54Zm-3.75,29.97l2.92,-0.69l-0.01,-0.01l0,-0.01l-2.91,0.71Zm4.27,9.37l-2.34,1.87l2.34,-1.87Zm16.89,-2.99l-2.78,-1.12l-0.01,0.01l0,0.01l2.79,1.1Zm5.06,-19.8l2.95,0.52l0,-0.02l-2.95,-0.5Zm5.25,-18.25l2.74,1.23l-2.74,-1.23Zm8.88,-11.86l-1.77,-2.42l-0.03,0.02l-0.03,0.03l1.83,2.37Zm27.22,1.74l-2.05,2.19l0.02,0.01l0.01,0.01l2.02,-2.21Zm8.48,13.74l-2.86,0.93l0.01,0.01l0,0.01l2.85,-0.95Zm-14.51,55.21l-2.13,2.11l1.73,1.74l2.05,-1.35l-1.65,-2.5Zm-9.65,-9.7l-1.76,-2.42l-2.84,2.06l2.47,2.48l2.13,-2.12Zm10.01,-11.3l-2.59,-1.51l-0.02,0.02l2.61,1.49Zm1.51,-31.96l-2.72,1.24l0.01,0.02l0.01,0.03l2.7,-1.29Zm-16.51,-3.92l-2.14,-2.1l-0.04,0.04l-0.04,0.05l2.22,2.01Zm-4.53,8.55l-2.86,-0.91l0,0.02l2.86,0.89Zm-3.02,13.09l2.95,0.52l0,-0.02l-2.95,-0.5Zm-3.05,13.59l-2.89,-0.79l0,0.01l2.89,0.78Zm-11.84,19.82l1.68,2.49l-1.68,-2.49Zm-25.78,-2.71l1.88,-2.34l-0.01,-0.01l-1.87,2.35Zm-9.49,-14.04l-2.83,0.99l0,0.01l0.01,0.02l2.82,-1.02Zm2.21,-44.24l-2.75,-1.2l-0.01,0.01l2.76,1.19Zm13.95,-17.82l1.94,-2.29l-1.89,-1.59l-1.93,1.54l1.88,2.34Zm9.16,7.04c-5.58,4.6 -10.03,9.56 -13.32,14.9l5.11,3.14c2.88,-4.68 6.87,-9.16 12.03,-13.4l-3.82,-4.64Zm-13.34,14.93c-3.31,5.55 -5.03,12.25 -5.3,19.96l5.99,0.22c0.25,-6.96 1.79,-12.61 4.46,-17.1l-5.15,-3.08Zm-5.3,19.96c-0.15,4.19 0.25,8.28 1.21,12.25l5.83,-1.41c-0.82,-3.43 -1.18,-6.97 -1.05,-10.62l-5.99,-0.22Zm1.21,12.23c0.96,4.13 2.55,7.68 4.85,10.56l4.69,-3.74c-1.63,-2.04 -2.89,-4.73 -3.7,-8.19l-5.84,1.37Zm4.85,10.56c2.51,3.15 5.89,4.85 9.91,4.99l0.22,-6c-2.29,-0.08 -4.03,-0.96 -5.44,-2.73l-4.69,3.74Zm9.91,4.99c2.73,0.09 5.26,-0.6 7.4,-2.19c2.11,-1.57 3.63,-3.84 4.71,-6.55l-5.58,-2.21c-0.8,2 -1.74,3.23 -2.71,3.94c-0.92,0.69 -2.07,1.07 -3.6,1.01l-0.22,6Zm12.1,-8.72c1.99,-4.92 3.72,-11.76 5.23,-20.41l-5.91,-1.03c-1.48,8.49 -3.13,14.85 -4.88,19.19l5.56,2.25Zm5.23,-20.43c1.16,-6.85 2.85,-12.68 5.04,-17.52l-5.47,-2.47c-2.45,5.41 -4.26,11.76 -5.48,18.99l5.91,1Zm5.04,-17.52c2.16,-4.78 4.84,-8.3 7.97,-10.71l-3.66,-4.75c-4.07,3.14 -7.31,7.52 -9.78,12.99l5.47,2.47Zm7.91,-10.66c3.05,-2.23 6.85,-3.35 11.57,-3.18l0.22,-6c-5.85,-0.2 -11.02,1.18 -15.33,4.33l3.54,4.85Zm11.57,-3.18c4.8,0.17 8.68,1.75 11.83,4.68l4.09,-4.39c-4.29,-3.99 -9.58,-6.07 -15.7,-6.29l-0.22,6Zm11.86,4.7c3.36,3.06 5.93,7.17 7.64,12.46l5.71,-1.85c-1.98,-6.11 -5.06,-11.17 -9.31,-15.04l-4.04,4.43Zm7.65,12.48c1.8,5.41 2.61,11.4 2.37,17.99l6,0.22c0.26,-7.22 -0.62,-13.93 -2.68,-20.1l-5.69,1.89Zm2.37,17.99c-0.28,8.13 -1.84,14.99 -4.57,20.67l5.4,2.6c3.17,-6.58 4.86,-14.29 5.17,-23.05l-6,-0.22Zm-4.57,20.67c-2.74,5.69 -6.45,10.02 -11.12,13.09l3.31,5.01c5.65,-3.73 10.05,-8.93 13.21,-15.5l-5.4,-2.6Zm-7.34,13.48l-9.64,-9.69l-4.26,4.23l9.65,9.69l4.25,-4.23Zm-10.01,-5.15c4.4,-3.2 8.01,-7.29 10.85,-12.23l-5.21,-2.99c-2.44,4.26 -5.5,7.7 -9.16,10.37l3.52,4.85Zm10.84,-12.21c2.92,-5.02 4.45,-10.85 4.69,-17.4l-6,-0.21c-0.2,5.73 -1.53,10.56 -3.87,14.58l5.18,3.03Zm4.69,-17.4c0.23,-6.64 -0.73,-12.48 -3.06,-17.37l-5.41,2.58c1.8,3.79 2.68,8.61 2.47,14.58l6,0.21Zm-3.04,-17.33c-1.14,-2.49 -2.64,-4.58 -4.61,-6.08c-2,-1.51 -4.32,-2.3 -6.86,-2.39l-0.22,6c1.38,0.05 2.5,0.45 3.45,1.17c0.98,0.75 1.94,1.95 2.79,3.79l5.45,-2.49Zm-11.47,-8.47c-3.87,-0.14 -7.28,1.03 -9.91,3.7l4.28,4.21c1.28,-1.3 2.97,-2 5.41,-1.91l0.22,-6Zm-9.99,3.79c-2.24,2.48 -3.93,5.75 -5.17,9.65l5.72,1.82c1.07,-3.37 2.41,-5.79 3.9,-7.45l-4.45,-4.02Zm-5.17,9.67c-1.21,3.87 -2.24,8.37 -3.12,13.47l5.91,1.01c0.85,-4.91 1.83,-9.14 2.94,-12.7l-5.73,-1.78Zm-3.12,13.45c-0.83,4.67 -1.83,9.11 -2.98,13.33l5.79,1.58c1.2,-4.4 2.23,-9.02 3.1,-13.86l-5.91,-1.05Zm-2.98,13.34c-1.13,4.2 -2.59,7.88 -4.37,11.07l5.24,2.92c2.05,-3.68 3.69,-7.83 4.92,-12.43l-5.79,-1.56Zm-4.37,11.07c-1.71,3.07 -3.81,5.39 -6.26,7.04l3.36,4.98c3.32,-2.25 6.03,-5.31 8.14,-9.1l-5.24,-2.92Zm-6.26,7.04c-2.25,1.52 -5.17,2.32 -8.94,2.18l-0.21,6c4.75,0.17 8.98,-0.83 12.51,-3.2l-3.36,-4.98Zm-8.94,2.18c-5.2,-0.18 -9.59,-1.78 -13.28,-4.74l-3.75,4.68c4.77,3.83 10.42,5.83 16.82,6.06l0.21,-6Zm-13.29,-4.75c-3.63,-2.89 -6.51,-7.06 -8.54,-12.7l-5.64,2.03c2.32,6.46 5.77,11.65 10.44,15.37l3.74,-4.7Zm-8.53,-12.68c-1.94,-5.54 -2.82,-12.14 -2.55,-19.88l-5.99,-0.21c-0.3,8.29 0.63,15.67 2.88,22.07l5.66,-1.98Zm-2.55,-19.88c0.3,-8.29 1.87,-15.67 4.68,-22.18l-5.51,-2.38c-3.14,7.29 -4.85,15.42 -5.16,24.35l5.99,0.21Zm4.68,-22.17c2.76,-6.32 7.09,-11.88 13.08,-16.68l-3.76,-4.68c-6.67,5.35 -11.64,11.67 -14.82,18.96l5.5,2.4Zm9.26,-16.73l11.07,9.36l3.87,-4.58l-11.06,-9.36l-3.88,4.58Z" style="fill:#fff;fill-rule:nonzero;"/><path d="M2110.86,1486.06c-6.26,3.02 -11.48,6.6 -15.67,10.73c-4.1,4.17 -7.15,9.78 -9.14,16.84c-1.07,3.78 -1.61,7.57 -1.62,11.38c-0.03,3.89 0.61,7.27 1.93,10.12c1.33,2.86 3.51,4.72 6.54,5.57c4.11,1.16 7.63,-0.32 10.57,-4.46c2.92,-4.05 6.13,-10.06 9.62,-18.03c2.83,-6.56 5.97,-12.06 9.44,-16.49c3.47,-4.43 7.28,-7.56 11.44,-9.41c4.21,-1.73 8.86,-1.88 13.96,-0.44c5.25,1.48 9.27,4.35 12.07,8.59c2.87,4.27 4.53,9.39 4.97,15.37c0.5,6.08 -0.19,12.45 -2.07,19.1c-2.3,8.13 -5.61,14.82 -9.93,20.08c-4.32,5.25 -9.39,8.92 -15.21,11l-7.07,-11.71c4.62,-1.89 8.75,-4.76 12.41,-8.6c3.63,-3.76 6.28,-8.6 7.95,-14.51c1.72,-6.08 2.09,-11.47 1.11,-16.18c-0.89,-4.69 -3.23,-7.56 -7,-8.63c-3.04,-0.86 -5.74,-0.56 -8.11,0.9c-2.3,1.57 -4.44,3.98 -6.43,7.23c-2,3.34 -4.02,7.34 -6.04,12c-1.96,4.41 -4.02,8.57 -6.19,12.48c-2.19,3.99 -4.62,7.43 -7.3,10.31c-2.67,2.88 -5.64,4.92 -8.91,6.13c-3.27,1.2 -6.95,1.23 -11.06,0.07c-5.58,-1.58 -10.03,-4.52 -13.34,-8.82c-3.24,-4.2 -5.21,-9.5 -5.88,-15.9c-0.62,-6.29 0.16,-13.3 2.34,-21.02c2.34,-8.29 5.78,-15.43 10.31,-21.42c4.5,-5.91 10.43,-10.58 17.78,-14l8.53,11.72Z" style="fill:#fff;fill-rule:nonzero;"/><path d="M2110.86,1486.06l1.3,2.7l3.24,-1.56l-2.11,-2.91l-2.43,1.77Zm-15.67,10.73l-2.11,-2.13l-0.01,0.02l-0.01,0.01l2.13,2.1Zm-10.76,28.22l3,0.03l0,-0.02l-3,-0.01Zm1.93,10.12l-2.72,1.26l2.72,-1.26Zm17.11,1.11l-2.43,-1.75l-0.01,0.01l2.44,1.74Zm9.62,-18.03l2.75,1.2l0,-0.02l-2.75,-1.18Zm9.44,-16.49l2.36,1.85l-2.36,-1.85Zm11.44,-9.41l-1.15,-2.77l-0.03,0.02l-0.04,0.01l1.22,2.74Zm26.03,8.15l-2.51,1.65l0.01,0.01l0.01,0.02l2.49,-1.68Zm4.97,15.37l-3,0.22l0.01,0.01l0,0.02l2.99,-0.25Zm-27.21,50.18l-2.56,1.55l1.26,2.1l2.31,-0.83l-1.01,-2.82Zm-7.07,-11.71l-1.13,-2.77l-3.24,1.32l1.81,3l2.56,-1.55Zm12.41,-8.6l-2.16,-2.08l-0.01,0l0,0.01l2.17,2.07Zm9.06,-30.69l-2.94,0.56l0,0.02l0.01,0.03l2.93,-0.61Zm-15.11,-7.73l-1.57,-2.55l-0.06,0.04l-0.05,0.03l1.68,2.48Zm-6.43,7.23l-2.56,-1.56l0,0.01l-0.01,0.01l2.57,1.54Zm-6.04,12l2.74,1.21l0.01,-0.01l0,-0.01l-2.75,-1.19Zm-6.19,12.48l-2.62,-1.45l-0.01,0.01l2.63,1.44Zm-16.21,16.44l1.04,2.81l-1.04,-2.81Zm-24.4,-8.75l2.38,-1.83l0,-0.01l-2.38,1.84Zm-5.88,-15.9l-2.99,0.3l0,0.02l2.99,-0.32Zm12.65,-42.44l-2.39,-1.82l-0.01,0.01l2.4,1.81Zm17.78,-14l2.43,-1.77l-1.45,-1.99l-2.24,1.04l1.26,2.72Zm7.23,9.01c-6.51,3.14 -12.02,6.9 -16.48,11.31l4.22,4.27c3.91,-3.87 8.85,-7.27 14.86,-10.17l-2.6,-5.41Zm-16.5,11.34c-4.54,4.6 -7.8,10.7 -9.9,18.13l5.78,1.63c1.89,-6.7 4.72,-11.83 8.39,-15.55l-4.27,-4.21Zm-9.9,18.13c-1.13,4.03 -1.71,8.09 -1.73,12.18l6,0.02c0.01,-3.53 0.51,-7.05 1.51,-10.57l-5.78,-1.63Zm-1.73,12.17c-0.03,4.23 0.66,8.06 2.21,11.4l5.45,-2.52c-1.1,-2.37 -1.69,-5.28 -1.66,-8.83l-6,-0.05Zm2.21,11.4c1.69,3.66 4.57,6.11 8.45,7.2l1.63,-5.77c-2.2,-0.62 -3.68,-1.89 -4.63,-3.95l-5.45,2.52Zm8.45,7.2c2.63,0.74 5.24,0.67 7.7,-0.37c2.42,-1.02 4.44,-2.86 6.13,-5.24l-4.89,-3.48c-1.25,1.76 -2.46,2.73 -3.57,3.19c-1.06,0.45 -2.26,0.54 -3.74,0.13l-1.63,5.77Zm13.82,-5.6c3.1,-4.3 6.4,-10.54 9.93,-18.58l-5.5,-2.41c-3.46,7.9 -6.56,13.69 -9.3,17.49l4.87,3.5Zm9.93,-18.6c2.76,-6.38 5.78,-11.64 9.05,-15.82l-4.72,-3.7c-3.66,4.68 -6.93,10.41 -9.84,17.15l5.51,2.37Zm9.05,-15.82c3.24,-4.13 6.68,-6.91 10.29,-8.51l-2.43,-5.49c-4.7,2.08 -8.88,5.58 -12.58,10.3l4.72,3.7Zm10.22,-8.48c3.5,-1.44 7.45,-1.62 12,-0.34l1.63,-5.77c-5.63,-1.59 -10.98,-1.47 -15.92,0.56l2.29,5.55Zm12,-0.34c4.62,1.31 8.02,3.76 10.38,7.36l5.01,-3.3c-3.22,-4.89 -7.87,-8.17 -13.76,-9.83l-1.63,5.77Zm10.4,7.39c2.53,3.77 4.06,8.37 4.46,13.91l5.99,-0.44c-0.47,-6.41 -2.27,-12.05 -5.48,-16.82l-4.97,3.35Zm4.47,13.94c0.46,5.68 -0.18,11.68 -1.97,18.04l5.78,1.63c1.96,-6.95 2.7,-13.68 2.17,-20.16l-5.98,0.49Zm-1.97,18.04c-2.21,7.82 -5.35,14.12 -9.35,18.98l4.63,3.81c4.64,-5.64 8.11,-12.73 10.5,-21.16l-5.78,-1.63Zm-9.35,18.98c-4.01,4.88 -8.65,8.2 -13.91,10.08l2.02,5.65c6.38,-2.28 11.89,-6.29 16.52,-11.92l-4.63,-3.81Zm-10.33,11.36l-7.07,-11.71l-5.13,3.1l7.07,11.71l5.13,-3.1Zm-8.5,-7.38c5.03,-2.06 9.51,-5.18 13.44,-9.31l-4.34,-4.14c-3.39,3.56 -7.18,6.18 -11.37,7.9l2.27,5.55Zm13.43,-9.3c4.03,-4.17 6.9,-9.47 8.68,-15.78l-5.77,-1.63c-1.56,5.52 -3.99,9.9 -7.23,13.25l4.32,4.16Zm8.68,-15.78c1.81,-6.4 2.26,-12.29 1.16,-17.6l-5.87,1.22c0.85,4.11 0.56,9 -1.06,14.75l5.77,1.63Zm1.17,-17.55c-0.51,-2.7 -1.48,-5.09 -3.04,-7c-1.58,-1.95 -3.65,-3.27 -6.1,-3.96l-1.63,5.78c1.33,0.37 2.32,1.03 3.07,1.96c0.78,0.96 1.43,2.35 1.81,4.34l5.89,-1.12Zm-9.14,-10.96c-3.72,-1.05 -7.31,-0.72 -10.49,1.24l3.15,5.11c1.55,-0.96 3.36,-1.24 5.71,-0.57l1.63,-5.78Zm-10.6,1.31c-2.76,1.88 -5.18,4.66 -7.31,8.15l5.13,3.12c1.83,-3.01 3.71,-5.05 5.55,-6.3l-3.37,-4.97Zm-7.32,8.17c-2.09,3.47 -4.16,7.59 -6.22,12.34l5.5,2.39c1.99,-4.57 3.94,-8.45 5.87,-11.64l-5.15,-3.09Zm-6.21,12.32c-1.93,4.34 -3.95,8.42 -6.07,12.25l5.25,2.91c2.21,-4 4.31,-8.24 6.3,-12.73l-5.48,-2.43Zm-6.08,12.26c-2.09,3.81 -4.38,7.03 -6.87,9.71l4.4,4.08c2.87,-3.09 5.44,-6.73 7.73,-10.91l-5.26,-2.88Zm-6.87,9.71c-2.39,2.58 -4.98,4.33 -7.75,5.35l2.08,5.63c3.76,-1.39 7.12,-3.72 10.07,-6.9l-4.4,-4.08Zm-7.75,5.35c-2.55,0.94 -5.57,1.03 -9.2,0l-1.63,5.77c4.57,1.3 8.92,1.33 12.91,-0.14l-2.08,-5.63Zm-9.2,0c-5.01,-1.41 -8.89,-4.01 -11.78,-7.76l-4.75,3.65c3.72,4.86 8.74,8.14 14.9,9.88l1.63,-5.77Zm-11.78,-7.77c-2.84,-3.67 -4.65,-8.41 -5.28,-14.37l-5.97,0.63c0.73,6.83 2.85,12.69 6.5,17.41l4.75,-3.67Zm-5.28,-14.35c-0.57,-5.84 0.14,-12.46 2.25,-19.91l-5.78,-1.63c-2.25,7.99 -3.1,15.38 -2.44,22.13l5.97,-0.59Zm2.25,-19.91c2.25,-7.99 5.54,-14.78 9.81,-20.44l-4.79,-3.61c-4.78,6.33 -8.37,13.82 -10.8,22.42l5.78,1.63Zm9.8,-20.43c4.19,-5.48 9.72,-9.86 16.67,-13.09l-2.53,-5.44c-7.75,3.61 -14.08,8.57 -18.91,14.9l4.77,3.63Zm12.98,-14.05l8.53,11.72l4.85,-3.53l-8.53,-11.72l-4.85,3.53Z" style="fill:#fff;fill-rule:nonzero;"/><path d="M2095.31,1703.52l-34.05,60.44l-11.6,-6.53l27.27,-48.4l-20.63,-11.62l-23.81,42.26l-11.6,-6.53l23.81,-42.27l-22.64,-12.75l-27.26,48.4l-11.6,-6.53l34.05,-60.45l78.06,43.98Z" style="fill:#fff;fill-rule:nonzero;"/><path d="M2095.31,1703.52l2.62,1.47l1.47,-2.61l-2.61,-1.48l-1.48,2.62Zm-34.05,60.44l-1.47,2.62l2.61,1.47l1.48,-2.62l-2.62,-1.47Zm-11.6,-6.53l-2.61,-1.47l-1.47,2.61l2.61,1.47l1.47,-2.61Zm27.27,-48.4l2.61,1.47l1.48,-2.61l-2.62,-1.48l-1.47,2.62Zm-20.63,-11.62l1.47,-2.62l-2.61,-1.47l-1.48,2.61l2.62,1.48Zm-23.81,42.26l-1.47,2.62l2.61,1.47l1.47,-2.62l-2.61,-1.47Zm-11.6,-6.53l-2.61,-1.47l-1.48,2.61l2.62,1.47l1.47,-2.61Zm23.81,-42.27l2.61,1.47l1.48,-2.61l-2.62,-1.47l-1.47,2.61Zm-22.64,-12.75l1.47,-2.62l-2.61,-1.47l-1.47,2.62l2.61,1.47Zm-27.26,48.4l-1.48,2.61l2.62,1.48l1.47,-2.62l-2.61,-1.47Zm-11.6,-6.53l-2.62,-1.48l-1.47,2.62l2.61,1.47l1.48,-2.61Zm34.05,-60.45l1.47,-2.61l-2.61,-1.48l-1.48,2.62l2.62,1.47Zm75.45,42.5l-34.05,60.45l5.23,2.94l34.05,-60.44l-5.23,-2.95Zm-29.96,59.31l-11.6,-6.54l-2.95,5.23l11.6,6.54l2.95,-5.23Zm-10.46,-2.45l27.26,-48.4l-5.22,-2.94l-27.27,48.4l5.23,2.94Zm26.12,-52.49l-20.63,-11.62l-2.94,5.23l20.63,11.62l2.94,-5.23Zm-24.72,-10.48l-23.81,42.27l5.23,2.94l23.81,-42.26l-5.23,-2.95Zm-19.72,41.13l-11.6,-6.54l-2.94,5.23l11.6,6.54l2.94,-5.23Zm-10.46,-2.45l23.81,-42.27l-5.22,-2.94l-23.81,42.27l5.22,2.94Zm22.67,-46.35l-22.64,-12.76l-2.94,5.23l22.64,12.76l2.94,-5.23Zm-26.72,-11.61l-27.27,48.4l5.23,2.94l27.26,-48.4l-5.22,-2.94Zm-23.18,47.26l-11.6,-6.54l-2.95,5.23l11.6,6.53l2.95,-5.22Zm-10.46,-2.45l34.05,-60.45l-5.23,-2.94l-34.05,60.44l5.23,2.95Zm29.96,-59.31l78.07,43.98l2.95,-5.23l-78.07,-43.97l-2.95,5.22Z" style="fill:#fff;fill-rule:nonzero;"/><path d="M1894.3,1836.94l56.15,51.65l21.31,-23.18l9.8,9.01l-52.6,57.19l-9.79,-9.01l21.92,-23.84l-56.15,-51.64l9.36,-10.18Z" style="fill:#fff;fill-rule:nonzero;"/><path d="M1894.3,1836.94l2.03,-2.21l-2.21,-2.03l-2.03,2.21l2.21,2.03Zm56.15,51.65l-2.03,2.2l2.2,2.03l2.04,-2.2l-2.21,-2.03Zm21.31,-23.18l2.04,-2.21l-2.21,-2.03l-2.03,2.21l2.2,2.03Zm9.8,9.01l2.21,2.03l2.03,-2.2l-2.21,-2.04l-2.03,2.21Zm-52.6,57.19l-2.03,2.21l2.21,2.03l2.03,-2.21l-2.21,-2.03Zm-9.79,-9.01l-2.21,-2.04l-2.03,2.21l2.2,2.03l2.04,-2.2Zm21.92,-23.84l2.21,2.03l2.03,-2.21l-2.21,-2.03l-2.03,2.21Zm-56.15,-51.64l-2.21,-2.04l-2.03,2.21l2.21,2.03l2.03,-2.2Zm7.33,-7.97l56.15,51.64l4.06,-4.41l-56.15,-51.65l-4.06,4.42Zm60.39,51.47l21.31,-23.18l-4.41,-4.06l-21.32,23.18l4.42,4.06Zm17.07,-23l9.8,9.01l4.06,-4.42l-9.79,-9.01l-4.07,4.42Zm9.62,4.77l-52.59,57.19l4.41,4.06l52.6,-57.19l-4.42,-4.06Zm-48.36,57.01l-9.79,-9.01l-4.07,4.41l9.8,9.02l4.06,-4.42Zm-9.62,-4.77l21.93,-23.84l-4.42,-4.06l-21.92,23.83l4.41,4.07Zm21.75,-28.08l-56.15,-51.64l-4.06,4.41l56.15,51.65l4.06,-4.42Zm-55.97,-47.4l9.36,-10.18l-4.42,-4.06l-9.36,10.17l4.42,4.07Z" style="fill:#fff;fill-rule:nonzero;"/><path d="M1656.76,2117.55c-4.65,2.14 -9.43,2.98 -14.34,2.52c-4.87,-0.38 -9.35,-1.94 -13.42,-4.66c-4.12,-2.62 -7.27,-6.29 -9.45,-11.02c-2.25,-4.88 -3,-9.89 -2.27,-15.02c0.7,-5.01 2.6,-9.65 5.72,-13.9c3.03,-4.22 7.03,-7.47 11.99,-9.76l29.3,-13.49l-13.98,-30.35l12.56,-5.78l37.49,81.38l-43.6,20.08Zm-15.38,-40.12c-2.72,1.25 -4.91,3.01 -6.59,5.29c-1.71,2.39 -2.75,4.93 -3.1,7.63c-0.43,2.73 -0.06,5.38 1.12,7.94c1.1,2.4 2.8,4.25 5.09,5.54c2.21,1.34 4.75,2.05 7.61,2.14c2.78,0.12 5.53,-0.44 8.24,-1.69l28.48,-13.12l-12.37,-26.85l-28.48,13.12Z" style="fill:#fff;fill-rule:nonzero;"/><path d="M1642.42,2120.07l0.28,-2.98l-0.02,-0.01l-0.02,0l-0.24,2.99Zm-13.42,-4.66l1.66,-2.5l-0.06,-0.04l-1.6,2.54Zm-11.72,-26.04l2.97,0.43l0.01,-0.01l0,-0.01l-2.98,-0.41Zm5.72,-13.9l2.42,1.77l0.01,-0.01l0,-0.01l-2.43,-1.75Zm41.29,-23.25l1.25,2.72l2.73,-1.26l-1.26,-2.72l-2.72,1.26Zm-13.98,-30.35l-1.26,-2.72l-2.72,1.25l1.26,2.73l2.72,-1.26Zm12.56,-5.78l2.72,-1.26l-1.25,-2.72l-2.73,1.25l1.26,2.73Zm37.49,81.38l1.25,2.72l2.73,-1.25l-1.26,-2.73l-2.72,1.26Zm-65.57,-14.75l-2.41,-1.78l-0.02,0.02l2.43,1.76Zm-3.1,7.63l2.96,0.47l0.01,-0.04l0,-0.04l-2.97,-0.39Zm6.21,13.48l1.55,-2.57l-0.04,-0.02l-0.03,-0.02l-1.48,2.61Zm7.61,2.14l0.13,-3l-0.04,0l-0.09,3Zm36.72,-14.81l1.26,2.73l2.72,-1.26l-1.25,-2.72l-2.73,1.25Zm-12.37,-26.85l2.72,-1.26l-1.25,-2.72l-2.73,1.25l1.26,2.73Zm-14.35,50.52c-4.19,1.93 -8.44,2.67 -12.81,2.26l-0.56,5.97c5.46,0.51 10.77,-0.43 15.88,-2.78l-2.51,-5.45Zm-12.85,2.25c-4.36,-0.34 -8.35,-1.73 -12,-4.17l-3.33,4.99c4.5,3.01 9.47,4.74 14.85,5.16l0.48,-5.98Zm-12.06,-4.21c-3.59,-2.28 -6.37,-5.49 -8.32,-9.73l-5.45,2.51c2.4,5.21 5.92,9.34 10.56,12.29l3.21,-5.07Zm-8.32,-9.73c-2.02,-4.38 -2.68,-8.8 -2.03,-13.34l-5.93,-0.85c-0.83,5.72 0.03,11.31 2.51,16.7l5.45,-2.51Zm-2.02,-13.36c0.62,-4.5 2.33,-8.67 5.16,-12.54l-4.84,-3.55c-3.4,4.64 -5.5,9.74 -6.27,15.27l5.95,0.82Zm5.17,-12.56c2.72,-3.78 6.3,-6.7 10.82,-8.78l-2.51,-5.45c-5.41,2.49 -9.82,6.06 -13.18,10.72l4.87,3.51Zm10.82,-8.78l29.29,-13.5l-2.51,-5.45l-29.29,13.5l2.51,5.45Zm30.76,-17.48l-13.98,-30.34l-5.44,2.51l13.97,30.34l5.45,-2.51Zm-15.44,-26.36l12.55,-5.79l-2.51,-5.45l-12.56,5.79l2.52,5.45Zm8.57,-7.26l37.49,81.38l5.45,-2.51l-37.49,-81.38l-5.45,2.51Zm38.96,77.4l-43.59,20.09l2.51,5.45l43.59,-20.09l-2.51,-5.45Zm-58.98,-20.04c-3.14,1.45 -5.75,3.53 -7.74,6.24l4.83,3.56c1.36,-1.85 3.14,-3.3 5.42,-4.35l-2.51,-5.45Zm-7.76,6.26c-1.99,2.76 -3.23,5.77 -3.65,9l5.95,0.78c0.28,-2.17 1.12,-4.25 2.57,-6.27l-4.87,-3.51Zm-3.64,8.92c-0.52,3.33 -0.06,6.58 1.36,9.66l5.45,-2.51c-0.93,-2.03 -1.22,-4.07 -0.88,-6.21l-5.93,-0.94Zm1.36,9.66c1.37,2.97 3.5,5.3 6.34,6.91l2.96,-5.23c-1.74,-0.98 -3,-2.35 -3.85,-4.19l-5.45,2.51Zm6.27,6.86c2.7,1.63 5.74,2.46 9.06,2.57l0.19,-6c-2.4,-0.08 -4.43,-0.67 -6.15,-1.71l-3.1,5.14Zm9.02,2.56c3.3,0.15 6.52,-0.52 9.63,-1.95l-2.51,-5.45c-2.31,1.06 -4.58,1.51 -6.85,1.41l-0.27,5.99Zm9.63,-1.95l28.49,-13.12l-2.51,-5.45l-28.49,13.12l2.51,5.45Zm29.96,-17.1l-12.38,-26.86l-5.45,2.51l12.38,26.86l5.45,-2.51Zm-16.36,-28.33l-28.48,13.12l2.51,5.45l28.48,-13.12l-2.51,-5.45Z" style="fill:#fff;fill-rule:nonzero;"/><path d="M1412.54,2160.51c-0.76,-4.02 -0.6,-7.96 0.49,-11.82c1.02,-3.76 2.75,-7.25 5.17,-10.49c2.44,-3.16 5.47,-5.73 9.09,-7.73l-30.97,-29.94l16.87,-3.08l28.95,28.25l27.42,-5.22l-6.2,-32.57l13.58,-2.58l16.74,88.03l-47.53,9.03c-5.03,0.96 -9.91,0.67 -14.63,-0.86c-4.8,-1.52 -8.9,-4.09 -12.28,-7.7c-3.46,-3.6 -5.69,-8.04 -6.7,-13.32Zm34.39,8.18l30.68,-5.83l-5.57,-29.3l-31.69,6.03c-3.01,0.57 -5.61,1.76 -7.79,3.56c-2.24,1.91 -3.86,4.12 -4.85,6.66c-1.07,2.63 -1.34,5.29 -0.83,7.97c0.52,2.77 1.78,5.05 3.77,6.84c2.01,1.88 4.47,3.15 7.37,3.81c2.84,0.77 5.81,0.85 8.91,0.26Z" style="fill:#fff;fill-rule:nonzero;"/><path d="M1413.03,2148.69l2.89,0.82l0,-0.03l-2.89,-0.79Zm5.17,-10.49l-2.37,-1.84l-0.02,0.02l-0.01,0.02l2.4,1.8Zm9.09,-7.73l1.44,2.63l3.56,-1.96l-2.92,-2.82l-2.08,2.15Zm-30.97,-29.94l-0.54,-2.95l-5.75,1.05l4.2,4.06l2.09,-2.16Zm16.87,-3.08l2.1,-2.14l-1.11,-1.09l-1.53,0.28l0.54,2.95Zm28.95,28.25l-2.09,2.14l1.12,1.09l1.53,-0.29l-0.56,-2.94Zm27.42,-5.22l0.56,2.95l2.94,-0.56l-0.56,-2.95l-2.94,0.56Zm-6.2,-32.57l-0.56,-2.94l-2.94,0.56l0.56,2.95l2.94,-0.57Zm13.58,-2.58l2.95,-0.56l-0.56,-2.95l-2.95,0.57l0.56,2.94Zm16.74,88.03l0.56,2.94l2.95,-0.56l-0.56,-2.94l-2.95,0.56Zm-62.16,8.17l0.93,-2.86l-0.03,0l-0.9,2.86Zm-12.28,-7.7l2.19,-2.05l-0.01,-0.02l-0.02,-0.01l-2.16,2.08Zm58.37,-10.97l0.56,2.95l2.95,-0.56l-0.56,-2.95l-2.95,0.56Zm-5.57,-29.3l2.95,-0.56l-0.56,-2.95l-2.95,0.56l0.56,2.95Zm-39.48,9.59l-1.91,-2.31l-0.01,0.01l-0.02,0.01l1.94,2.29Zm-4.85,6.66l2.78,1.12l0,-0.01l0.01,-0.02l-2.79,-1.09Zm2.94,14.81l2.05,-2.19l-0.04,-0.04l-2.01,2.23Zm7.37,3.81l0.78,-2.89l-0.05,-0.02l-0.06,-0.01l-0.67,2.92Zm-22.53,-8.48c-0.68,-3.58 -0.53,-7.05 0.43,-10.44l-5.78,-1.64c-1.22,4.32 -1.4,8.73 -0.55,13.2l5.9,-1.12Zm0.43,-10.47c0.92,-3.38 2.48,-6.54 4.68,-9.49l-4.8,-3.59c-2.64,3.53 -4.54,7.37 -5.66,11.5l5.78,1.58Zm4.65,-9.45c2.18,-2.82 4.89,-5.13 8.16,-6.93l-2.89,-5.25c-3.96,2.18 -7.31,5.02 -10.01,8.51l4.74,3.67Zm8.8,-11.71l-30.97,-29.94l-4.17,4.31l30.97,29.94l4.17,-4.31Zm-32.51,-24.84l16.87,-3.07l-1.08,-5.91l-16.87,3.08l1.08,5.9Zm14.24,-3.88l28.95,28.24l4.19,-4.29l-28.95,-28.24l-4.19,4.29Zm31.6,29.04l27.42,-5.21l-1.12,-5.89l-27.42,5.21l1.12,5.89Zm29.8,-8.72l-6.19,-32.57l-5.89,1.13l6.19,32.56l5.89,-1.12Zm-8.58,-29.06l13.59,-2.58l-1.13,-5.89l-13.58,2.58l1.12,5.89Zm10.08,-4.97l16.73,88.03l5.9,-1.12l-16.74,-88.03l-5.89,1.12Zm19.12,84.52l-47.53,9.04l1.12,5.89l47.53,-9.04l-1.12,-5.89Zm-47.53,9.04c-4.55,0.86 -8.92,0.6 -13.14,-0.78l-1.86,5.71c5.22,1.69 10.61,2.01 16.12,0.96l-1.12,-5.89Zm-13.17,-0.78c-4.32,-1.37 -7.97,-3.66 -10.99,-6.89l-4.38,4.1c3.74,3.99 8.28,6.84 13.57,8.51l1.8,-5.72Zm-11.02,-6.92c-3.02,-3.15 -5.01,-7.05 -5.91,-11.8l-5.9,1.12c1.11,5.81 3.59,10.79 7.49,14.84l4.32,-4.16Zm26.09,-0.11l30.68,-5.83l-1.12,-5.9l-30.68,5.84l1.12,5.89Zm33.07,-9.34l-5.57,-29.3l-5.89,1.12l5.57,29.3l5.89,-1.12Zm-9.08,-31.69l-31.69,6.03l1.12,5.89l31.69,-6.02l-1.12,-5.9Zm-31.69,6.03c-3.47,0.66 -6.54,2.05 -9.14,4.2l3.83,4.62c1.75,-1.45 3.87,-2.44 6.43,-2.93l-1.12,-5.89Zm-9.17,4.22c-2.59,2.2 -4.52,4.82 -5.71,7.85l5.59,2.19c0.8,-2.03 2.11,-3.85 4,-5.46l-3.88,-4.58Zm-5.7,7.83c-1.27,3.14 -1.61,6.38 -0.99,9.65l5.89,-1.12c-0.39,-2.09 -0.19,-4.17 0.67,-6.29l-5.57,-2.24Zm-0.99,9.65c0.64,3.38 2.21,6.26 4.72,8.51l4.01,-4.46c-1.48,-1.33 -2.43,-3.01 -2.84,-5.17l-5.89,1.12Zm4.67,8.47c2.43,2.27 5.38,3.78 8.75,4.55l1.34,-5.85c-2.43,-0.56 -4.4,-1.59 -5.99,-3.08l-4.1,4.38Zm8.64,4.52c3.31,0.89 6.74,0.98 10.25,0.31l-1.12,-5.89c-2.69,0.51 -5.2,0.42 -7.57,-0.21l-1.56,5.79Z" style="fill:#fff;fill-rule:nonzero;"/><path d="M1178.04,2146.96c0.42,-6.47 2.09,-12.44 5.01,-17.89c2.83,-5.37 6.68,-10 11.55,-13.87c4.87,-3.87 10.49,-6.8 16.86,-8.78c6.37,-1.89 13.3,-2.6 20.79,-2.11c7.5,0.49 14.32,2.09 20.47,4.8c6.06,2.79 11.26,6.42 15.58,10.89c4.24,4.47 7.42,9.55 9.53,15.24c2.1,5.78 2.94,11.91 2.52,18.38c-0.42,6.47 -2.05,12.4 -4.88,17.77c-2.83,5.46 -6.64,10.13 -11.43,14.01c-4.87,3.87 -10.49,6.75 -16.85,8.65c-6.46,1.97 -13.43,2.72 -20.93,2.23c-7.49,-0.49 -14.27,-2.13 -20.33,-4.92c-6.07,-2.7 -11.26,-6.29 -15.59,-10.76c-4.32,-4.48 -7.54,-9.6 -9.64,-15.38c-2.2,-5.7 -3.08,-11.79 -2.66,-18.26Zm14.05,0.91c-0.41,6.22 0.85,11.86 3.77,16.92c2.83,5.15 6.96,9.31 12.4,12.48c5.35,3.26 11.64,5.12 18.88,5.6c7.32,0.47 13.89,-0.55 19.69,-3.08c5.72,-2.45 10.32,-6.04 13.79,-10.78c3.38,-4.65 5.27,-10.09 5.68,-16.3c0.4,-6.22 -0.77,-11.9 -3.51,-17.03c-2.83,-5.06 -6.92,-9.22 -12.27,-12.48c-5.44,-3.17 -11.82,-5 -19.14,-5.48c-7.24,-0.47 -13.72,0.52 -19.43,2.97c-5.81,2.53 -10.45,6.16 -13.93,10.89c-3.55,4.73 -5.53,10.16 -5.93,16.29Z" style="fill:#fff;fill-rule:nonzero;"/><path d="M1183.05,2129.07l2.65,1.42l0,-0.01l0.01,-0.01l-2.66,-1.4Zm28.41,-22.65l-0.85,-2.87l-0.02,0l-0.02,0.01l0.89,2.86Zm41.26,2.69l1.25,-2.73l-0.04,-0.02l-1.21,2.75Zm15.58,10.89l2.18,-2.07l-0.02,-0.02l-2.16,2.09Zm9.53,15.24l2.82,-1.02l-0.01,-0.01l0,-0.01l-2.81,1.04Zm-2.36,36.15l-2.65,-1.4l-0.01,0.01l0,0.01l2.66,1.38Zm-11.43,14.01l1.87,2.35l0.02,-0.02l-1.89,-2.33Zm-16.85,8.65l-0.86,-2.88l-0.01,0.01l-0.01,0l0.88,2.87Zm-41.26,-2.69l1.26,-2.72l-0.04,-0.02l-1.22,2.74Zm-15.59,-10.76l2.16,-2.09l-2.16,2.09Zm-9.64,-15.38l2.82,-1.03l-0.01,-0.02l-0.01,-0.03l-2.8,1.08Zm15.16,-0.43l2.63,-1.44l-0.02,-0.03l-0.01,-0.02l-2.6,1.49Zm12.4,12.48l1.56,-2.56l-0.02,-0.01l-0.03,-0.02l-1.51,2.59Zm38.57,2.52l-1.18,-2.76l-0.01,0l0,0.01l1.19,2.75Zm13.79,-10.78l2.42,1.78l0.01,-0.01l-2.43,-1.77Zm2.17,-33.33l2.65,-1.42l-0.02,-0.02l-0.01,-0.03l-2.62,1.47Zm-12.27,-12.48l1.56,-2.56l-0.02,-0.01l-0.03,-0.02l-1.51,2.59Zm-38.57,-2.51l-1.19,-2.76l0,0.01l-0.01,0l1.2,2.75Zm-13.93,10.89l2.4,1.81l0.01,-0.02l0.01,-0.01l-2.42,-1.78Zm-16.99,15.57c0.4,-6.06 1.96,-11.61 4.67,-16.66l-5.29,-2.84c-3.14,5.85 -4.92,12.23 -5.37,19.11l5.99,0.39Zm4.68,-16.68c2.63,-5 6.21,-9.3 10.76,-12.92l-3.74,-4.7c-5.18,4.13 -9.3,9.07 -12.33,14.82l5.31,2.8Zm10.76,-12.92c4.56,-3.63 9.84,-6.39 15.88,-8.26l-1.78,-5.73c-6.7,2.08 -12.65,5.17 -17.84,9.29l3.74,4.7Zm15.85,-8.25c5.98,-1.78 12.55,-2.46 19.74,-1.99l0.39,-5.99c-7.8,-0.51 -15.09,0.22 -21.84,2.23l1.71,5.75Zm19.74,-1.99c7.18,0.46 13.66,1.99 19.45,4.54l2.42,-5.49c-6.51,-2.86 -13.68,-4.53 -21.48,-5.04l-0.39,5.99Zm19.41,4.52c5.74,2.65 10.63,6.07 14.68,10.26l4.31,-4.18c-4.61,-4.75 -10.11,-8.59 -16.49,-11.53l-2.5,5.45Zm14.66,10.24c3.96,4.17 6.92,8.91 8.88,14.22l5.63,-2.09c-2.25,-6.08 -5.65,-11.51 -10.16,-16.27l-4.35,4.14Zm8.88,14.2c1.95,5.37 2.74,11.08 2.35,17.16l5.98,0.39c0.45,-6.87 -0.44,-13.41 -2.69,-19.6l-5.64,2.05Zm2.35,17.16c-0.4,6.08 -1.92,11.59 -4.54,16.56l5.31,2.8c3.04,-5.77 4.77,-12.11 5.21,-18.97l-5.98,-0.39Zm-4.55,16.58c-2.65,5.09 -6.19,9.44 -10.66,13.06l3.78,4.66c5.11,-4.14 9.18,-9.13 12.2,-14.96l-5.32,-2.76Zm-10.64,13.04c-4.55,3.62 -9.81,6.33 -15.84,8.12l1.71,5.75c6.71,-1.99 12.68,-5.05 17.87,-9.17l-3.74,-4.7Zm-15.86,8.13c-6.07,1.86 -12.68,2.57 -19.85,2.1l-0.39,5.99c7.81,0.51 15.15,-0.26 21.99,-2.35l-1.75,-5.74Zm-19.85,2.1c-7.18,-0.46 -13.59,-2.03 -19.27,-4.64l-2.51,5.45c6.43,2.96 13.57,4.67 21.39,5.18l0.39,-5.99Zm-19.31,-4.66c-5.74,-2.56 -10.61,-5.93 -14.65,-10.11l-4.31,4.17c4.61,4.77 10.13,8.57 16.52,11.42l2.44,-5.48Zm-14.65,-10.11c-4.04,-4.17 -7.03,-8.94 -8.98,-14.32l-5.64,2.05c2.25,6.18 5.69,11.67 10.31,16.44l4.31,-4.17Zm-9,-14.37c-2.03,-5.27 -2.86,-10.92 -2.47,-16.99l-5.99,-0.39c-0.44,6.88 0.5,13.4 2.86,19.53l5.6,-2.15Zm5.59,-16.46c-0.44,6.76 0.94,13 4.17,18.61l5.2,-2.99c-2.6,-4.52 -3.75,-9.57 -3.38,-15.23l-5.99,-0.39Zm4.14,18.56c3.11,5.65 7.65,10.2 13.52,13.62l3.02,-5.18c-5,-2.92 -8.73,-6.7 -11.28,-11.33l-5.26,2.89Zm13.47,13.6c5.82,3.54 12.6,5.52 20.24,6.02l0.39,-5.99c-6.83,-0.44 -12.64,-2.19 -17.51,-5.16l-3.12,5.13Zm20.24,6.02c7.73,0.5 14.78,-0.57 21.09,-3.32l-2.39,-5.5c-5.31,2.31 -11.39,3.28 -18.31,2.83l-0.39,5.99Zm21.08,-3.32c6.18,-2.64 11.21,-6.56 15.02,-11.75l-4.84,-3.55c-3.14,4.27 -7.29,7.54 -12.55,9.79l2.37,5.51Zm15.03,-11.76c3.74,-5.15 5.8,-11.14 6.24,-17.88l-5.98,-0.39c-0.38,5.7 -2.1,10.58 -5.12,14.74l4.86,3.53Zm6.24,-17.88c0.44,-6.73 -0.83,-12.97 -3.85,-18.64l-5.3,2.83c2.47,4.61 3.54,9.72 3.17,15.42l5.98,0.39Zm-3.88,-18.69c-3.11,-5.55 -7.58,-10.07 -13.33,-13.57l-3.12,5.13c4.94,3 8.65,6.8 11.21,11.37l5.24,-2.93Zm-13.38,-13.6c-5.9,-3.44 -12.74,-5.38 -20.46,-5.88l-0.39,5.99c6.94,0.45 12.85,2.17 17.83,5.07l3.02,-5.18Zm-20.46,-5.88c-7.63,-0.5 -14.59,0.54 -20.81,3.2l2.37,5.52c5.21,-2.24 11.21,-3.18 18.05,-2.73l0.39,-5.99Zm-20.82,3.21c-6.26,2.72 -11.33,6.68 -15.14,11.87l4.83,3.55c3.14,-4.27 7.34,-7.58 12.7,-9.92l-2.39,-5.5Zm-15.12,11.84c-3.93,5.21 -6.1,11.21 -6.54,17.9l5.99,0.39c0.37,-5.57 2.15,-10.44 5.34,-14.68l-4.79,-3.61Z" style="fill:#fff;fill-rule:nonzero;"/><path d="M957.794,2137.32l65.146,-72.92l14.96,4.91l9.89,97.54l-14.84,-4.87l-5.41,-58.22c-0.29,-3.5 -0.64,-7.35 -1.06,-11.53c-0.54,-4.12 -0.89,-8.1 -1.07,-11.93c-2.42,2.98 -4.93,5.97 -7.53,8.98c-2.71,3.06 -5.18,5.93 -7.41,8.61l-37.231,44.5l-15.445,-5.07Z" style="fill:#fff;fill-rule:nonzero;"/><path d="M957.794,2137.32l-2.238,-2l-3.055,3.42l4.357,1.43l0.936,-2.85Zm65.146,-72.92l0.94,-2.85l-1.86,-0.61l-1.31,1.46l2.23,2Zm14.96,4.91l2.99,-0.3l-0.2,-1.94l-1.85,-0.61l-0.94,2.85Zm9.89,97.54l-0.93,2.85l4.38,1.44l-0.46,-4.59l-2.99,0.3Zm-14.84,-4.87l-2.98,0.28l0.18,1.96l1.87,0.62l0.93,-2.86Zm-5.41,-58.22l-2.99,0.25l0,0.03l2.99,-0.28Zm-1.06,-11.53l2.98,-0.3l0,-0.04l-0.01,-0.04l-2.97,0.38Zm-1.07,-11.93l2.99,-0.14l-0.37,-7.87l-4.95,6.12l2.33,1.89Zm-7.53,8.98l2.25,1.99l0.01,-0.02l0.01,-0.01l-2.27,-1.96Zm-7.41,8.61l2.3,1.93l0.01,-0.01l-2.31,-1.92Zm-37.231,44.5l-0.935,2.85l1.931,0.63l1.305,-1.55l-2.301,-1.93Zm-13.208,-3.07l65.149,-72.92l-4.47,-4l-65.154,72.92l4.475,4Zm61.979,-72.07l14.96,4.91l1.87,-5.7l-14.96,-4.91l-1.87,5.7Zm12.91,2.36l9.89,97.55l5.97,-0.61l-9.89,-97.54l-5.97,0.6Zm13.81,94.39l-14.84,-4.87l-1.87,5.71l14.84,4.86l1.87,-5.7Zm-12.79,-2.29l-5.41,-58.22l-5.98,0.55l5.42,58.22l5.97,-0.55Zm-5.41,-58.19c-0.29,-3.53 -0.64,-7.39 -1.07,-11.59l-5.97,0.6c0.42,4.17 0.78,7.99 1.06,11.48l5.98,-0.49Zm-1.08,-11.67c-0.52,-4.05 -0.87,-7.95 -1.05,-11.69l-5.99,0.28c0.18,3.92 0.55,7.98 1.09,12.18l5.95,-0.77Zm-6.37,-13.44c-2.4,2.95 -4.89,5.92 -7.47,8.9l4.54,3.93c2.62,-3.03 5.15,-6.05 7.59,-9.06l-4.66,-3.77Zm-7.45,8.88c-2.72,3.08 -5.21,5.98 -7.47,8.69l4.62,3.83c2.2,-2.65 4.65,-5.5 7.35,-8.54l-4.5,-3.98Zm-7.46,8.68l-37.232,44.49l4.602,3.86l37.23,-44.5l-4.6,-3.85Zm-33.995,43.57l-15.446,-5.07l-1.871,5.7l15.446,5.07l1.871,-5.7Z" style="fill:#fff;fill-rule:nonzero;"/><path d="M835.281,2078.82l-58.946,-36.58l7.02,-11.31l47.2,29.29l12.487,-20.12l-41.218,-25.58l7.02,-11.31l41.218,25.58l13.703,-22.07l-47.2,-29.3l7.02,-11.31l58.946,36.58l-47.25,76.13Z" style="fill:#fff;fill-rule:nonzero;"/><path d="M835.281,2078.82l-1.582,2.55l2.549,1.58l1.582,-2.54l-2.549,-1.59Zm-58.946,-36.58l-2.549,-1.58l-1.582,2.55l2.549,1.58l1.582,-2.55Zm7.02,-11.31l1.582,-2.55l-2.549,-1.58l-1.582,2.55l2.549,1.58Zm47.2,29.29l-1.582,2.55l2.549,1.58l1.582,-2.54l-2.549,-1.59Zm12.487,-20.12l2.549,1.59l1.582,-2.55l-2.549,-1.59l-1.582,2.55Zm-41.218,-25.58l-2.549,-1.58l-1.582,2.55l2.549,1.58l1.582,-2.55Zm7.02,-11.31l1.582,-2.55l-2.549,-1.58l-1.582,2.55l2.549,1.58Zm41.218,25.58l-1.582,2.55l2.549,1.58l1.582,-2.55l-2.549,-1.58Zm13.703,-22.07l2.549,1.58l1.582,-2.55l-2.549,-1.58l-1.582,2.55Zm-47.2,-29.3l-2.549,-1.58l-1.582,2.55l2.549,1.58l1.582,-2.55Zm7.02,-11.31l1.582,-2.55l-2.549,-1.58l-1.582,2.55l2.549,1.58Zm58.946,36.58l2.548,1.59l1.582,-2.55l-2.548,-1.58l-1.582,2.54Zm-45.668,73.58l-58.946,-36.58l-3.164,5.1l58.946,36.58l3.164,-5.1Zm-57.979,-32.45l7.02,-11.31l-5.098,-3.16l-7.02,11.31l5.098,3.16Zm2.889,-10.34l47.2,29.29l3.164,-5.1l-47.2,-29.29l-3.164,5.1Zm51.331,28.33l12.487,-20.12l-5.097,-3.17l-12.488,20.12l5.098,3.17Zm11.52,-24.26l-41.218,-25.58l-3.164,5.1l41.218,25.58l3.164,-5.1Zm-40.251,-21.45l7.02,-11.31l-5.098,-3.16l-7.02,11.31l5.098,3.16Zm2.889,-10.34l41.218,25.58l3.164,-5.1l-41.218,-25.58l-3.164,5.1Zm45.349,24.61l13.703,-22.07l-5.098,-3.17l-13.703,22.08l5.098,3.16Zm12.736,-26.2l-47.2,-29.3l-3.164,5.1l47.2,29.29l3.164,-5.09Zm-46.233,-25.17l7.02,-11.31l-5.098,-3.16l-7.02,11.31l5.098,3.16Zm2.889,-10.34l58.945,36.58l3.165,-5.09l-58.946,-36.59l-3.164,5.1Zm57.979,32.45l-47.25,76.13l5.098,3.17l47.249,-76.13l-5.097,-3.17Z" style="fill:#fff;fill-rule:nonzero;"/><path d="M608.049,1896.46l-9.587,-9.96l64.553,-62.13l9.498,9.86l-4.547,96.05c3.579,-4.15 7.159,-8.31 10.738,-12.46c3.519,-4.1 7.245,-8.04 11.18,-11.83l26.835,-25.83l9.587,9.96l-64.553,62.13l-9.321,-9.68l5.839,-97.29c-2.658,3.27 -5.62,6.71 -8.888,10.33c-3.388,3.62 -6.775,7.17 -10.161,10.67c-3.507,3.49 -6.828,6.75 -9.963,9.77l-21.21,20.41Z" style="fill:#fff;fill-rule:nonzero;"/><path d="M608.049,1896.46l-2.162,2.08l2.081,2.16l2.161,-2.08l-2.08,-2.16Zm-9.587,-9.96l-2.081,-2.16l-2.161,2.08l2.08,2.16l2.162,-2.08Zm64.553,-62.13l2.161,-2.09l-2.08,-2.16l-2.162,2.08l2.081,2.17Zm9.498,9.86l2.996,0.14l0.062,-1.29l-0.897,-0.93l-2.161,2.08Zm-4.547,96.05l-2.997,-0.14l-0.412,8.7l5.682,-6.6l-2.273,-1.96Zm10.738,-12.46l2.274,1.95l0.002,0l-2.276,-1.95Zm38.015,-37.66l2.162,-2.08l-2.081,-2.16l-2.161,2.08l2.08,2.16Zm9.587,9.96l2.081,2.16l2.161,-2.08l-2.081,-2.16l-2.161,2.08Zm-64.553,62.13l-2.161,2.09l2.08,2.16l2.162,-2.08l-2.081,-2.17Zm-9.321,-9.68l-2.994,-0.18l-0.079,1.31l0.912,0.95l2.161,-2.08Zm5.839,-97.29l2.994,0.18l0.559,-9.31l-5.881,7.23l2.328,1.9Zm-8.888,10.33l2.19,2.05l0.018,-0.02l0.019,-0.02l-2.227,-2.01Zm-10.161,10.67l2.117,2.12l0.038,-0.04l-2.155,-2.08Zm-29.012,28.1l-9.587,-9.96l-4.323,4.16l9.587,9.96l4.323,-4.16Zm-9.668,-5.72l64.553,-62.13l-4.161,-4.33l-64.553,62.14l4.161,4.32Zm60.311,-62.21l9.498,9.86l4.323,-4.16l-9.498,-9.87l-4.323,4.17Zm8.663,7.64l-4.547,96.05l5.993,0.29l4.547,-96.06l-5.993,-0.28Zm0.723,98.15c3.579,-4.15 7.159,-8.31 10.739,-12.47l-4.547,-3.91c-3.579,4.15 -7.159,8.31 -10.739,12.47l4.547,3.91Zm10.741,-12.47c3.456,-4.02 7.117,-7.9 10.984,-11.62l-4.161,-4.32c-4.002,3.85 -7.794,7.86 -11.375,12.03l4.552,3.91Zm10.984,-11.62l26.836,-25.83l-4.161,-4.32l-26.836,25.83l4.161,4.32Zm22.594,-25.91l9.587,9.96l4.322,-4.16l-9.586,-9.96l-4.323,4.16Zm9.668,5.72l-64.553,62.13l4.161,4.33l64.553,-62.14l-4.161,-4.32Zm-60.312,62.21l-9.32,-9.68l-4.323,4.16l9.321,9.69l4.322,-4.17Zm-8.487,-7.42l5.838,-97.29l-5.989,-0.36l-5.838,97.29l5.989,0.36Zm0.516,-99.37c-2.62,3.23 -5.548,6.63 -8.787,10.22l4.454,4.02c3.297,-3.65 6.294,-7.14 8.988,-10.45l-4.655,-3.79Zm-8.749,10.18c-3.377,3.6 -6.753,7.15 -10.127,10.63l4.31,4.17c3.398,-3.5 6.796,-7.07 10.196,-10.7l-4.379,-4.1Zm-10.09,10.59c-3.496,3.49 -6.804,6.73 -9.926,9.73l4.161,4.33c3.15,-3.03 6.483,-6.3 10,-9.81l-4.235,-4.25Zm-9.926,9.73l-21.21,20.42l4.161,4.32l21.21,-20.41l-4.161,-4.33Z" style="fill:#fff;fill-rule:nonzero;"/><path d="M551.278,1656.93l-13.868,19.02l23.63,42.36l23.47,-1.8l7.045,12.63l-98.328,7.65l-7.606,-13.64l58.3,-79.41l7.357,13.19Zm-31.521,64.62l26.665,-2.12l-17.707,-31.74l-16.076,22.15c-1.728,2.33 -3.44,4.61 -5.136,6.82c-1.695,2.22 -3.56,4.48 -5.595,6.79c3.19,-0.41 6.268,-0.76 9.235,-1.05c2.851,-0.32 5.722,-0.6 8.614,-0.85Z" style="fill:#fff;fill-rule:nonzero;"/><path d="M551.278,1656.93l2.424,1.76l1.132,-1.55l-0.936,-1.67l-2.62,1.46Zm-13.868,19.02l-2.424,-1.77l-1.131,1.55l0.935,1.68l2.62,-1.46Zm23.63,42.36l-2.62,1.47l0.936,1.67l1.914,-0.14l-0.23,-3Zm23.47,-1.8l2.62,-1.46l-0.935,-1.68l-1.915,0.15l0.23,2.99Zm7.045,12.63l0.233,2.99l4.668,-0.36l-2.281,-4.09l-2.62,1.46Zm-98.328,7.65l-2.62,1.46l0.936,1.68l1.917,-0.15l-0.233,-2.99Zm-7.606,-13.64l-2.419,-1.77l-1.14,1.55l0.939,1.68l2.62,-1.46Zm58.3,-79.41l2.62,-1.47l-2.274,-4.07l-2.764,3.76l2.418,1.78Zm-24.164,77.81l-0.237,-2.99l-0.016,0l0.253,2.99Zm26.665,-2.12l0.237,2.99l4.659,-0.37l-2.276,-4.08l-2.62,1.46Zm-17.707,-31.74l2.62,-1.47l-2.289,-4.1l-2.759,3.8l2.428,1.77Zm-16.076,22.15l2.41,1.79l0.009,-0.01l0.009,-0.02l-2.428,-1.76Zm-5.136,6.82l2.383,1.83l-2.383,-1.83Zm-5.595,6.79l-2.25,-1.99l-5.274,5.98l7.907,-1.02l-0.383,-2.97Zm9.235,-1.05l0.289,2.99l0.023,0l0.023,-0.01l-0.335,-2.98Zm37.711,-67.24l-13.868,19.02l4.848,3.53l13.868,-19.02l-4.848,-3.53Zm-14.064,22.25l23.63,42.37l5.24,-2.93l-23.63,-42.36l-5.24,2.92Zm26.48,43.9l23.47,-1.81l-0.46,-5.98l-23.47,1.8l0.46,5.99Zm20.62,-3.34l7.045,12.63l5.24,-2.92l-7.045,-12.63l-5.24,2.92Zm9.433,8.18l-98.329,7.65l0.466,5.98l98.328,-7.65l-0.465,-5.98Zm-95.476,9.18l-7.606,-13.64l-5.24,2.92l7.606,13.64l5.24,-2.92Zm-7.808,-10.4l58.301,-79.42l-4.837,-3.55l-58.301,79.42l4.837,3.55Zm53.262,-79.73l7.357,13.19l5.24,-2.92l-7.357,-13.2l-5.24,2.93Zm-21.306,79.34l26.664,-2.12l-0.475,-5.98l-26.664,2.12l0.475,5.98Zm29.047,-6.57l-17.707,-31.75l-5.24,2.93l17.707,31.74l5.24,-2.92Zm-22.755,-32.05l-16.076,22.16l4.856,3.52l16.076,-22.15l-4.856,-3.53Zm-16.058,22.14c-1.72,2.32 -3.422,4.58 -5.108,6.78l4.765,3.65c1.705,-2.23 3.426,-4.52 5.163,-6.86l-4.82,-3.57Zm-5.108,6.78c-1.649,2.16 -3.47,4.36 -5.463,6.62l4.5,3.97c2.076,-2.35 3.986,-4.67 5.728,-6.94l-4.765,-3.65Zm-2.83,11.58c3.161,-0.4 6.208,-0.75 9.141,-1.03l-0.577,-5.97c-3.001,0.29 -6.112,0.64 -9.331,1.05l0.767,5.95Zm9.187,-1.04c2.823,-0.31 5.667,-0.59 8.533,-0.84l-0.507,-5.98c-2.919,0.25 -5.817,0.54 -8.695,0.86l0.669,5.96Z" style="fill:#fff;fill-rule:nonzero;"/><path d="M395.815,1486.87l-3.514,-13.37l86.659,-22.77l3.48,13.24l-50.808,81.64c5.151,-1.88 10.303,-3.76 15.455,-5.64c5.07,-1.87 10.245,-3.49 15.527,-4.88l36.026,-9.46l3.513,13.37l-86.659,22.77l-3.415,-13l52.542,-82.1c-3.914,1.56 -8.18,3.12 -12.797,4.69c-4.722,1.5 -9.414,2.96 -14.075,4.36c-4.765,1.34 -9.252,2.56 -13.461,3.67l-28.473,7.48Z" style="fill:#fff;fill-rule:nonzero;"/><path d="M395.815,1486.87l-2.902,0.76l0.762,2.9l2.902,-0.76l-0.762,-2.9Zm-3.514,-13.37l-0.762,-2.9l-2.901,0.76l0.762,2.9l2.901,-0.76Zm86.659,-22.77l2.901,-0.76l-0.762,-2.91l-2.901,0.77l0.762,2.9Zm3.48,13.24l2.547,1.59l0.683,-1.1l-0.328,-1.25l-2.902,0.76Zm-50.808,81.64l-2.547,-1.58l-4.601,7.39l8.177,-2.99l-1.029,-2.82Zm15.455,-5.64l1.03,2.81l0.004,0l-1.034,-2.81Zm51.553,-14.34l2.901,-0.77l-0.762,-2.9l-2.902,0.76l0.763,2.91Zm3.513,13.37l0.762,2.9l2.902,-0.77l-0.763,-2.9l-2.901,0.77Zm-86.659,22.77l-2.901,0.76l0.762,2.9l2.902,-0.76l-0.763,-2.9Zm-3.415,-13l-2.527,-1.62l-0.709,1.11l0.334,1.27l2.902,-0.76Zm52.542,-82.1l2.527,1.62l5.025,-7.85l-8.662,3.44l1.11,2.79Zm-12.797,4.69l0.911,2.86l0.052,-0.02l-0.963,-2.84Zm-14.075,4.36l0.813,2.88l0.025,0l0.026,-0.01l-0.864,-2.87Zm-39.033,10.39l-3.513,-13.37l-5.803,1.52l3.513,13.37l5.803,-1.52Zm-5.652,-9.71l86.658,-22.77l-1.524,-5.8l-86.659,22.77l1.525,5.8Zm82.994,-24.91l3.481,13.25l5.803,-1.53l-3.481,-13.24l-5.803,1.52Zm3.835,10.9l-50.808,81.64l5.094,3.17l50.808,-81.64l-5.094,-3.17Zm-47.232,86.04c5.152,-1.88 10.304,-3.76 15.456,-5.65l-2.06,-5.63c-5.151,1.88 -10.303,3.76 -15.455,5.65l2.059,5.63Zm15.46,-5.65c4.98,-1.83 10.065,-3.42 15.256,-4.79l-1.525,-5.8c-5.373,1.41 -10.639,3.06 -15.799,4.96l2.068,5.63Zm15.256,-4.79l36.025,-9.46l-1.525,-5.81l-36.025,9.47l1.525,5.8Zm32.361,-11.6l3.513,13.37l5.803,-1.53l-3.513,-13.37l-5.803,1.53Zm5.652,9.7l-86.658,22.77l1.525,5.81l86.658,-22.77l-1.525,-5.81Zm-82.994,24.91l-3.416,-13l-5.803,1.53l3.416,13l5.803,-1.53Zm-3.79,-10.62l52.542,-82.09l-5.054,-3.24l-52.542,82.1l5.054,3.23Zm48.905,-86.5c-3.859,1.54 -8.075,3.08 -12.651,4.64l1.927,5.68c4.659,-1.58 8.974,-3.16 12.943,-4.74l-2.219,-5.58Zm-12.599,4.62c-4.706,1.5 -9.381,2.95 -14.026,4.34l1.727,5.75c4.677,-1.41 9.384,-2.86 14.122,-4.37l-1.823,-5.72Zm-13.975,4.33c-4.751,1.34 -9.221,2.55 -13.411,3.65l1.524,5.81c4.228,-1.11 8.732,-2.34 13.512,-3.69l-1.625,-5.77Zm-13.411,3.65l-28.474,7.49l1.525,5.8l28.473,-7.48l-1.524,-5.81Z" style="fill:#fff;fill-rule:nonzero;"/><path d="M450.418,1245.85c2.059,2.21 4.165,5.23 6.318,9.06c2.153,3.83 4.011,8.21 5.572,13.16c1.476,4.94 2.229,10.22 2.257,15.86c0.036,6.91 -0.998,13.36 -3.1,19.34c-2.188,5.99 -5.276,11.25 -9.263,15.79c-3.988,4.46 -8.792,7.94 -14.411,10.44c-5.705,2.51 -12.055,3.78 -19.053,3.81c-6.57,0.04 -12.635,-1.21 -18.195,-3.74c-5.56,-2.62 -10.4,-6.22 -14.52,-10.81c-4.119,-4.58 -7.304,-9.86 -9.553,-15.82c-2.335,-5.96 -3.519,-12.27 -3.553,-18.93c-0.028,-5.46 0.713,-10.71 2.223,-15.75c1.425,-5.04 3.279,-9.53 5.563,-13.47c2.283,-4.02 4.656,-7.24 7.118,-9.64l11.18,8.52c-3.648,4.2 -6.61,8.87 -8.888,14c-2.363,5.13 -3.528,10.9 -3.495,17.3c0.022,4.35 0.769,8.57 2.241,12.66c1.471,4.09 3.624,7.79 6.457,11.1c2.747,3.23 6.088,5.81 10.024,7.76c3.935,1.85 8.377,2.77 13.326,2.74c7.168,-0.03 13.175,-1.77 18.022,-5.21c4.761,-3.44 8.364,-7.93 10.81,-13.49c2.361,-5.65 3.525,-11.63 3.492,-17.94c-0.023,-4.61 -0.642,-8.75 -1.855,-12.41c-1.299,-3.66 -2.852,-6.94 -4.659,-9.83c-1.807,-2.89 -3.612,-5.49 -5.416,-7.78l11.358,-6.72Z" style="fill:#fff;fill-rule:nonzero;"/><path d="M450.418,1245.85l2.194,-2.04l-1.645,-1.76l-2.076,1.22l1.527,2.58Zm6.318,9.06l-2.615,1.47l2.615,-1.47Zm5.572,13.16l2.875,-0.86l-0.007,-0.03l-0.007,-0.02l-2.861,0.91Zm-0.843,35.2l2.817,1.03l0.007,-0.02l0.006,-0.01l-2.83,-1Zm-9.263,15.79l2.236,2l0.018,-0.02l-2.254,-1.98Zm-14.411,10.44l1.206,2.75l0.015,0l-1.221,-2.75Zm-37.248,0.07l-1.278,2.71l0.017,0.01l0.018,0.01l1.243,-2.73Zm-14.52,-10.81l2.232,-2l-2.232,2Zm-9.553,-15.82l2.807,-1.06l-0.007,-0.02l-0.007,-0.01l-2.793,1.09Zm-1.33,-34.68l2.874,0.86l0.006,-0.02l0.007,-0.03l-2.887,-0.81Zm5.563,-13.47l2.595,1.5l0.014,-0.02l-2.609,-1.48Zm7.118,-9.64l1.819,-2.38l-2.06,-1.57l-1.853,1.8l2.094,2.15Zm11.18,8.52l2.265,1.97l2.098,-2.42l-2.544,-1.94l-1.819,2.39Zm-8.888,14l2.725,1.25l0.009,-0.02l0.008,-0.01l-2.742,-1.22Zm-1.254,29.96l-2.823,1.01l2.823,-1.01Zm6.457,11.1l2.285,-1.94l-0.005,-0.01l-2.28,1.95Zm10.024,7.76l-1.328,2.69l0.024,0.01l0.023,0.01l1.281,-2.71Zm31.348,-2.47l1.735,2.45l0.011,-0.01l0.01,-0.01l-1.756,-2.43Zm10.81,-13.49l2.746,1.2l0.011,-0.02l0.011,-0.03l-2.768,-1.15Zm1.637,-30.35l2.848,-0.94l-0.01,-0.03l-0.011,-0.03l-2.827,1Zm-4.659,-9.83l-2.544,1.59l2.544,-1.59Zm-5.416,-7.78l-1.527,-2.58l-2.948,1.74l2.117,2.69l2.358,-1.85Zm9.164,-4.67c1.841,1.98 3.814,4.77 5.897,8.48l5.23,-2.94c-2.222,-3.95 -4.462,-7.19 -6.739,-9.63l-4.388,4.09Zm5.897,8.48c2.036,3.62 3.816,7.81 5.326,12.59l5.722,-1.81c-1.613,-5.1 -3.547,-9.68 -5.818,-13.72l-5.23,2.94Zm5.313,12.54c1.387,4.65 2.104,9.65 2.131,15.02l6,-0.03c-0.03,-5.89 -0.818,-11.46 -2.382,-16.7l-5.749,1.71Zm2.131,15.02c0.034,6.6 -0.952,12.7 -2.931,18.34l5.661,1.99c2.227,-6.34 3.308,-13.13 3.27,-20.36l-6,0.03Zm-2.918,18.3c-2.067,5.66 -4.97,10.59 -8.7,14.84l4.509,3.96c4.246,-4.84 7.518,-10.43 9.826,-16.74l-5.635,-2.06Zm-8.681,14.82c-3.698,4.14 -8.152,7.37 -13.396,9.7l2.442,5.49c5.995,-2.68 11.147,-6.4 15.426,-11.19l-4.472,-4Zm-13.381,9.7c-5.285,2.32 -11.224,3.52 -17.862,3.55l0.031,6c7.356,-0.03 14.119,-1.37 20.243,-4.06l-2.412,-5.49Zm-17.862,3.55c-6.17,0.04 -11.802,-1.13 -16.937,-3.47l-2.486,5.46c5.984,2.72 12.482,4.05 19.454,4.01l-0.031,-6Zm-16.903,-3.46c-5.196,-2.44 -9.712,-5.8 -13.565,-10.09l-4.464,4.01c4.387,4.88 9.551,8.72 15.474,11.51l2.555,-5.43Zm-13.565,-10.09c-3.862,-4.3 -6.856,-9.25 -8.978,-14.88l-5.614,2.12c2.376,6.3 5.752,11.89 10.128,16.77l4.464,-4.01Zm-8.992,-14.91c-2.194,-5.61 -3.314,-11.55 -3.346,-17.85l-6,0.03c0.036,7.01 1.285,13.68 3.759,20l5.587,-2.18Zm-3.346,-17.85c-0.027,-5.18 0.675,-10.13 2.097,-14.88l-5.748,-1.72c-1.598,5.33 -2.379,10.88 -2.349,16.63l6,-0.03Zm2.11,-14.93c1.366,-4.83 3.13,-9.09 5.271,-12.78l-5.19,-3.01c-2.427,4.19 -4.372,8.91 -5.855,14.16l5.774,1.63Zm5.285,-12.8c2.189,-3.86 4.4,-6.82 6.604,-8.97l-4.189,-4.3c-2.72,2.66 -5.255,6.12 -7.633,10.31l5.218,2.96Zm2.691,-8.73l11.18,8.52l3.637,-4.78l-11.18,-8.51l-3.637,4.77Zm10.733,4.16c-3.845,4.43 -6.968,9.35 -9.365,14.75l5.484,2.44c2.158,-4.87 4.961,-9.28 8.411,-13.25l-4.53,-3.94Zm-9.348,14.71c-2.569,5.58 -3.805,11.79 -3.77,18.57l6,-0.03c-0.031,-6.02 1.063,-11.34 3.22,-16.03l-5.45,-2.51Zm-3.77,18.57c0.024,4.69 0.831,9.25 2.418,13.66l5.645,-2.03c-1.355,-3.77 -2.043,-7.65 -2.063,-11.66l-6,0.03Zm2.418,13.66c1.595,4.43 3.932,8.45 7,12.04l4.56,-3.9c-2.598,-3.04 -4.566,-6.42 -5.915,-10.17l-5.645,2.03Zm6.995,12.03c3.022,3.56 6.692,6.39 10.981,8.51l2.656,-5.38c-3.582,-1.77 -6.594,-4.11 -9.067,-7.01l-4.57,3.88Zm11.028,8.53c4.393,2.07 9.287,3.06 14.622,3.03l-0.03,-6c-4.563,0.03 -8.553,-0.81 -12.031,-2.46l-2.561,5.43Zm14.622,3.03c7.655,-0.03 14.297,-1.9 19.742,-5.76l-3.471,-4.89c-4.247,3.01 -9.62,4.62 -16.301,4.65l0.03,6Zm19.763,-5.78c5.209,-3.76 9.147,-8.68 11.8,-14.72l-5.491,-2.41c-2.239,5.09 -5.509,9.16 -9.822,12.27l3.513,4.86Zm11.822,-14.77c2.521,-6.02 3.759,-12.4 3.724,-19.11l-6,0.03c0.031,5.93 -1.059,11.51 -3.259,16.77l5.535,2.31Zm3.724,-19.11c-0.025,-4.86 -0.678,-9.32 -2.007,-13.33l-5.696,1.89c1.097,3.31 1.681,7.12 1.703,11.47l6,-0.03Zm-2.028,-13.39c-1.362,-3.84 -3.005,-7.32 -4.942,-10.42l-5.088,3.18c1.677,2.68 3.139,5.76 4.375,9.24l5.655,-2Zm-4.942,-10.42c-1.854,-2.97 -3.721,-5.65 -5.601,-8.04l-4.717,3.7c1.727,2.2 3.471,4.7 5.23,7.52l5.088,-3.18Zm-6.433,-3.61l11.358,-6.71l-3.054,-5.17l-11.358,6.72l3.054,5.16Z" style="fill:#fff;fill-rule:nonzero;"/><path d="M390.38,1108.15l16.054,-67.49l12.95,3.08l-12.855,54.05l23.038,5.48l11.225,-47.2l12.951,3.08l-11.226,47.2l25.279,6.01l12.855,-54.05l12.951,3.09l-16.054,67.49l-87.168,-20.74Z" style="fill:#fff;fill-rule:nonzero;"/><path d="M390.38,1108.15l-2.919,-0.69l-0.694,2.92l2.919,0.69l0.694,-2.92Zm16.054,-67.49l0.694,-2.92l-2.919,-0.69l-0.694,2.92l2.919,0.69Zm12.95,3.08l2.919,0.7l0.694,-2.92l-2.919,-0.7l-0.694,2.92Zm-12.855,54.05l-2.918,-0.7l-0.694,2.92l2.918,0.69l0.694,-2.91Zm23.038,5.48l-0.694,2.91l2.918,0.7l0.694,-2.92l-2.918,-0.69Zm11.225,-47.2l0.695,-2.92l-2.919,-0.69l-0.694,2.92l2.918,0.69Zm12.951,3.08l2.919,0.7l0.694,-2.92l-2.919,-0.7l-0.694,2.92Zm-11.226,47.2l-2.918,-0.7l-0.694,2.92l2.918,0.69l0.694,-2.91Zm25.279,6.01l-0.694,2.92l2.919,0.69l0.694,-2.92l-2.919,-0.69Zm12.855,-54.05l0.694,-2.91l-2.918,-0.7l-0.695,2.92l2.919,0.69Zm12.951,3.09l2.918,0.69l0.694,-2.92l-2.918,-0.69l-0.694,2.92Zm-16.054,67.49l-0.694,2.92l2.918,0.69l0.695,-2.92l-2.919,-0.69Zm-84.25,-20.04l16.054,-67.49l-5.837,-1.39l-16.054,67.49l5.837,1.39Zm12.441,-65.27l12.951,3.08l1.388,-5.84l-12.95,-3.08l-1.389,5.84Zm10.727,-0.53l-12.855,54.04l5.837,1.39l12.855,-54.04l-5.837,-1.39Zm-10.631,57.65l23.038,5.48l1.388,-5.83l-23.037,-5.48l-1.389,5.83Zm26.65,3.26l11.226,-47.2l-5.837,-1.38l-11.226,47.19l5.837,1.39Zm7.613,-44.97l12.951,3.08l1.388,-5.84l-12.95,-3.08l-1.389,5.84Zm10.727,-0.53l-11.226,47.19l5.837,1.39l11.226,-47.19l-5.837,-1.39Zm-9.002,50.8l25.279,6.02l1.388,-5.84l-25.278,-6.01l-1.389,5.83Zm28.892,3.79l12.855,-54.04l-5.838,-1.39l-12.854,54.04l5.837,1.39Zm9.242,-51.82l12.95,3.08l1.389,-5.83l-12.951,-3.08l-1.388,5.83Zm10.726,-0.53l-16.054,67.49l5.838,1.39l16.053,-67.49l-5.837,-1.39Zm-12.441,65.27l-87.168,-20.73l-1.388,5.83l87.168,20.74l1.388,-5.84Z" style="fill:#fff;fill-rule:nonzero;"/><circle cx="1286" cy="1286" r="725" style="fill:none;stroke:#fff;stroke-width:50px;"/><path d="M1710.84,1089.69c-12.47,-0.01 -24.64,3.79 -34.89,10.91c-10.24,7.12 -18.06,17.2 -22.41,28.9c-4.36,11.7 -5.03,24.46 -1.93,36.55c3.1,12.09 9.82,22.95 19.26,31.11c-18.61,29.36 -39.07,57.51 -61.25,84.27c-9.48,11.43 -20.13,21.83 -31.78,31.04c-120.41,94.18 -234.88,-22.18 -271.39,-270.5c14.86,-4.77 27.54,-14.7 35.73,-28c8.2,-13.3 11.38,-29.098 8.97,-44.541c-2.41,-15.443 -10.25,-29.516 -22.1,-39.68c-11.86,-10.163 -26.96,-15.749 -42.57,-15.749c-15.6,0 -30.7,5.586 -42.56,15.749c-11.86,10.164 -19.7,24.237 -22.11,39.68c-2.4,15.443 0.78,31.241 8.97,44.541c8.2,13.3 20.88,23.23 35.74,28c-36.5,248.32 -150.98,364.68 -271.397,270.5c-11.64,-9.21 -22.29,-19.62 -31.776,-31.04c-22.177,-26.77 -42.633,-54.91 -61.246,-84.27c10.814,-9.4 17.987,-22.3 20.268,-36.46c2.28,-14.15 -0.478,-28.66 -7.793,-40.99c-7.315,-12.32 -18.722,-21.68 -32.228,-26.44c-13.505,-4.76 -28.251,-4.62 -41.662,0.4c-13.411,5.03 -24.634,14.6 -31.709,27.07c-7.075,12.46 -9.551,27.02 -6.997,41.13c2.553,14.11 9.976,26.87 20.97,36.05c10.994,9.19 24.86,14.21 39.178,14.2c0.935,0 1.823,-0.09 2.743,-0.14c19.957,78.6 46.287,281.67 55.279,408.95c1.347,19.06 19.597,32.63 38.238,28.42c62.792,-14.19 198.062,-40.85 328.092,-40.85c130.18,0 266.16,26.72 329.15,40.9c18.63,4.19 36.85,-9.38 38.17,-28.43c8.83,-127.27 34.34,-330.41 54.31,-408.99c0.91,0 1.81,0.14 2.73,0.14c16.04,-0.25 31.34,-6.82 42.6,-18.27c11.25,-11.45 17.56,-26.88 17.56,-42.94c0,-16.07 -6.31,-31.5 -17.56,-42.95c-11.26,-11.45 -26.56,-18.01 -42.6,-18.27Z" style="fill:#fff;fill-rule:nonzero;"/></g></svg>