<svg width="112" height="40" viewBox="0 0 112 40" fill="none" xmlns="http://www.w3.org/2000/svg">
<path d="M64.251 25.02C63.9044 25.34 63.431 25.6667 62.831 26C62.231 26.3333 61.5444 26.62 60.771 26.86C59.9977 27.0867 59.171 27.2 58.291 27.2C57.211 27.2 56.2043 27.0333 55.271 26.7C54.3377 26.3533 53.5177 25.8667 52.811 25.24C52.1177 24.6133 51.5777 23.86 51.191 22.98C50.8043 22.0867 50.611 21.0933 50.611 20C50.611 18.9733 50.811 18.0267 51.211 17.16C51.6243 16.2933 52.191 15.54 52.911 14.9C53.631 14.26 54.4577 13.7667 55.391 13.42C56.3244 13.06 57.311 12.88 58.351 12.88C59.2044 12.88 60.0244 13 60.811 13.24C61.5977 13.4667 62.2977 13.76 62.911 14.12C63.5377 14.48 64.0377 14.8533 64.411 15.24L63.071 16.98C62.4177 16.4067 61.691 15.94 60.891 15.58C60.091 15.2067 59.191 15.02 58.191 15.02C57.511 15.02 56.851 15.1333 56.211 15.36C55.571 15.5867 54.991 15.92 54.471 16.36C53.9643 16.7867 53.5577 17.3067 53.251 17.92C52.9577 18.5333 52.811 19.2267 52.811 20C52.811 21.12 53.0777 22.06 53.611 22.82C54.1443 23.5667 54.8443 24.1333 55.711 24.52C56.591 24.8933 57.5244 25.08 58.511 25.08C59.231 25.08 59.8777 24.9867 60.451 24.8C61.0244 24.6 61.5377 24.36 61.991 24.08C62.4444 23.8 62.851 23.52 63.211 23.24L64.251 25.02ZM85.6007 27L84.0607 23.66H76.4807L74.9407 27H72.6807L79.1207 13H81.5607L87.9607 27H85.6007ZM79.1807 17.78L77.4407 21.58H83.1207L81.3207 17.7C81.134 17.2867 80.954 16.88 80.7807 16.48C80.6074 16.08 80.4407 15.6533 80.2807 15.2C80.094 15.6667 79.9074 16.1133 79.7207 16.54C79.5474 16.9533 79.3674 17.3667 79.1807 17.78ZM104.884 13C105.684 13 106.417 13.1933 107.084 13.58C107.75 13.9533 108.284 14.4667 108.684 15.12C109.097 15.76 109.304 16.4867 109.304 17.3C109.304 18.14 109.084 18.9 108.644 19.58C108.217 20.2467 107.644 20.78 106.924 21.18C106.217 21.58 105.437 21.78 104.584 21.78H99.5438V27H97.3838V13H104.884ZM104.444 19.7C104.91 19.7 105.337 19.5933 105.724 19.38C106.124 19.1533 106.437 18.86 106.664 18.5C106.904 18.14 107.024 17.74 107.024 17.3C107.024 16.8867 106.904 16.5133 106.664 16.18C106.437 15.8467 106.124 15.58 105.724 15.38C105.337 15.18 104.91 15.08 104.444 15.08H99.5438V19.7H104.444Z" fill="white"/>
<path d="M20 39C30.4934 39 39 30.4934 39 20C39 9.50659 30.4934 1 20 1C9.50659 1 1 9.50659 1 20C1 30.4934 9.50659 39 20 39Z" stroke="white" stroke-width="1.4"/>
<path d="M31.3875 14.7732C31.0532 14.7728 30.727 14.8762 30.4523 15.0695C30.1778 15.2629 29.9682 15.5369 29.8516 15.8548C29.7347 16.1726 29.7168 16.5191 29.7999 16.8477C29.8829 17.1762 30.0631 17.4711 30.3161 17.6927C29.8173 18.4905 29.2689 19.2552 28.6743 19.9822C28.4202 20.2927 28.1348 20.5754 27.8225 20.8256C24.5949 23.3843 21.5268 20.2231 20.5481 13.4766C20.9465 13.3471 21.2862 13.0773 21.506 12.716C21.7257 12.3546 21.8109 11.9254 21.7464 11.5059C21.6818 11.0863 21.4716 10.704 21.1538 10.4279C20.8359 10.1518 20.4313 10 20.013 10C19.5946 10 19.19 10.1518 18.8722 10.4279C18.5543 10.704 18.3441 11.0863 18.2795 11.5059C18.215 11.9254 18.3003 12.3546 18.52 12.716C18.7397 13.0773 19.0794 13.3471 19.4779 13.4766C18.4996 20.2231 15.431 23.3843 12.2033 20.8256C11.8913 20.5753 11.6058 20.2926 11.3516 19.9822C10.7571 19.2551 10.2088 18.4904 9.70992 17.6927C9.99978 17.4375 10.192 17.0869 10.2532 16.7023C10.3143 16.3178 10.2404 15.9237 10.0443 15.5888C9.84823 15.254 9.54247 14.9997 9.18046 14.8704C8.81847 14.7411 8.42321 14.745 8.06374 14.8814C7.70427 15.0178 7.40345 15.278 7.21381 15.6167C7.02417 15.9553 6.9578 16.3508 7.02626 16.7341C7.09469 17.1174 7.29366 17.4641 7.58834 17.7136C7.88303 17.9632 8.25469 18.0997 8.63848 18.0993C8.66354 18.0993 8.68734 18.0968 8.712 18.0955C9.24693 20.2309 9.95268 25.748 10.1937 29.2058C10.2298 29.7236 10.719 30.0923 11.2186 29.9779C12.9019 29.5924 16.5277 28.8681 20.013 28.8681C23.5023 28.8681 27.1471 29.594 28.8354 29.9793C29.3348 30.0931 29.8232 29.7244 29.8586 29.2069C30.0952 25.7492 30.779 20.2304 31.3143 18.0955C31.3387 18.0955 31.3628 18.0993 31.3875 18.0993C31.8174 18.0924 32.2275 17.9141 32.5293 17.603C32.8309 17.2918 33 16.8728 33 16.4363C33 15.9997 32.8309 15.5807 32.5293 15.2696C32.2275 14.9584 31.8174 14.7801 31.3875 14.7732Z" fill="white"/>
</svg>
