<svg width="45" height="45" viewBox="0 0 45 45" fill="none" xmlns="http://www.w3.org/2000/svg">
<rect width="45" height="45" rx="6" fill="#6B7280"/>
<path d="M22.2188 9.5C18.4688 9.5 16.0312 11.0469 14.1094 13.8125C13.7812 14.2812 13.875 14.9844 14.3906 15.3125L16.4062 16.8594C16.875 17.2344 17.5781 17.1406 17.9531 16.6719C19.125 15.2188 20.0156 14.375 21.8438 14.375C23.2969 14.375 25.0781 15.2656 25.0781 16.6719C25.0781 17.75 24.1875 18.2656 22.7812 19.0625C21.0938 20 18.8906 21.1719 18.8906 24.0781V24.5C18.8906 25.1562 19.4062 25.625 20.0156 25.625H23.4375C24.0469 25.625 24.5625 25.1562 24.5625 24.5V24.2656C24.5625 22.25 30.4219 22.1562 30.4219 16.7188C30.4219 12.6406 26.1562 9.5 22.2188 9.5ZM21.75 27.0312C19.9219 27.0312 18.4688 28.4844 18.4688 30.2656C18.4688 32.0469 19.9219 33.5 21.75 33.5C23.5312 33.5 24.9844 32.0469 24.9844 30.2656C24.9844 28.4844 23.5312 27.0312 21.75 27.0312Z" fill="white"/>
</svg>
